<svg width="49" height="49" viewBox="0 0 49 49" fill="none" xmlns="http://www.w3.org/2000/svg">
<g opacity="0.5">
<rect width="49" height="49" rx="10" fill="#3A4D86" fill-opacity="0.34"/>
<path fill-rule="evenodd" clip-rule="evenodd" d="M33.7307 13.9084C33.9568 13.9755 34.2523 14.1235 34.3874 14.2371C34.5225 14.3507 34.7281 14.6059 34.8443 14.8041C35.0042 15.0772 35.0646 15.3082 35.0935 15.7574C35.1221 16.204 35.0965 16.442 34.9895 16.7221C34.9114 16.9267 34.7199 17.2353 34.564 17.4079C34.4081 17.5804 34.1456 17.7905 33.9806 17.8746C33.8157 17.9588 33.4858 18.0505 33.2475 18.0785C32.9481 18.1137 32.6732 18.0884 32.3574 17.9967C32.0733 17.914 31.7785 17.7536 31.5778 17.5722C31.4002 17.4118 31.1799 17.134 31.0879 16.9548C30.9839 16.7519 30.907 16.4164 30.8841 16.0653C30.8542 15.6075 30.8801 15.4251 31.0219 15.0957C31.1179 14.8725 31.3355 14.5541 31.5056 14.388C31.6828 14.215 31.9968 14.0233 32.2414 13.9388C32.476 13.8578 32.8146 13.7903 32.9937 13.7889C33.1729 13.7874 33.5045 13.8412 33.7307 13.9084ZM26.1233 24.0708C27.8543 28.9565 29.2524 33.0015 29.2301 33.0595C29.1981 33.1429 28.7852 33.1652 27.2699 33.1652C25.8222 33.1652 25.3343 33.1406 25.2855 33.0651C25.2499 33.01 24.9099 32.0641 24.5301 30.963L23.8394 28.9611H20.6525H17.4655L16.7786 31.0431L16.0918 33.1251L14.27 33.1467C12.4968 33.1676 12.4482 33.1639 12.4482 33.0086C12.4482 32.9209 13.6982 29.2537 15.2259 24.8592C16.7536 20.4647 18.0501 16.653 18.107 16.3888C18.164 16.1245 18.2113 15.7611 18.2122 15.5814C18.2131 15.4015 18.2385 15.2298 18.2684 15.1998C18.2984 15.1698 19.3699 15.1548 20.6494 15.1664L22.9759 15.1876L26.1233 24.0708ZM19.5471 21.8942C18.9865 23.755 18.5292 25.3225 18.531 25.3776C18.5335 25.4551 19.0155 25.4777 20.6656 25.4777C22.6563 25.4777 22.7946 25.4684 22.7598 25.3375C22.7394 25.2605 22.2601 23.693 21.6948 21.8541C21.1295 20.0153 20.6443 18.5109 20.6167 18.5109C20.589 18.5109 20.1077 20.0333 19.5471 21.8942ZM34.8506 26.3385L34.8301 33.1251L32.994 33.1467C31.5785 33.1633 31.143 33.145 31.0933 33.0666C31.0578 33.0107 31.0283 29.9711 31.0276 26.3118C31.0269 22.6526 31.0504 19.6346 31.0798 19.6053C31.1091 19.5759 31.9742 19.5519 33.0021 19.5519H34.871L34.8506 26.3385Z" fill="white"/>
</g>
</svg>
