<svg width="72" height="89" viewBox="0 0 72 89" fill="none" xmlns="http://www.w3.org/2000/svg">
<path d="M40.704 40.2929C39.9003 39.6438 38.8822 39.3201 37.8512 39.3859H30.8099V46.5921H37.9667C38.9658 46.6215 39.9406 46.2809 40.704 45.6357C41.0659 45.2872 41.35 44.8661 41.5376 44.4C41.7251 43.9339 41.812 43.4334 41.7924 42.9313C41.81 42.4393 41.7219 41.9493 41.5342 41.4942C41.3464 41.039 41.0634 40.6294 40.704 40.2929ZM39.7146 35.6427C40.0471 35.3464 40.3087 34.9792 40.48 34.5681C40.6512 34.1571 40.7278 33.7127 40.704 33.2681C40.7526 32.8192 40.6992 32.3651 40.5479 31.9397C40.3966 31.5143 40.1512 31.1285 39.8301 30.811C39.1245 30.3094 38.2707 30.0597 37.406 30.102H30.8099V36.4672H37.406C38.2705 36.4841 39.1126 36.1917 39.7806 35.6427H39.7146ZM48.9491 18.196H22.5648C20.8154 18.196 19.1377 18.891 17.9007 20.128C16.6637 21.365 15.9688 23.0427 15.9688 24.7921V51.1764C15.9688 52.9258 16.6637 54.6035 17.9007 55.8405C19.1377 57.0776 20.8154 57.7725 22.5648 57.7725H48.9491C50.6985 57.7725 52.3763 57.0776 53.6133 55.8405C54.8503 54.6035 55.5452 52.9258 55.5452 51.1764V24.7921C55.5452 23.0427 54.8503 21.365 53.6133 20.128C52.3763 18.891 50.6985 18.196 48.9491 18.196ZM45.3378 45.982C45.0192 46.7843 44.4961 47.4892 43.8207 48.0268C43.0357 48.6516 42.1327 49.1115 41.1658 49.379C39.919 49.7463 38.623 49.9187 37.3236 49.8902H26.7204V26.8039H37.9337C39.6942 26.7162 41.4341 27.215 42.8808 28.2221C43.5206 28.7324 44.0263 29.3911 44.3539 30.1411C44.6815 30.8912 44.8211 31.7098 44.7606 32.526C44.8217 33.5754 44.5567 34.6179 44.0021 35.5107C43.3889 36.3731 42.5422 37.0425 41.5615 37.4401C42.2167 37.5415 42.8454 37.7715 43.4114 38.1167C43.9774 38.462 44.4696 38.9157 44.8596 39.4519C45.6249 40.6144 46.0109 41.9856 45.9644 43.3766C45.9398 44.2793 45.7264 45.1668 45.3378 45.982Z" fill="#C3C7BE"/>
<path d="M1.376 71.672H5.28C5.70667 71.672 6.13333 71.72 6.56 71.816C6.98667 71.912 7.36533 72.072 7.696 72.296C8.03733 72.52 8.30933 72.8133 8.512 73.176C8.72533 73.5387 8.832 73.992 8.832 74.536C8.832 75.1653 8.65067 75.6933 8.288 76.12C7.92533 76.5467 7.44533 76.84 6.848 77V77.032C7.21067 77.0747 7.54667 77.1707 7.856 77.32C8.16533 77.4587 8.432 77.6453 8.656 77.88C8.88 78.1147 9.05067 78.392 9.168 78.712C9.296 79.032 9.36 79.3893 9.36 79.784C9.36 80.328 9.248 80.8027 9.024 81.208C8.8 81.6133 8.496 81.9493 8.112 82.216C7.728 82.472 7.27467 82.6693 6.752 82.808C6.24 82.936 5.69067 83 5.104 83H1.376V71.672ZM2.96 76.456H5.024C5.32267 76.456 5.60533 76.424 5.872 76.36C6.14933 76.2853 6.38933 76.1787 6.592 76.04C6.79467 75.8907 6.95467 75.7093 7.072 75.496C7.18933 75.272 7.248 75.0053 7.248 74.696C7.248 74.088 7.024 73.656 6.576 73.4C6.128 73.1333 5.52533 73 4.768 73H2.96V76.456ZM2.96 81.656H4.944C5.27467 81.656 5.60533 81.6293 5.936 81.576C6.27733 81.512 6.58133 81.4053 6.848 81.256C7.12533 81.1067 7.344 80.9093 7.504 80.664C7.67467 80.408 7.76 80.088 7.76 79.704C7.76 79.032 7.53067 78.5467 7.072 78.248C6.61333 77.9493 5.952 77.8 5.088 77.8H2.96V81.656ZM19.2416 79.192C19.2416 79.7787 19.135 80.3173 18.9216 80.808C18.719 81.2987 18.431 81.7253 18.0576 82.088C17.695 82.44 17.263 82.7173 16.7616 82.92C16.2603 83.112 15.7216 83.208 15.1456 83.208C14.5696 83.208 14.031 83.112 13.5296 82.92C13.0283 82.7173 12.5963 82.44 12.2336 82.088C11.871 81.7253 11.583 81.2987 11.3696 80.808C11.167 80.3173 11.0656 79.7787 11.0656 79.192C11.0656 78.6053 11.167 78.072 11.3696 77.592C11.583 77.1013 11.871 76.68 12.2336 76.328C12.5963 75.976 13.0283 75.704 13.5296 75.512C14.031 75.3093 14.5696 75.208 15.1456 75.208C15.7216 75.208 16.2603 75.3093 16.7616 75.512C17.263 75.704 17.695 75.976 18.0576 76.328C18.431 76.68 18.719 77.1013 18.9216 77.592C19.135 78.072 19.2416 78.6053 19.2416 79.192ZM17.6736 79.192C17.6736 78.8293 17.615 78.4827 17.4976 78.152C17.391 77.8213 17.231 77.5333 17.0176 77.288C16.8043 77.032 16.5376 76.8293 16.2176 76.68C15.9083 76.5307 15.551 76.456 15.1456 76.456C14.7403 76.456 14.3776 76.5307 14.0576 76.68C13.7483 76.8293 13.487 77.032 13.2736 77.288C13.0603 77.5333 12.895 77.8213 12.7776 78.152C12.671 78.4827 12.6176 78.8293 12.6176 79.192C12.6176 79.5547 12.671 79.9013 12.7776 80.232C12.895 80.5627 13.0603 80.856 13.2736 81.112C13.487 81.368 13.7483 81.5707 14.0576 81.72C14.3776 81.8693 14.7403 81.944 15.1456 81.944C15.551 81.944 15.9083 81.8693 16.2176 81.72C16.5376 81.5707 16.8043 81.368 17.0176 81.112C17.231 80.856 17.391 80.5627 17.4976 80.232C17.615 79.9013 17.6736 79.5547 17.6736 79.192ZM29.0073 79.192C29.0073 79.7787 28.9006 80.3173 28.6873 80.808C28.4846 81.2987 28.1966 81.7253 27.8233 82.088C27.4606 82.44 27.0286 82.7173 26.5273 82.92C26.0259 83.112 25.4873 83.208 24.9113 83.208C24.3353 83.208 23.7966 83.112 23.2953 82.92C22.7939 82.7173 22.3619 82.44 21.9993 82.088C21.6366 81.7253 21.3486 81.2987 21.1353 80.808C20.9326 80.3173 20.8313 79.7787 20.8313 79.192C20.8313 78.6053 20.9326 78.072 21.1353 77.592C21.3486 77.1013 21.6366 76.68 21.9993 76.328C22.3619 75.976 22.7939 75.704 23.2953 75.512C23.7966 75.3093 24.3353 75.208 24.9113 75.208C25.4873 75.208 26.0259 75.3093 26.5273 75.512C27.0286 75.704 27.4606 75.976 27.8233 76.328C28.1966 76.68 28.4846 77.1013 28.6873 77.592C28.9006 78.072 29.0073 78.6053 29.0073 79.192ZM27.4393 79.192C27.4393 78.8293 27.3806 78.4827 27.2633 78.152C27.1566 77.8213 26.9966 77.5333 26.7833 77.288C26.5699 77.032 26.3033 76.8293 25.9833 76.68C25.6739 76.5307 25.3166 76.456 24.9113 76.456C24.5059 76.456 24.1433 76.5307 23.8233 76.68C23.5139 76.8293 23.2526 77.032 23.0393 77.288C22.8259 77.5333 22.6606 77.8213 22.5433 78.152C22.4366 78.4827 22.3832 78.8293 22.3832 79.192C22.3832 79.5547 22.4366 79.9013 22.5433 80.232C22.6606 80.5627 22.8259 80.856 23.0393 81.112C23.2526 81.368 23.5139 81.5707 23.8233 81.72C24.1433 81.8693 24.5059 81.944 24.9113 81.944C25.3166 81.944 25.6739 81.8693 25.9833 81.72C26.3033 81.5707 26.5699 81.368 26.7833 81.112C26.9966 80.856 27.1566 80.5627 27.2633 80.232C27.3806 79.9013 27.4393 79.5547 27.4393 79.192ZM34.8049 76.648H32.7889V80.6C32.7889 81.0587 32.8742 81.3893 33.0449 81.592C33.2155 81.784 33.4875 81.88 33.8609 81.88C33.9995 81.88 34.1489 81.864 34.3089 81.832C34.4689 81.8 34.6129 81.752 34.7409 81.688L34.7889 82.92C34.6075 82.984 34.4049 83.032 34.1809 83.064C33.9675 83.1067 33.7435 83.128 33.5089 83.128C32.7942 83.128 32.2449 82.9307 31.8609 82.536C31.4875 82.1413 31.3009 81.5493 31.3009 80.76V76.648H29.8449V75.416H31.3009V73.24H32.7889V75.416H34.8049V76.648ZM40.4545 77.336C40.2838 77.0587 40.0438 76.8347 39.7345 76.664C39.4252 76.4827 39.0785 76.392 38.6945 76.392C38.5238 76.392 38.3532 76.4133 38.1825 76.456C38.0118 76.488 37.8572 76.5467 37.7185 76.632C37.5905 76.7067 37.4838 76.808 37.3985 76.936C37.3238 77.0533 37.2865 77.2027 37.2865 77.384C37.2865 77.704 37.4305 77.944 37.7185 78.104C38.0065 78.2533 38.4385 78.392 39.0145 78.52C39.3772 78.6053 39.7132 78.7067 40.0225 78.824C40.3318 78.9413 40.5985 79.0907 40.8225 79.272C41.0572 79.4427 41.2385 79.6507 41.3665 79.896C41.4945 80.1413 41.5585 80.4293 41.5585 80.76C41.5585 81.208 41.4732 81.5867 41.3025 81.896C41.1318 82.2053 40.9025 82.4613 40.6145 82.664C40.3372 82.856 40.0172 82.9947 39.6545 83.08C39.2918 83.1653 38.9185 83.208 38.5345 83.208C37.9585 83.208 37.3932 83.096 36.8385 82.872C36.2945 82.648 35.8412 82.3067 35.4785 81.848L36.5505 80.936C36.7532 81.2347 37.0305 81.4853 37.3825 81.688C37.7452 81.8907 38.1398 81.992 38.5665 81.992C38.7585 81.992 38.9398 81.976 39.1105 81.944C39.2918 81.9013 39.4518 81.8373 39.5905 81.752C39.7398 81.6667 39.8572 81.5547 39.9425 81.416C40.0278 81.2773 40.0705 81.1013 40.0705 80.888C40.0705 80.536 39.8998 80.2747 39.5585 80.104C39.2278 79.9333 38.7372 79.7733 38.0865 79.624C37.8305 79.56 37.5692 79.4853 37.3025 79.4C37.0465 79.304 36.8118 79.176 36.5985 79.016C36.3852 78.856 36.2092 78.6587 36.0705 78.424C35.9425 78.1787 35.8785 77.88 35.8785 77.528C35.8785 77.1227 35.9585 76.776 36.1185 76.488C36.2892 76.1893 36.5078 75.9493 36.7745 75.768C37.0412 75.576 37.3452 75.4373 37.6865 75.352C38.0278 75.256 38.3798 75.208 38.7425 75.208C39.2865 75.208 39.8092 75.3147 40.3105 75.528C40.8225 75.7413 41.2172 76.0507 41.4945 76.456L40.4545 77.336ZM47.1799 76.648H45.1639V80.6C45.1639 81.0587 45.2492 81.3893 45.4199 81.592C45.5905 81.784 45.8625 81.88 46.2359 81.88C46.3745 81.88 46.5239 81.864 46.6839 81.832C46.8439 81.8 46.9879 81.752 47.1159 81.688L47.1639 82.92C46.9825 82.984 46.7799 83.032 46.5559 83.064C46.3425 83.1067 46.1185 83.128 45.8839 83.128C45.1692 83.128 44.6199 82.9307 44.2359 82.536C43.8625 82.1413 43.6759 81.5493 43.6759 80.76V76.648H42.2199V75.416H43.6759V73.24H45.1639V75.416H47.1799V76.648ZM48.7335 77.048C48.7335 76.8453 48.7282 76.584 48.7175 76.264C48.7068 75.944 48.6908 75.6613 48.6695 75.416H50.0935C50.1148 75.608 50.1308 75.832 50.1415 76.088C50.1522 76.3333 50.1575 76.536 50.1575 76.696H50.2055C50.4188 76.248 50.7282 75.8907 51.1335 75.624C51.5495 75.3467 52.0135 75.208 52.5255 75.208C52.7602 75.208 52.9575 75.2293 53.1175 75.272L53.0535 76.664C52.8402 76.6107 52.6108 76.584 52.3655 76.584C52.0028 76.584 51.6882 76.6533 51.4215 76.792C51.1548 76.92 50.9308 77.096 50.7495 77.32C50.5788 77.544 50.4508 77.8053 50.3655 78.104C50.2802 78.392 50.2375 78.696 50.2375 79.016V83H48.7335V77.048ZM59.0473 78.088C59.0473 77.5227 58.8766 77.1067 58.5353 76.84C58.1939 76.5627 57.7406 76.424 57.1753 76.424C56.7486 76.424 56.3433 76.5093 55.9593 76.68C55.5859 76.84 55.2713 77.048 55.0153 77.304L54.2153 76.344C54.5886 75.992 55.0419 75.7147 55.5753 75.512C56.1193 75.3093 56.7006 75.208 57.3193 75.208C57.8633 75.208 58.3326 75.288 58.7273 75.448C59.1326 75.5973 59.4633 75.8053 59.7193 76.072C59.9753 76.3387 60.1673 76.6533 60.2953 77.016C60.4233 77.3787 60.4873 77.768 60.4873 78.184V81.496C60.4873 81.752 60.4926 82.024 60.5033 82.312C60.5246 82.5893 60.5566 82.8187 60.5993 83H59.2393C59.1539 82.6373 59.1113 82.2747 59.1113 81.912H59.0633C58.7859 82.3173 58.4339 82.632 58.0073 82.856C57.5913 83.08 57.0953 83.192 56.5193 83.192C56.2206 83.192 55.9059 83.1493 55.5753 83.064C55.2553 82.9893 54.9619 82.8613 54.6953 82.68C54.4286 82.4987 54.2046 82.2587 54.0233 81.96C53.8526 81.6613 53.7673 81.2933 53.7673 80.856C53.7673 80.28 53.9219 79.8267 54.2313 79.496C54.5406 79.1547 54.9459 78.8987 55.4473 78.728C55.9486 78.5467 56.5139 78.4293 57.1432 78.376C57.7726 78.3227 58.4073 78.296 59.0473 78.296V78.088ZM58.6793 79.384C58.3059 79.384 57.9166 79.4 57.5113 79.432C57.1166 79.464 56.7539 79.528 56.4233 79.624C56.1033 79.72 55.8366 79.864 55.6233 80.056C55.4099 80.248 55.3033 80.504 55.3033 80.824C55.3033 81.048 55.3459 81.2347 55.4313 81.384C55.5273 81.5333 55.6499 81.656 55.7993 81.752C55.9486 81.848 56.1139 81.9173 56.2953 81.96C56.4766 81.992 56.6633 82.008 56.8553 82.008C57.5593 82.008 58.0979 81.8 58.4713 81.384C58.8553 80.9573 59.0473 80.424 59.0473 79.784V79.384H58.6793ZM64.5031 86.84H62.9991V75.416H64.4711V76.6H64.5191C64.7645 76.1947 65.1218 75.864 65.5911 75.608C66.0711 75.3413 66.6258 75.208 67.2551 75.208C67.8205 75.208 68.3325 75.3093 68.7911 75.512C69.2605 75.7147 69.6605 75.9973 69.9911 76.36C70.3325 76.7227 70.5938 77.1493 70.7751 77.64C70.9565 78.12 71.0471 78.6373 71.0471 79.192C71.0471 79.7467 70.9565 80.2693 70.7751 80.76C70.5938 81.2507 70.3378 81.6773 70.0071 82.04C69.6765 82.4027 69.2765 82.6907 68.8071 82.904C68.3378 83.1067 67.8098 83.208 67.2231 83.208C66.6791 83.208 66.1671 83.0907 65.6871 82.856C65.2071 82.6213 64.8285 82.2907 64.5511 81.864H64.5031V86.84ZM69.4951 79.192C69.4951 78.84 69.4418 78.4987 69.3351 78.168C69.2285 77.8373 69.0685 77.544 68.8551 77.288C68.6418 77.032 68.3751 76.8293 68.0551 76.68C67.7458 76.5307 67.3831 76.456 66.9671 76.456C66.5831 76.456 66.2311 76.5307 65.9111 76.68C65.6018 76.8293 65.3351 77.032 65.1111 77.288C64.8871 77.544 64.7111 77.8373 64.5831 78.168C64.4658 78.4987 64.4071 78.8453 64.4071 79.208C64.4071 79.5707 64.4658 79.9173 64.5831 80.248C64.7111 80.5787 64.8871 80.872 65.1111 81.128C65.3351 81.3733 65.6018 81.5707 65.9111 81.72C66.2311 81.8693 66.5831 81.944 66.9671 81.944C67.3831 81.944 67.7458 81.8693 68.0551 81.72C68.3751 81.56 68.6418 81.352 68.8551 81.096C69.0685 80.84 69.2285 80.5467 69.3351 80.216C69.4418 79.8853 69.4951 79.544 69.4951 79.192Z" fill="#C3C7BE"/>
</svg>
