<svg width="24" height="25" viewBox="0 0 24 25" fill="none" xmlns="http://www.w3.org/2000/svg">
<path d="M11.7502 2.72217C6.43724 2.72217 2.12524 7.21995 2.12524 12.7619C2.12524 18.3038 6.43724 22.8015 11.7502 22.8015C17.0632 22.8015 21.3752 18.3038 21.3752 12.7619C21.3752 7.21995 17.0632 2.72217 11.7502 2.72217ZM11.7502 20.7936C7.50562 20.7936 4.05024 17.1894 4.05024 12.7619C4.05024 8.33435 7.50562 4.7301 11.7502 4.7301C15.9949 4.7301 19.4502 8.33435 19.4502 12.7619C19.4502 17.1894 15.9949 20.7936 11.7502 20.7936ZM16.1681 8.32431L9.82524 14.9405L7.33237 12.3502L5.97524 13.7658L9.82524 17.7817L17.5252 9.74995L16.1681 8.32431Z" fill="#B47DE3"/>
</svg>
