<svg width="58" height="89" viewBox="0 0 58 89" fill="none" xmlns="http://www.w3.org/2000/svg">
<path d="M16.7817 46.8307C16.7817 44.847 17.5486 42.9445 18.9138 41.5418C20.2789 40.1391 22.1303 39.351 24.0609 39.351H31.34V46.8307C31.34 48.8144 30.5731 50.7169 29.208 52.1196C27.8429 53.5223 25.9914 54.3104 24.0609 54.3104C22.1303 54.3104 20.2789 53.5223 18.9138 52.1196C17.5486 50.7169 16.7817 48.8144 16.7817 46.8307ZM24.0609 39.351H31.34V24.3917H24.0609C22.1303 24.3917 20.2789 25.1797 18.9138 26.5824C17.5486 27.9852 16.7817 29.8876 16.7817 31.8714C16.7817 33.8551 17.5486 35.7576 18.9138 37.1603C20.2789 38.563 22.1303 39.351 24.0609 39.351ZM24.0609 24.3917H31.34V9.43237H24.0609C22.1303 9.43237 20.2789 10.2204 18.9138 11.6231C17.5486 13.0258 16.7817 14.9283 16.7817 16.912C16.7817 18.8958 17.5486 20.7983 18.9138 22.201C20.2789 23.6037 22.1303 24.3917 24.0609 24.3917ZM31.34 24.3917H38.6192C40.5497 24.3917 42.4012 23.6037 43.7663 22.201C45.1314 20.7983 45.8983 18.8958 45.8983 16.912C45.8983 14.9283 45.1314 13.0258 43.7663 11.6231C42.4012 10.2204 40.5497 9.43237 38.6192 9.43237H31.34V24.3917ZM38.6192 24.3917C37.1795 24.3917 35.7722 24.8304 34.5751 25.6523C33.3781 26.4741 32.4451 27.6423 31.8941 29.009C31.3432 30.3758 31.199 31.8797 31.4799 33.3306C31.7608 34.7815 32.454 36.1142 33.4721 37.1603C34.4901 38.2063 35.7871 38.9187 37.1991 39.2073C38.6111 39.4959 40.0747 39.3478 41.4048 38.7817C42.7349 38.2156 43.8717 37.2569 44.6716 36.0268C45.4714 34.7968 45.8983 33.3507 45.8983 31.8714C45.8983 29.8876 45.1314 27.9852 43.7663 26.5824C42.4012 25.1797 40.5497 24.3917 38.6192 24.3917Z" fill="#C3C7BE"/>
<path d="M9.96 83H8.376V71.672H15.448V73.064H9.96V76.584H15.096V77.944H9.96V83ZM18.6285 83H17.1245V75.416H18.6285V83ZM18.8845 72.68C18.8845 72.9573 18.7832 73.1867 18.5805 73.368C18.3885 73.5493 18.1538 73.64 17.8765 73.64C17.5992 73.64 17.3645 73.5493 17.1725 73.368C16.9805 73.176 16.8845 72.9467 16.8845 72.68C16.8845 72.4027 16.9805 72.1733 17.1725 71.992C17.3645 71.8 17.5992 71.704 17.8765 71.704C18.1538 71.704 18.3885 71.8 18.5805 71.992C18.7832 72.1733 18.8845 72.4027 18.8845 72.68ZM21.8411 84.296C22.1718 84.6693 22.5825 84.968 23.0731 85.192C23.5745 85.416 24.0865 85.528 24.6091 85.528C25.1105 85.528 25.5318 85.4533 25.8731 85.304C26.2145 85.1653 26.4865 84.968 26.6891 84.712C26.9025 84.4667 27.0518 84.1733 27.1371 83.832C27.2331 83.4907 27.2811 83.1227 27.2811 82.728V81.752H27.2491C26.9718 82.1787 26.5931 82.504 26.1131 82.728C25.6331 82.952 25.1211 83.064 24.5771 83.064C24.0011 83.064 23.4731 82.9627 22.9931 82.76C22.5238 82.5573 22.1238 82.28 21.7931 81.928C21.4625 81.576 21.2065 81.1653 21.0251 80.696C20.8438 80.216 20.7531 79.704 20.7531 79.16C20.7531 78.616 20.8438 78.104 21.0251 77.624C21.2065 77.144 21.4625 76.728 21.7931 76.376C22.1238 76.0133 22.5238 75.7307 22.9931 75.528C23.4625 75.3147 23.9851 75.208 24.5611 75.208C25.1051 75.208 25.6225 75.3253 26.1131 75.56C26.6145 75.7947 27.0091 76.152 27.2971 76.632H27.3291V75.416H28.7851V82.616C28.7851 83.1707 28.7158 83.6987 28.5771 84.2C28.4385 84.712 28.2038 85.16 27.8731 85.544C27.5425 85.9387 27.1105 86.2533 26.5771 86.488C26.0438 86.7227 25.3825 86.84 24.5931 86.84C23.9318 86.84 23.2651 86.7173 22.5931 86.472C21.9318 86.2373 21.3611 85.9013 20.8811 85.464L21.8411 84.296ZM22.3051 79.128C22.3051 79.48 22.3585 79.816 22.4651 80.136C22.5825 80.456 22.7478 80.7387 22.9611 80.984C23.1851 81.2293 23.4518 81.4267 23.7611 81.576C24.0705 81.7253 24.4225 81.8 24.8171 81.8C25.2011 81.8 25.5531 81.7307 25.8731 81.592C26.1931 81.4533 26.4651 81.2667 26.6891 81.032C26.9131 80.7867 27.0838 80.504 27.2011 80.184C27.3291 79.8533 27.3931 79.5013 27.3931 79.128C27.3931 78.7653 27.3291 78.424 27.2011 78.104C27.0838 77.784 26.9078 77.5013 26.6731 77.256C26.4491 77.0107 26.1771 76.8187 25.8571 76.68C25.5478 76.5307 25.2011 76.456 24.8171 76.456C24.4225 76.456 24.0705 76.5307 23.7611 76.68C23.4518 76.8187 23.1851 77.0107 22.9611 77.256C22.7478 77.4907 22.5825 77.7733 22.4651 78.104C22.3585 78.424 22.3051 78.7653 22.3051 79.128ZM32.8305 76.664C33.0225 76.2587 33.3265 75.9173 33.7425 75.64C34.1692 75.352 34.6705 75.208 35.2465 75.208C35.7585 75.208 36.2172 75.3253 36.6225 75.56C37.0385 75.7947 37.3638 76.184 37.5985 76.728C37.8545 76.2373 38.2118 75.864 38.6705 75.608C39.1292 75.3413 39.6305 75.208 40.1745 75.208C40.6652 75.208 41.0865 75.2933 41.4385 75.464C41.7905 75.624 42.0838 75.8427 42.3185 76.12C42.5532 76.3973 42.7238 76.7227 42.8305 77.096C42.9478 77.4693 43.0065 77.8693 43.0065 78.296V83H41.5025V78.792C41.5025 78.4827 41.4758 78.1893 41.4225 77.912C41.3692 77.6347 41.2785 77.3893 41.1505 77.176C41.0225 76.9627 40.8518 76.792 40.6385 76.664C40.4252 76.536 40.1532 76.472 39.8225 76.472C39.4812 76.472 39.1878 76.5467 38.9425 76.696C38.6972 76.8347 38.4945 77.0213 38.3345 77.256C38.1852 77.48 38.0732 77.736 37.9985 78.024C37.9345 78.312 37.9025 78.6053 37.9025 78.904V83H36.3985V78.488C36.3985 78.1893 36.3718 77.9173 36.3185 77.672C36.2652 77.4267 36.1745 77.2187 36.0465 77.048C35.9185 76.8667 35.7532 76.728 35.5505 76.632C35.3478 76.5253 35.0972 76.472 34.7985 76.472C34.2438 76.472 33.7798 76.7013 33.4065 77.16C33.0438 77.608 32.8625 78.2107 32.8625 78.968V83H31.3585V77.048C31.3585 76.8453 31.3532 76.584 31.3425 76.264C31.3318 75.944 31.3158 75.6613 31.2945 75.416H32.7185C32.7398 75.608 32.7558 75.8267 32.7665 76.072C32.7772 76.3067 32.7825 76.504 32.7825 76.664H32.8305ZM50.266 78.088C50.266 77.5227 50.0953 77.1067 49.754 76.84C49.4127 76.5627 48.9593 76.424 48.394 76.424C47.9673 76.424 47.562 76.5093 47.178 76.68C46.8047 76.84 46.49 77.048 46.234 77.304L45.434 76.344C45.8073 75.992 46.2607 75.7147 46.794 75.512C47.338 75.3093 47.9193 75.208 48.538 75.208C49.082 75.208 49.5513 75.288 49.946 75.448C50.3513 75.5973 50.682 75.8053 50.938 76.072C51.194 76.3387 51.386 76.6533 51.514 77.016C51.642 77.3787 51.706 77.768 51.706 78.184V81.496C51.706 81.752 51.7113 82.024 51.722 82.312C51.7433 82.5893 51.7753 82.8187 51.818 83H50.458C50.3727 82.6373 50.33 82.2747 50.33 81.912H50.282C50.0047 82.3173 49.6527 82.632 49.226 82.856C48.81 83.08 48.314 83.192 47.738 83.192C47.4393 83.192 47.1247 83.1493 46.794 83.064C46.474 82.9893 46.1807 82.8613 45.914 82.68C45.6473 82.4987 45.4233 82.2587 45.242 81.96C45.0713 81.6613 44.986 81.2933 44.986 80.856C44.986 80.28 45.1407 79.8267 45.45 79.496C45.7593 79.1547 46.1647 78.8987 46.666 78.728C47.1673 78.5467 47.7327 78.4293 48.362 78.376C48.9913 78.3227 49.626 78.296 50.266 78.296V78.088ZM49.898 79.384C49.5247 79.384 49.1353 79.4 48.73 79.432C48.3353 79.464 47.9727 79.528 47.642 79.624C47.322 79.72 47.0553 79.864 46.842 80.056C46.6287 80.248 46.522 80.504 46.522 80.824C46.522 81.048 46.5647 81.2347 46.65 81.384C46.746 81.5333 46.8687 81.656 47.018 81.752C47.1673 81.848 47.3327 81.9173 47.514 81.96C47.6953 81.992 47.882 82.008 48.074 82.008C48.778 82.008 49.3167 81.8 49.69 81.384C50.074 80.9573 50.266 80.424 50.266 79.784V79.384H49.898Z" fill="#C3C7BE"/>
</svg>
