<svg width="49" height="49" viewBox="0 0 49 49" fill="none" xmlns="http://www.w3.org/2000/svg">
<rect width="49" height="49" rx="10" fill="#F0D5CE"/>
<path fill-rule="evenodd" clip-rule="evenodd" d="M18.1546 12.6047V13.2223L18.7224 13.2223L19.2902 13.2224V12.6147V12.007H19.9277H20.5652V13.8797V15.7524H19.9277H19.2902L19.2833 15.1348L19.2763 14.5172L18.7155 14.5062L18.1546 14.4951V15.1337V15.7723H17.5171H16.8796V13.8797V11.9871H17.5171H18.1546V12.6047ZM24.5695 12.6246V13.2621H24.0117H23.4539V14.5182V15.7743L22.8263 15.7633L22.1988 15.7524V14.5072V13.2621L21.6509 13.2621H21.1031V12.6246V11.9871H22.8363H24.5695V12.6246ZM26.8311 12.6465L27.2307 13.3059L27.5415 12.7959C27.7125 12.5154 27.8939 12.2187 27.9446 12.1365L28.0369 11.9871H28.6938H29.3507V13.8797V15.7723H28.7132H28.0757L28.0749 14.8658L28.0742 13.9594L27.6723 14.577C27.4512 14.9166 27.2574 15.2085 27.2415 15.2256C27.2257 15.2428 27.0259 14.9656 26.7976 14.6098L26.3824 13.9629L26.3717 14.8676L26.3609 15.7723H25.7441H25.1273V13.8797V11.9871H25.7794H26.4316L26.8311 12.6465ZM31.2234 13.2422V14.4973H32.1199H33.0164V15.1348V15.7723H31.4824H29.9484V13.8797V11.9871H30.5859H31.2234V13.2422ZM34.793 17.6748C34.7799 17.7789 34.3731 22.3106 33.8891 27.7453C33.4052 33.18 33.0063 37.6285 33.0028 37.6308C32.9993 37.6332 31.1778 38.1388 28.955 38.7544L24.9135 39.8737L20.8867 38.7557C18.6718 38.1408 16.8563 37.6348 16.8521 37.6312C16.8479 37.6276 16.4491 33.1785 15.9658 27.7443C15.4826 22.3102 15.0764 17.7789 15.0633 17.6748L15.0393 17.4856H24.9281H34.8168L34.793 17.6748ZM18.7125 21.6404C18.7125 21.6903 18.8649 23.3781 19.0511 25.391C19.2374 27.4039 19.3898 29.0574 19.3898 29.0655C19.3898 29.0735 21.3172 29.0801 23.673 29.0801C27.0736 29.0801 27.956 29.0904 27.955 29.1299C27.9543 29.1573 27.8945 29.8656 27.8219 30.704C27.7493 31.5424 27.6826 32.2342 27.6737 32.2413C27.6647 32.2484 27.0426 32.429 26.2911 32.6426L24.9249 33.031L23.5618 32.6455C22.8121 32.4335 22.1872 32.2483 22.173 32.234C22.1588 32.2196 22.1047 31.7865 22.0527 31.2715L21.9583 30.3352L20.7176 30.3246L19.4769 30.3141L19.4951 30.4641C19.5051 30.5466 19.5915 31.4178 19.687 32.4001C19.7826 33.3825 19.8669 34.192 19.8743 34.1992C19.8818 34.2063 21.0259 34.518 22.4169 34.892L24.9458 35.5718L27.4465 34.8897L29.9471 34.2076L29.967 34.0843C29.9778 34.0164 30.113 32.4011 30.2671 30.4945C30.4214 28.588 30.5585 26.9251 30.5719 26.799L30.5962 26.5699H26.1331H21.6699L21.6461 26.4006C21.633 26.3075 21.5773 25.8009 21.5222 25.275C21.4672 24.7491 21.4135 24.2695 21.4031 24.2093L21.3841 24.0999L26.1341 24.0898L30.8842 24.0797L30.9714 22.984C31.0194 22.3814 31.0598 21.8121 31.0613 21.719L31.064 21.5496H24.8882H18.7125V21.6404Z" fill="white"/>
</svg>
