<svg width="49" height="49" viewBox="0 0 49 49" fill="none" xmlns="http://www.w3.org/2000/svg">
<rect width="49" height="49" rx="10" fill="#F0D5CE"/>
<path fill-rule="evenodd" clip-rule="evenodd" d="M29.7444 16.5698C29.4491 16.5978 28.9851 16.691 28.7132 16.7769C28.4412 16.8628 28.0501 17.0341 27.8438 17.1577C27.6376 17.2813 27.3177 17.5283 27.1331 17.7068C26.9484 17.8853 26.6879 18.1978 26.5542 18.4014C26.4206 18.6049 26.2374 18.9986 26.1471 19.2764C26.0087 19.7021 25.9829 19.894 25.9829 20.5C25.9828 20.9811 26.0194 21.3634 26.0934 21.6563C26.1542 21.8969 26.2957 22.2766 26.4079 22.5C26.5201 22.7234 26.7292 23.0532 26.8725 23.2328C27.0158 23.4123 27.3509 23.7233 27.617 23.9239C27.8831 24.1244 28.3806 24.4315 28.7224 24.6063C29.0642 24.7811 29.6251 25.0426 29.9688 25.1875C30.3126 25.3324 30.8749 25.5946 31.2185 25.7704C31.5736 25.9519 31.9562 26.2029 32.1052 26.3519C32.2718 26.5185 32.3938 26.7125 32.4401 26.8846C32.4802 27.0334 32.5007 27.3041 32.4856 27.4861C32.4661 27.7209 32.4046 27.8933 32.2734 28.0803C32.1436 28.2652 31.9616 28.4086 31.6626 28.5612C31.2742 28.7594 31.1801 28.7807 30.5952 28.8023C30.1193 28.8199 29.8596 28.7987 29.5889 28.72C29.3883 28.6617 29.0932 28.5477 28.9333 28.4666C28.7734 28.3856 28.4879 28.1779 28.2989 28.0052C28.1099 27.8325 27.85 27.5383 27.7213 27.3514L27.4873 27.0117L26.7906 27.4193C26.4074 27.6434 25.8688 27.9551 25.5938 28.1117C25.3188 28.2684 25.0837 28.4041 25.0714 28.4134C25.0591 28.4226 25.1561 28.6063 25.2868 28.8215C25.4176 29.0368 25.7202 29.4189 25.9593 29.6706C26.1985 29.9224 26.5272 30.2261 26.6898 30.3454C26.8524 30.4648 27.2067 30.6731 27.4771 30.8084C27.7476 30.9436 28.2134 31.1251 28.5123 31.2116C28.8112 31.2982 29.3597 31.4019 29.7311 31.442C30.1161 31.4836 30.6481 31.497 30.9688 31.4732C31.2782 31.4502 31.7422 31.3882 32.0001 31.3354C32.2579 31.2826 32.6738 31.1599 32.9244 31.0629C33.175 30.9658 33.5632 30.7671 33.7872 30.6212C34.0111 30.4753 34.3454 30.189 34.5299 29.9851C34.7144 29.7812 34.9643 29.4128 35.0852 29.1666C35.2061 28.9203 35.3527 28.4802 35.4111 28.1886C35.4909 27.7904 35.5078 27.495 35.4793 27.0011C35.4585 26.6396 35.3994 26.1903 35.348 26.0028C35.2966 25.8153 35.1647 25.4778 35.0549 25.2528C34.9126 24.9612 34.7011 24.6903 34.3182 24.3089C33.9434 23.9356 33.5932 23.6629 33.1584 23.4058C32.8158 23.2032 32.0032 22.8038 31.3526 22.5182C30.7019 22.2326 30.026 21.9165 29.8504 21.8158C29.6749 21.7151 29.4275 21.5254 29.3007 21.3944C29.1738 21.2634 29.0402 21.0771 29.0038 20.9803C28.9674 20.8836 28.9376 20.6506 28.9376 20.4627C28.9376 20.2748 28.9756 20.0305 29.0221 19.9199C29.0686 19.8093 29.2012 19.6266 29.3168 19.5141C29.4349 19.399 29.663 19.2689 29.8374 19.2172C30.0081 19.1665 30.249 19.125 30.3728 19.125C30.4966 19.125 30.7439 19.1629 30.9224 19.2092C31.1009 19.2555 31.3636 19.3742 31.5061 19.4729C31.6485 19.5716 31.8797 19.815 32.0199 20.0137C32.16 20.2124 32.2961 20.375 32.3224 20.375C32.3487 20.375 32.8564 20.0628 33.4507 19.6813C34.0451 19.2997 34.5529 18.9673 34.5793 18.9426C34.6057 18.9179 34.4901 18.7025 34.3226 18.4638C34.1549 18.2251 33.8424 17.8676 33.6282 17.6692C33.4139 17.4708 33.0935 17.2248 32.9162 17.1224C32.7389 17.0201 32.3747 16.8664 32.1068 16.7809C31.839 16.6954 31.4171 16.6101 31.1693 16.5914C30.9216 16.5728 30.6204 16.5488 30.5001 16.5381C30.3797 16.5275 30.0397 16.5418 29.7444 16.5698ZM20.4242 22.1719L20.4063 27.6563L20.242 28.0067C20.1507 28.2014 19.984 28.4284 19.867 28.5176C19.7511 28.6059 19.5212 28.7121 19.356 28.7536C19.1891 28.7956 18.8779 28.8148 18.6554 28.7969C18.3802 28.7748 18.168 28.7138 17.9766 28.6016C17.8234 28.5118 17.5952 28.3186 17.4695 28.1723C17.3438 28.026 17.1656 27.7727 17.0736 27.6094C16.9816 27.4462 16.8811 27.3126 16.8502 27.3126C16.8194 27.3125 16.2991 27.612 15.694 27.9781C15.0889 28.3442 14.5588 28.6755 14.516 28.7144C14.4549 28.7699 14.4884 28.8716 14.6722 29.1884C14.801 29.4101 15.1313 29.8198 15.4063 30.0988C15.7191 30.4161 16.0662 30.6946 16.3334 30.8426C16.5683 30.9726 16.9621 31.143 17.2084 31.2211C17.4547 31.2993 17.9329 31.3962 18.271 31.4364C18.6136 31.4773 19.0978 31.4914 19.3647 31.4684C19.6282 31.4458 20.079 31.373 20.3665 31.3068C20.6551 31.2404 21.107 31.0731 21.3757 30.9333C21.6807 30.7746 22.0034 30.5392 22.2401 30.3025C22.4765 30.0661 22.7122 29.7433 22.8704 29.4391C23.0094 29.1719 23.1854 28.7177 23.2614 28.4298C23.3983 27.9114 23.3999 27.8507 23.4217 22.2969L23.4437 16.6875H21.9429H20.4421L20.4242 22.1719Z" fill="white"/>
</svg>
