<svg width="58" height="89" viewBox="0 0 58 89" fill="none" xmlns="http://www.w3.org/2000/svg">
<path d="M54.852 27.8241C54.5101 27.4333 49.7394 21.466 48.9007 20.4565C48.0625 19.447 47.6472 19.6259 47.1342 19.6992C46.6133 19.7725 40.5806 20.7901 39.8807 20.9042C39.1804 21.0263 38.7408 21.3031 39.1724 21.9055C39.5549 22.4428 43.5195 28.0683 44.3989 29.3057L28.6295 33.0832L16.0761 12.1198C15.5794 11.3791 15.4736 11.1186 14.3339 11.1755C13.1943 11.2243 4.49132 11.9489 3.87246 12.006C3.25395 12.0548 2.56996 12.3316 3.1887 13.7969C3.80744 15.2625 13.6908 36.5596 13.9675 37.1781C14.2444 37.7968 14.9607 38.8065 16.6378 38.3994C18.3556 37.9842 24.3149 36.4291 27.5712 35.5744C29.2889 38.6922 32.798 45.0098 33.4491 45.9135C34.3122 47.1265 34.9146 46.9232 36.2416 46.5161C37.2836 46.1984 52.491 40.7274 53.1749 40.4509C53.8587 40.1658 54.282 39.9703 53.8181 39.2784C53.4762 38.7738 49.4627 33.4004 47.3624 30.5837C48.8034 30.2012 53.924 28.8416 54.4694 28.6868C55.1126 28.5242 55.2022 28.2148 54.852 27.8241ZM26.1792 33.6856C25.9919 33.7263 17.1588 35.8431 16.6866 35.9489C16.2143 36.0549 16.2143 36.0059 16.1574 35.8431C16.1005 35.6802 5.6554 14.1308 5.50881 13.8621C5.36245 13.5933 5.37049 13.3817 5.50881 13.3817C5.64735 13.3817 13.8536 12.6491 14.1385 12.6326C14.4314 12.6164 14.3989 12.6816 14.5048 12.8606C14.5048 12.8606 26.0813 32.8387 26.2768 33.1891C26.4885 33.5391 26.3664 33.6448 26.1792 33.6856ZM51.0909 38.3588C51.2292 38.5785 51.3758 38.7248 50.928 38.8798C50.4883 39.0427 35.9727 43.9355 35.696 44.0573C35.411 44.1794 35.1912 44.2202 34.8331 43.6912C34.4749 43.1619 29.7529 34.9965 29.7529 34.9965L45.1235 30.9991C45.5062 30.877 45.6283 30.7955 45.8724 31.1781C46.1085 31.569 50.9524 38.1389 51.0909 38.3588ZM52.076 27.4415C51.7339 27.5147 46.084 28.915 46.084 28.915L41.468 22.5811C41.338 22.394 41.2319 22.2148 41.5576 22.174C41.8832 22.1334 47.126 21.1809 47.3623 21.132C47.598 21.0749 47.8016 21.0099 48.0949 21.4088C48.388 21.8076 52.3771 26.8632 52.5317 27.0588C52.6783 27.246 52.4179 27.36 52.076 27.4415Z" fill="#C3C7BE"/>
<path d="M5.96 81.592H11.016V83H4.376V71.672H5.96V81.592ZM17.1879 78.088C17.1879 77.5227 17.0172 77.1067 16.6759 76.84C16.3345 76.5627 15.8812 76.424 15.3159 76.424C14.8892 76.424 14.4839 76.5093 14.0999 76.68C13.7265 76.84 13.4119 77.048 13.1559 77.304L12.3559 76.344C12.7292 75.992 13.1825 75.7147 13.7159 75.512C14.2599 75.3093 14.8412 75.208 15.4599 75.208C16.0039 75.208 16.4732 75.288 16.8679 75.448C17.2732 75.5973 17.6039 75.8053 17.8599 76.072C18.1159 76.3387 18.3079 76.6533 18.4359 77.016C18.5639 77.3787 18.6279 77.768 18.6279 78.184V81.496C18.6279 81.752 18.6332 82.024 18.6439 82.312C18.6652 82.5893 18.6972 82.8187 18.7399 83H17.3799C17.2945 82.6373 17.2519 82.2747 17.2519 81.912H17.2039C16.9265 82.3173 16.5745 82.632 16.1479 82.856C15.7319 83.08 15.2359 83.192 14.6599 83.192C14.3612 83.192 14.0465 83.1493 13.7159 83.064C13.3959 82.9893 13.1025 82.8613 12.8359 82.68C12.5692 82.4987 12.3452 82.2587 12.1639 81.96C11.9932 81.6613 11.9079 81.2933 11.9079 80.856C11.9079 80.28 12.0625 79.8267 12.3719 79.496C12.6812 79.1547 13.0865 78.8987 13.5879 78.728C14.0892 78.5467 14.6545 78.4293 15.2839 78.376C15.9132 78.3227 16.5479 78.296 17.1879 78.296V78.088ZM16.8199 79.384C16.4465 79.384 16.0572 79.4 15.6519 79.432C15.2572 79.464 14.8945 79.528 14.5639 79.624C14.2439 79.72 13.9772 79.864 13.7639 80.056C13.5505 80.248 13.4439 80.504 13.4439 80.824C13.4439 81.048 13.4865 81.2347 13.5719 81.384C13.6679 81.5333 13.7905 81.656 13.9399 81.752C14.0892 81.848 14.2545 81.9173 14.4359 81.96C14.6172 81.992 14.8039 82.008 14.9959 82.008C15.6999 82.008 16.2385 81.8 16.6119 81.384C16.9959 80.9573 17.1879 80.424 17.1879 79.784V79.384H16.8199ZM21.1398 77.048C21.1398 76.8453 21.1344 76.584 21.1238 76.264C21.1131 75.944 21.0971 75.6613 21.0758 75.416H22.4998C22.5211 75.608 22.5371 75.832 22.5478 76.088C22.5584 76.3333 22.5638 76.536 22.5638 76.696H22.6118C22.8251 76.248 23.1344 75.8907 23.5398 75.624C23.9558 75.3467 24.4198 75.208 24.9318 75.208C25.1664 75.208 25.3638 75.2293 25.5238 75.272L25.4598 76.664C25.2464 76.6107 25.0171 76.584 24.7718 76.584C24.4091 76.584 24.0944 76.6533 23.8278 76.792C23.5611 76.92 23.3371 77.096 23.1558 77.32C22.9851 77.544 22.8571 77.8053 22.7718 78.104C22.6864 78.392 22.6438 78.696 22.6438 79.016V83H21.1398V77.048ZM31.4535 78.088C31.4535 77.5227 31.2828 77.1067 30.9415 76.84C30.6002 76.5627 30.1468 76.424 29.5815 76.424C29.1548 76.424 28.7495 76.5093 28.3655 76.68C27.9922 76.84 27.6775 77.048 27.4215 77.304L26.6215 76.344C26.9948 75.992 27.4482 75.7147 27.9815 75.512C28.5255 75.3093 29.1068 75.208 29.7255 75.208C30.2695 75.208 30.7388 75.288 31.1335 75.448C31.5388 75.5973 31.8695 75.8053 32.1255 76.072C32.3815 76.3387 32.5735 76.6533 32.7015 77.016C32.8295 77.3787 32.8935 77.768 32.8935 78.184V81.496C32.8935 81.752 32.8988 82.024 32.9095 82.312C32.9308 82.5893 32.9628 82.8187 33.0055 83H31.6455C31.5602 82.6373 31.5175 82.2747 31.5175 81.912H31.4695C31.1922 82.3173 30.8402 82.632 30.4135 82.856C29.9975 83.08 29.5015 83.192 28.9255 83.192C28.6268 83.192 28.3122 83.1493 27.9815 83.064C27.6615 82.9893 27.3682 82.8613 27.1015 82.68C26.8348 82.4987 26.6108 82.2587 26.4295 81.96C26.2588 81.6613 26.1735 81.2933 26.1735 80.856C26.1735 80.28 26.3282 79.8267 26.6375 79.496C26.9468 79.1547 27.3522 78.8987 27.8535 78.728C28.3548 78.5467 28.9202 78.4293 29.5495 78.376C30.1788 78.3227 30.8135 78.296 31.4535 78.296V78.088ZM31.0855 79.384C30.7122 79.384 30.3228 79.4 29.9175 79.432C29.5228 79.464 29.1602 79.528 28.8295 79.624C28.5095 79.72 28.2428 79.864 28.0295 80.056C27.8162 80.248 27.7095 80.504 27.7095 80.824C27.7095 81.048 27.7522 81.2347 27.8375 81.384C27.9335 81.5333 28.0562 81.656 28.2055 81.752C28.3548 81.848 28.5202 81.9173 28.7015 81.96C28.8828 81.992 29.0695 82.008 29.2615 82.008C29.9655 82.008 30.5042 81.8 30.8775 81.384C31.2615 80.9573 31.4535 80.424 31.4535 79.784V79.384H31.0855ZM38.9734 83H37.3414L34.2534 75.416H35.9174L38.1414 81.384H38.1734L40.4134 75.416H42.0134L38.9734 83ZM49.0199 78.536C49.0092 78.2373 48.9559 77.96 48.8599 77.704C48.7745 77.4373 48.6412 77.208 48.4599 77.016C48.2892 76.824 48.0705 76.6747 47.8039 76.568C47.5479 76.4507 47.2439 76.392 46.8919 76.392C46.5719 76.392 46.2679 76.4507 45.9799 76.568C45.7025 76.6747 45.4572 76.824 45.2439 77.016C45.0412 77.208 44.8705 77.4373 44.7319 77.704C44.6039 77.96 44.5292 78.2373 44.5079 78.536H49.0199ZM50.5399 79.144C50.5399 79.2293 50.5399 79.3147 50.5399 79.4C50.5399 79.4853 50.5345 79.5707 50.5239 79.656H44.5079C44.5185 79.976 44.5879 80.28 44.7159 80.568C44.8545 80.8453 45.0359 81.0907 45.2599 81.304C45.4839 81.5067 45.7399 81.6667 46.0279 81.784C46.3265 81.9013 46.6412 81.96 46.9719 81.96C47.4839 81.96 47.9265 81.848 48.2999 81.624C48.6732 81.4 48.9665 81.128 49.1799 80.808L50.2359 81.656C49.8305 82.1893 49.3505 82.584 48.7959 82.84C48.2519 83.0853 47.6439 83.208 46.9719 83.208C46.3959 83.208 45.8625 83.112 45.3719 82.92C44.8812 82.728 44.4599 82.4613 44.1079 82.12C43.7559 81.768 43.4785 81.3467 43.2759 80.856C43.0732 80.3653 42.9719 79.8213 42.9719 79.224C42.9719 78.6373 43.0679 78.0987 43.2599 77.608C43.4625 77.1067 43.7399 76.68 44.0919 76.328C44.4439 75.976 44.8599 75.704 45.3399 75.512C45.8199 75.3093 46.3372 75.208 46.8919 75.208C47.4465 75.208 47.9479 75.2987 48.3959 75.48C48.8545 75.6613 49.2385 75.9227 49.5479 76.264C49.8679 76.6053 50.1132 77.0213 50.2839 77.512C50.4545 77.992 50.5399 78.536 50.5399 79.144ZM54.1758 83H52.6718V70.904H54.1758V83Z" fill="#C3C7BE"/>
</svg>
