<svg width="75" height="93" viewBox="0 0 75 93" fill="none" xmlns="http://www.w3.org/2000/svg">
<g clip-path="url(#clip0_2650_53142)">
<path d="M47.5189 23.0018C44.4667 9.56517 37.2674 5.14992 36.4941 3.46067C35.6434 2.26925 34.7227 0 34.7227 0C34.7178 0.0459167 34.713 0.0749167 34.7106 0.118417V0.149833H34.7082C34.7033 0.186083 34.7009 0.21025 34.6985 0.244083V0.280333H34.6937C34.6937 0.3045 34.6888 0.323833 34.6888 0.343167V0.406H34.6816C34.6792 0.425333 34.6792 0.4495 34.6743 0.466417V0.517167H34.6695C34.6695 0.534083 34.6695 0.553417 34.6647 0.567917V0.61625H34.6598C34.6598 0.640417 34.6574 0.669417 34.655 0.693583V0.698417C34.6477 0.7395 34.6405 0.780583 34.6332 0.81925V0.838583H34.6284C34.626 0.84825 34.6212 0.857917 34.6212 0.867583V0.908667H34.6139V0.961833H34.6018V1.00533H34.5897V1.05608H34.5801V1.102H34.5704V1.14308H34.5559V1.17692H34.5462V1.22042H34.5366V1.25425H34.5245V1.28567H34.5172V1.32192H34.5076C34.5052 1.32433 34.5052 1.32917 34.5052 1.33158V1.35575H34.4979C34.4955 1.36058 34.4955 1.36542 34.4955 1.37025V1.38475H34.4907C34.4882 1.392 34.4858 1.40408 34.4858 1.40892C34.4786 1.42583 34.4689 1.44275 34.4617 1.45967V1.4645C34.4568 1.46933 34.452 1.47658 34.4496 1.48142V1.50075H34.4399V1.52008H34.4278V1.53942H34.4206V1.56358H34.4061V1.59742H34.3964V1.60708H34.3867V1.62642H34.3771V1.653H34.3674V1.67233H34.3529V1.69892H34.3432V1.71825H34.3312V1.73758H34.3239V1.76175H34.3118V1.78108H34.3022V1.79558H34.2925V1.81492H34.278V1.83667H34.2683V1.85117H34.2562V1.8705H34.2466V1.89708H34.2345V1.90675H34.2272V1.92608H34.2127V1.93575H34.2031V1.95992H34.1934V1.96958H34.1837V1.98892H34.1717V2.00342H34.1644L34.1596 2.01308V2.02275H34.1547C34.1523 2.02758 34.1499 2.02758 34.1499 2.03242V2.03483H34.1475C34.1451 2.04208 34.1427 2.04692 34.1378 2.05175V2.059H34.1354C34.1233 2.0735 34.1161 2.088 34.1064 2.1025V2.10492C34.1016 2.10975 34.0895 2.11942 34.0847 2.12908V2.13392H34.0822C34.0798 2.13633 34.075 2.13875 34.075 2.14117V2.14842H34.0702L34.0629 2.15567V2.15808H34.0605C34.0605 2.1605 34.0557 2.16292 34.0532 2.16775V2.17742H34.046L34.0412 2.18225V2.18708H34.0363C34.0363 2.19192 34.0315 2.19192 34.0315 2.19433V2.20158H34.0218C34.0218 2.204 34.0194 2.20642 34.017 2.20883V2.22333H34.0097V2.233H34.0001V2.2475H33.9904V2.26683H33.9783V2.2475H33.9662V2.25717H33.9566V2.27167H33.9445V2.291H33.9324V2.30067H33.9227V2.31517H33.9131V2.32483H33.9034V2.34417H33.8889V2.35383H33.8792V2.36833H33.8672V2.378H33.8575V2.39008H33.8454V2.41425H33.8406V2.42392H33.8261V2.436H33.8164V2.44083H33.8067V2.4505H33.7947V2.47467H33.785V2.48433H33.7729V2.494H33.7632V2.5085H33.7512V2.51817H33.7391V2.52783H33.7294V2.5375H33.7197V2.56167H33.7101V2.57375H33.6956V2.58342H33.6859V2.59308H33.6738V2.60758H33.6642V2.61725H33.6521V2.63417H33.6424V2.64383H33.6279V2.65833H33.6231V2.668H33.6134V2.67767H33.6013V2.68733H33.5917V2.70183H33.5796V2.7115H33.5723C33.5699 2.71392 33.5699 2.71633 33.5699 2.71633V2.72117H33.5651L33.5554 2.73083C33.5554 2.73083 33.5506 2.73567 33.5457 2.73808V2.75258H33.5361V2.76467H33.5264V2.77433H33.5167V2.784H33.5095L33.5022 2.79125V2.7985H33.4974L33.4926 2.80333V2.81058H33.4877C33.4757 2.82508 33.4708 2.83475 33.4539 2.84925C33.4491 2.85408 33.4346 2.86617 33.4249 2.87342C33.3959 2.89275 33.3597 2.92417 33.3307 2.95075C33.3113 2.96283 33.292 2.97975 33.2775 2.99183V2.99425H33.2751C33.2364 3.02567 33.2002 3.05467 33.1567 3.0885V3.09092C33.0987 3.13925 33.0431 3.18517 32.9778 3.24075V3.23833H32.973C32.8352 3.35192 32.6902 3.48 32.5235 3.62258V3.625H32.5211C32.1127 3.98267 31.6269 4.44183 31.0832 4.99767L31.0469 5.03392L31.0372 5.04358C27.7506 8.44383 22.5717 15.5295 22.0255 26.9797C21.9772 27.927 21.9868 28.8477 22.04 29.7443V29.7661C22.3034 34.278 23.7196 38.1302 25.491 41.2598V41.2622C26.1967 42.5092 26.9579 43.6426 27.7288 44.6576V44.66C30.392 48.1763 33.1107 50.2594 33.8043 50.7645C34.8701 53.2368 34.771 57.4804 34.771 57.4804L36.3273 58C36.3273 58 36.0107 53.8893 36.4554 51.9052C36.5932 51.2841 36.9194 50.7548 37.2988 50.3053C37.555 50.1241 38.3138 49.5779 39.2249 48.7466C39.2684 48.7007 39.2926 48.6596 39.3312 48.6161C43.007 45.1893 49.8727 36.7503 47.5189 23.0018Z" fill="#C3C7BE"/>
</g>
<path d="M7.232 84.376H7.264L10.608 75.672H13.072V87H11.488V77.528H11.456L7.696 87H6.688L2.944 77.528H2.912V87H1.376V75.672H3.84L7.232 84.376ZM23.4291 83.192C23.4291 83.7787 23.3225 84.3173 23.1091 84.808C22.9065 85.2987 22.6185 85.7253 22.2451 86.088C21.8825 86.44 21.4505 86.7173 20.9491 86.92C20.4478 87.112 19.9091 87.208 19.3331 87.208C18.7571 87.208 18.2185 87.112 17.7171 86.92C17.2158 86.7173 16.7838 86.44 16.4211 86.088C16.0585 85.7253 15.7705 85.2987 15.5571 84.808C15.3545 84.3173 15.2531 83.7787 15.2531 83.192C15.2531 82.6053 15.3545 82.072 15.5571 81.592C15.7705 81.1013 16.0585 80.68 16.4211 80.328C16.7838 79.976 17.2158 79.704 17.7171 79.512C18.2185 79.3093 18.7571 79.208 19.3331 79.208C19.9091 79.208 20.4478 79.3093 20.9491 79.512C21.4505 79.704 21.8825 79.976 22.2451 80.328C22.6185 80.68 22.9065 81.1013 23.1091 81.592C23.3225 82.072 23.4291 82.6053 23.4291 83.192ZM21.8611 83.192C21.8611 82.8293 21.8025 82.4827 21.6851 82.152C21.5785 81.8213 21.4185 81.5333 21.2051 81.288C20.9918 81.032 20.7251 80.8293 20.4051 80.68C20.0958 80.5307 19.7385 80.456 19.3331 80.456C18.9278 80.456 18.5651 80.5307 18.2451 80.68C17.9358 80.8293 17.6745 81.032 17.4611 81.288C17.2478 81.5333 17.0825 81.8213 16.9651 82.152C16.8585 82.4827 16.8051 82.8293 16.8051 83.192C16.8051 83.5547 16.8585 83.9013 16.9651 84.232C17.0825 84.5627 17.2478 84.856 17.4611 85.112C17.6745 85.368 17.9358 85.5707 18.2451 85.72C18.5651 85.8693 18.9278 85.944 19.3331 85.944C19.7385 85.944 20.0958 85.8693 20.4051 85.72C20.7251 85.5707 20.9918 85.368 21.2051 85.112C21.4185 84.856 21.5785 84.5627 21.6851 84.232C21.8025 83.9013 21.8611 83.5547 21.8611 83.192ZM26.8748 79.416C26.8961 79.608 26.9121 79.8267 26.9228 80.072C26.9334 80.3067 26.9388 80.504 26.9388 80.664H26.9868C27.0828 80.4613 27.2108 80.2747 27.3708 80.104C27.5414 79.9227 27.7334 79.768 27.9468 79.64C28.1601 79.5013 28.3948 79.3947 28.6508 79.32C28.9068 79.2453 29.1734 79.208 29.4508 79.208C29.9414 79.208 30.3628 79.2933 30.7148 79.464C31.0668 79.624 31.3601 79.8427 31.5948 80.12C31.8294 80.3973 32.0001 80.7227 32.1068 81.096C32.2241 81.4693 32.2828 81.8693 32.2828 82.296V87H30.7788V82.792C30.7788 82.4827 30.7521 82.1893 30.6988 81.912C30.6561 81.6347 30.5708 81.3893 30.4428 81.176C30.3148 80.9627 30.1388 80.792 29.9148 80.664C29.6908 80.536 29.4028 80.472 29.0508 80.472C28.4534 80.472 27.9628 80.7013 27.5788 81.16C27.2054 81.608 27.0188 82.2107 27.0188 82.968V87H25.5148V81.048C25.5148 80.8453 25.5094 80.584 25.4988 80.264C25.4881 79.944 25.4721 79.6613 25.4508 79.416H26.8748ZM35.4193 88.296C35.7499 88.6693 36.1606 88.968 36.6513 89.192C37.1526 89.416 37.6646 89.528 38.1873 89.528C38.6886 89.528 39.1099 89.4533 39.4513 89.304C39.7926 89.1653 40.0646 88.968 40.2673 88.712C40.4806 88.4667 40.6299 88.1733 40.7153 87.832C40.8113 87.4907 40.8593 87.1227 40.8593 86.728V85.752H40.8273C40.5499 86.1787 40.1713 86.504 39.6913 86.728C39.2113 86.952 38.6993 87.064 38.1553 87.064C37.5793 87.064 37.0513 86.9627 36.5713 86.76C36.1019 86.5573 35.7019 86.28 35.3713 85.928C35.0406 85.576 34.7846 85.1653 34.6033 84.696C34.4219 84.216 34.3313 83.704 34.3313 83.16C34.3313 82.616 34.4219 82.104 34.6033 81.624C34.7846 81.144 35.0406 80.728 35.3713 80.376C35.7019 80.0133 36.1019 79.7307 36.5713 79.528C37.0406 79.3147 37.5633 79.208 38.1393 79.208C38.6833 79.208 39.2006 79.3253 39.6913 79.56C40.1926 79.7947 40.5873 80.152 40.8753 80.632H40.9073V79.416H42.3633V86.616C42.3633 87.1707 42.2939 87.6987 42.1553 88.2C42.0166 88.712 41.7819 89.16 41.4513 89.544C41.1206 89.9387 40.6886 90.2533 40.1553 90.488C39.6219 90.7227 38.9606 90.84 38.1713 90.84C37.5099 90.84 36.8433 90.7173 36.1713 90.472C35.5099 90.2373 34.9393 89.9013 34.4593 89.464L35.4193 88.296ZM35.8832 83.128C35.8832 83.48 35.9366 83.816 36.0433 84.136C36.1606 84.456 36.3259 84.7387 36.5393 84.984C36.7633 85.2293 37.0299 85.4267 37.3393 85.576C37.6486 85.7253 38.0006 85.8 38.3953 85.8C38.7793 85.8 39.1313 85.7307 39.4513 85.592C39.7713 85.4533 40.0433 85.2667 40.2673 85.032C40.4913 84.7867 40.6619 84.504 40.7793 84.184C40.9073 83.8533 40.9713 83.5013 40.9713 83.128C40.9713 82.7653 40.9073 82.424 40.7793 82.104C40.6619 81.784 40.4859 81.5013 40.2513 81.256C40.0273 81.0107 39.7553 80.8187 39.4353 80.68C39.1259 80.5307 38.7793 80.456 38.3953 80.456C38.0006 80.456 37.6486 80.5307 37.3393 80.68C37.0299 80.8187 36.7633 81.0107 36.5393 81.256C36.3259 81.4907 36.1606 81.7733 36.0433 82.104C35.9366 82.424 35.8832 82.7653 35.8832 83.128ZM52.6166 83.192C52.6166 83.7787 52.51 84.3173 52.2966 84.808C52.094 85.2987 51.806 85.7253 51.4326 86.088C51.07 86.44 50.638 86.7173 50.1366 86.92C49.6353 87.112 49.0966 87.208 48.5206 87.208C47.9446 87.208 47.406 87.112 46.9046 86.92C46.4033 86.7173 45.9713 86.44 45.6086 86.088C45.246 85.7253 44.958 85.2987 44.7446 84.808C44.542 84.3173 44.4406 83.7787 44.4406 83.192C44.4406 82.6053 44.542 82.072 44.7446 81.592C44.958 81.1013 45.246 80.68 45.6086 80.328C45.9713 79.976 46.4033 79.704 46.9046 79.512C47.406 79.3093 47.9446 79.208 48.5206 79.208C49.0966 79.208 49.6353 79.3093 50.1366 79.512C50.638 79.704 51.07 79.976 51.4326 80.328C51.806 80.68 52.094 81.1013 52.2966 81.592C52.51 82.072 52.6166 82.6053 52.6166 83.192ZM51.0486 83.192C51.0486 82.8293 50.99 82.4827 50.8726 82.152C50.766 81.8213 50.606 81.5333 50.3926 81.288C50.1793 81.032 49.9126 80.8293 49.5926 80.68C49.2833 80.5307 48.926 80.456 48.5206 80.456C48.1153 80.456 47.7526 80.5307 47.4326 80.68C47.1233 80.8293 46.862 81.032 46.6486 81.288C46.4353 81.5333 46.27 81.8213 46.1526 82.152C46.046 82.4827 45.9926 82.8293 45.9926 83.192C45.9926 83.5547 46.046 83.9013 46.1526 84.232C46.27 84.5627 46.4353 84.856 46.6486 85.112C46.862 85.368 47.1233 85.5707 47.4326 85.72C47.7526 85.8693 48.1153 85.944 48.5206 85.944C48.926 85.944 49.2833 85.8693 49.5926 85.72C49.9126 85.5707 50.1793 85.368 50.3926 85.112C50.606 84.856 50.766 84.5627 50.8726 84.232C50.99 83.9013 51.0486 83.5547 51.0486 83.192ZM54.7823 75.672H58.6703C59.3956 75.672 60.1209 75.7787 60.8463 75.992C61.5716 76.2053 62.2276 76.5413 62.8142 77C63.4009 77.4587 63.8756 78.0453 64.2383 78.76C64.6009 79.4747 64.7823 80.3333 64.7823 81.336C64.7823 82.3067 64.6009 83.1493 64.2383 83.864C63.8756 84.568 63.4009 85.1547 62.8142 85.624C62.2276 86.0827 61.5716 86.4293 60.8463 86.664C60.1209 86.888 59.3956 87 58.6703 87H54.7823V75.672ZM56.3663 85.608H58.3503C59.0329 85.608 59.6623 85.512 60.2383 85.32C60.8249 85.128 61.3263 84.8507 61.7423 84.488C62.1689 84.1253 62.4996 83.6773 62.7343 83.144C62.9689 82.6107 63.0863 82.008 63.0863 81.336C63.0863 80.632 62.9689 80.0133 62.7343 79.48C62.4996 78.9467 62.1689 78.504 61.7423 78.152C61.3263 77.7893 60.8249 77.5173 60.2383 77.336C59.6623 77.144 59.0329 77.048 58.3503 77.048H56.3663V85.608ZM66.9541 75.672H70.8581C71.2848 75.672 71.7115 75.72 72.1381 75.816C72.5648 75.912 72.9435 76.072 73.2741 76.296C73.6155 76.52 73.8875 76.8133 74.0901 77.176C74.3035 77.5387 74.4101 77.992 74.4101 78.536C74.4101 79.1653 74.2288 79.6933 73.8661 80.12C73.5035 80.5467 73.0235 80.84 72.4261 81V81.032C72.7888 81.0747 73.1248 81.1707 73.4341 81.32C73.7435 81.4587 74.0101 81.6453 74.2341 81.88C74.4581 82.1147 74.6288 82.392 74.7461 82.712C74.8741 83.032 74.9381 83.3893 74.9381 83.784C74.9381 84.328 74.8261 84.8027 74.6021 85.208C74.3781 85.6133 74.0741 85.9493 73.6901 86.216C73.3061 86.472 72.8528 86.6693 72.3301 86.808C71.8181 86.936 71.2688 87 70.6821 87H66.9541V75.672ZM68.5381 80.456H70.6021C70.9008 80.456 71.1835 80.424 71.4501 80.36C71.7275 80.2853 71.9675 80.1787 72.1701 80.04C72.3728 79.8907 72.5328 79.7093 72.6501 79.496C72.7675 79.272 72.8261 79.0053 72.8261 78.696C72.8261 78.088 72.6021 77.656 72.1541 77.4C71.7061 77.1333 71.1035 77 70.3461 77H68.5381V80.456ZM68.5381 85.656H70.5221C70.8528 85.656 71.1835 85.6293 71.5141 85.576C71.8555 85.512 72.1595 85.4053 72.4261 85.256C72.7035 85.1067 72.9221 84.9093 73.0821 84.664C73.2528 84.408 73.3381 84.088 73.3381 83.704C73.3381 83.032 73.1088 82.5467 72.6501 82.248C72.1915 81.9493 71.5301 81.8 70.6661 81.8H68.5381V85.656Z" fill="#C3C7BE"/>
<defs>
<clipPath id="clip0_2650_53142">
<rect width="58" height="58" fill="white" transform="translate(6)"/>
</clipPath>
</defs>
</svg>
