<svg width="58" height="96" viewBox="0 0 58 96" fill="none" xmlns="http://www.w3.org/2000/svg">
<g clip-path="url(#clip0_2650_53146)">
<path d="M39.6454 14.8994C39.3675 14.8994 39.179 14.9362 38.9833 14.9861V15.0202H39.0171C39.1476 15.2932 39.3699 15.4927 39.5342 15.7368C39.6647 16.0177 39.7759 16.2986 39.9064 16.5768L39.9403 16.5374C40.1674 16.3642 40.2786 16.0859 40.2786 15.6633C40.1819 15.5399 40.1674 15.4166 40.0853 15.2958C39.9886 15.1199 39.7808 15.0333 39.6502 14.8942L39.6454 14.8994ZM13.9442 49.5337H11.7039C11.6314 45.4334 11.4067 41.5799 11.0514 37.9574H11.0321L7.62458 49.5337H5.92083L2.5375 37.9574H2.51333C2.26442 41.4303 2.10733 45.2891 2.04208 49.5337H0C0.132917 44.3729 0.464 39.5324 0.990833 35.0174H3.77L6.99625 45.6854H7.01558L10.2708 35.0174H12.9171C13.5019 40.3068 13.8451 45.1499 13.9514 49.5337H13.9442ZM23.6519 38.8237C22.7384 44.1918 21.5349 48.0978 20.0463 50.5312C18.8814 52.4107 17.6054 53.3478 16.2207 53.3478C15.8509 53.3478 15.399 53.2271 14.8528 52.9856V51.6888C15.1187 51.7334 15.4328 51.7571 15.7857 51.7571C16.4333 51.7571 16.9529 51.5602 17.3493 51.1743C17.8253 50.7018 18.0622 50.1716 18.0622 49.5862C18.0622 49.1793 17.8761 48.3524 17.5063 47.1082L15.0558 38.8237H17.255L19.0119 45.0187C19.4083 46.4257 19.575 47.4074 19.5073 47.9666C20.474 45.1736 21.1458 42.1207 21.5252 38.8237H23.6519ZM53.4373 49.5337H47.0815V35.0174H49.2203V47.7487H53.4373V49.5337ZM45.414 49.8881L42.9587 48.5756C43.1762 48.3761 43.3864 48.1608 43.5749 47.9193C44.6213 46.5911 45.1409 44.6171 45.1409 42.0052C45.1409 37.2014 43.4058 34.7969 39.933 34.7969C38.2317 34.7969 36.9025 35.4059 35.9455 36.6266C34.9063 37.9601 34.3843 39.9236 34.3843 42.5197C34.3843 45.0712 34.8435 46.9454 35.7715 48.1372C36.6173 49.2134 37.8909 49.7516 39.5971 49.7516C40.2351 49.7516 40.8199 49.6649 41.3492 49.4943L44.5513 51.5208L45.4213 49.8881H45.414ZM37.4583 46.6278C36.9146 45.6828 36.6439 44.1603 36.6439 42.0708C36.6439 38.4142 37.6686 36.5846 39.7131 36.5846C40.7837 36.5846 41.5739 37.0229 42.0742 37.8971C42.6155 38.8473 42.8862 40.3541 42.8862 42.4199C42.8862 46.1054 41.8615 47.9534 39.817 47.9534C38.7416 47.9534 37.9562 47.5151 37.4535 46.6409L37.4583 46.6278ZM33.4515 45.5122C33.4515 46.7459 33.0358 47.7592 32.2045 48.5467C31.3732 49.3342 30.2639 49.7279 28.8598 49.7279C27.5476 49.7279 26.2885 49.2764 25.0584 48.3761L25.6312 47.1266C26.6897 47.7041 27.6442 47.9876 28.507 47.9876C29.3093 47.9876 29.9401 47.7959 30.3993 47.4101C30.8536 47.0242 31.1243 46.4808 31.1243 45.7957C31.1243 44.9294 30.5684 44.1944 29.5583 43.5776C28.6206 43.0184 26.7477 41.8529 26.7477 41.8529C25.7278 41.0471 25.2203 40.1834 25.2203 38.7633C25.2203 37.5821 25.5998 36.6371 26.3562 35.9152C27.1174 35.1854 28.0962 34.8258 29.3045 34.8258C30.5418 34.8258 31.6728 35.1828 32.6878 35.9021L32.1731 37.1516C31.3031 36.7526 30.4452 36.5478 29.6017 36.5478C28.9178 36.5478 28.3886 36.7263 28.0213 37.0886C27.6515 37.4456 27.4219 37.9023 27.4219 38.4641C27.4219 39.3251 27.9874 40.0653 29.0314 40.6953C29.9812 41.2597 31.9 42.4541 31.9 42.4541C32.9464 43.2547 33.466 44.1078 33.466 45.5201L33.4515 45.5122ZM56.1247 30.1507C54.8318 30.1139 53.8288 30.2557 52.9903 30.6442C52.7486 30.7492 52.3619 30.7492 52.3281 31.0826C52.461 31.2217 52.4803 31.4501 52.5939 31.6443C52.7873 31.9961 53.1208 32.4659 53.4301 32.7127C53.7684 33.0014 54.1068 33.2797 54.462 33.5264C55.0903 33.9464 55.8033 34.1958 56.4195 34.6184C56.7699 34.8652 57.1276 35.1776 57.4828 35.4401C57.6592 35.5713 57.7728 35.8076 58 35.8916V35.8391C57.8888 35.6816 57.855 35.4532 57.7463 35.2773C57.5843 35.1014 57.4224 34.9439 57.2629 34.7707C56.7941 34.0882 56.2117 33.4923 55.5833 32.9988C55.0662 32.6156 53.9352 32.0801 53.7225 31.4369L53.6911 31.4002C54.0439 31.3661 54.4644 31.2269 54.8028 31.1219C55.3513 30.9644 55.854 30.9986 56.4219 30.8437C56.6781 30.7728 56.9367 30.6862 57.1953 30.5969V30.4394C56.9053 30.1244 56.6878 29.6966 56.3881 29.4026C55.5664 28.6282 54.6553 27.8748 53.7201 27.2422C53.2126 26.8904 52.5698 26.6647 52.0357 26.3654C51.8423 26.2604 51.5185 26.2079 51.4073 26.0321C51.1173 25.6488 50.9482 25.1396 50.7428 24.6828C50.2788 23.7168 49.8244 22.6484 49.4208 21.6299C49.1308 20.9422 48.9544 20.2571 48.5992 19.6271C46.9317 16.6424 45.1264 14.8338 42.3497 13.0646C41.7528 12.6971 41.0374 12.5396 40.281 12.3453C39.8774 12.3243 39.4738 12.2928 39.0727 12.2744C38.8068 12.1511 38.5507 11.8177 38.3235 11.6576C37.4052 11.0276 35.0272 9.66255 34.3505 11.4686C33.9155 12.6078 34.9958 13.7313 35.3703 14.3088C35.6483 14.7104 35.9987 15.1698 36.192 15.6213C36.3056 15.9258 36.337 16.2382 36.4506 16.5558C36.7068 17.3276 36.9508 18.1886 37.2892 18.9104C37.4656 19.2779 37.6589 19.6638 37.8861 19.9946C38.0166 20.1862 38.2389 20.2754 38.2897 20.5904C38.0625 20.9474 38.048 21.4672 37.9175 21.9029C37.3375 23.8901 37.5647 26.3471 38.3863 27.8092C38.6449 28.2449 39.2612 29.2109 40.0853 28.8408C40.8102 28.5258 40.6507 27.5283 40.8586 26.6489C40.9069 26.4389 40.8755 26.2998 40.9746 26.1581V26.1974C41.2018 26.6909 41.4289 27.1608 41.6368 27.6543C42.1346 28.5153 43.0046 29.4078 43.732 30.0037C44.1187 30.3187 44.4256 30.8647 44.9089 31.0589V31.0064H44.8727C44.7688 30.8542 44.631 30.7807 44.5005 30.6573C44.2105 30.3423 43.8843 29.9564 43.6547 29.6073C42.978 28.6177 42.3811 27.5336 41.8494 26.4101C41.5836 25.8588 41.3613 25.2656 41.1486 24.7222C41.0519 24.5122 41.0519 24.1972 40.89 24.0922C40.6483 24.4754 40.2931 24.8088 40.1167 25.2813C39.8098 26.0373 39.7783 26.9666 39.6623 27.9326C39.5971 27.9509 39.6285 27.9326 39.5971 27.9693C39.0799 27.8328 38.9035 27.2501 38.7102 26.7618C38.2268 25.5149 38.1471 23.5121 38.5652 22.0762C38.6788 21.7087 39.1621 20.5484 38.9688 20.1967C38.8673 19.8633 38.5483 19.6717 38.3718 19.4013C38.1616 19.0758 37.9368 18.6532 37.7918 18.2804C37.4052 17.2987 37.2118 16.2119 36.7913 15.2302C36.598 14.7761 36.2597 14.3009 35.9842 13.8836C35.6773 13.4111 35.3389 13.0777 35.0948 12.5186C35.0151 12.3269 34.9015 12.0093 35.0296 11.7993C35.0634 11.6576 35.1311 11.6024 35.2568 11.5631C35.4694 11.3741 36.0663 11.6208 36.2766 11.7258C36.8735 11.9883 37.3762 12.2351 37.8764 12.6026C38.1036 12.7758 38.3477 13.1092 38.6377 13.1958H38.976C39.4932 13.3192 40.0756 13.2326 40.5589 13.3874C41.4168 13.6867 42.1902 14.1224 42.8838 14.5949C45.0008 16.0544 46.7408 18.1256 47.9225 20.5957C48.1158 20.9999 48.2004 21.3701 48.3768 21.7901C48.7152 22.6563 49.1333 23.5304 49.4764 24.3678C49.8148 25.1947 50.141 26.0373 50.6268 26.7224C50.8684 27.0899 51.8399 27.2816 52.2749 27.4732C52.5963 27.6307 53.0966 27.7751 53.3866 27.9667C53.9424 28.3342 54.4837 28.7542 55.0058 29.1584C55.2716 29.3579 56.0763 29.7963 56.1247 30.1507Z" fill="#C3C7BE"/>
</g>
<path d="M10.232 87.376H10.264L13.608 78.672H16.072V90H14.488V80.528H14.456L10.696 90H9.688L5.944 80.528H5.912V90H4.376V78.672H6.84L10.232 87.376ZM21.6291 88.368H21.6611L23.7571 82.416H25.3571L21.6771 91.792C21.5491 92.112 21.4105 92.3947 21.2611 92.64C21.1118 92.896 20.9358 93.1093 20.7331 93.28C20.5305 93.4613 20.2905 93.6 20.0131 93.696C19.7465 93.792 19.4265 93.84 19.0531 93.84C18.8931 93.84 18.7278 93.8293 18.5571 93.808C18.3971 93.7973 18.2318 93.7707 18.0611 93.728L18.2051 92.4C18.4611 92.4853 18.7118 92.528 18.9571 92.528C19.3518 92.528 19.6451 92.416 19.8371 92.192C20.0291 91.9787 20.2051 91.6693 20.3651 91.264L20.8451 90L17.5971 82.416H19.2771L21.6291 88.368ZM32.5236 80.768C32.2996 80.4587 31.9956 80.208 31.6116 80.016C31.2276 79.8133 30.7956 79.712 30.3156 79.712C30.0596 79.712 29.7983 79.7493 29.5316 79.824C29.2756 79.888 29.041 80 28.8276 80.16C28.6143 80.3093 28.4383 80.5013 28.2996 80.736C28.1716 80.96 28.1076 81.232 28.1076 81.552C28.1076 81.8613 28.1663 82.1227 28.2836 82.336C28.4116 82.5387 28.577 82.7147 28.7796 82.864C28.993 83.0027 29.2383 83.1253 29.5156 83.232C29.8036 83.328 30.1076 83.4293 30.4276 83.536C30.8116 83.6533 31.201 83.7867 31.5956 83.936C31.9903 84.0853 32.3476 84.2827 32.6676 84.528C32.9876 84.7733 33.249 85.0827 33.4516 85.456C33.6543 85.8187 33.7556 86.2827 33.7556 86.848C33.7556 87.4347 33.6436 87.9467 33.4196 88.384C33.2063 88.8107 32.9183 89.168 32.5556 89.456C32.193 89.7333 31.7716 89.9413 31.2916 90.08C30.8223 90.2187 30.337 90.288 29.8356 90.288C29.121 90.288 28.4276 90.1493 27.7556 89.872C27.0943 89.5947 26.545 89.184 26.1076 88.64L27.3396 87.6C27.6063 87.9947 27.9636 88.3147 28.4116 88.56C28.8596 88.8053 29.345 88.928 29.8676 88.928C30.1343 88.928 30.401 88.8907 30.6676 88.816C30.9343 88.7413 31.1743 88.624 31.3876 88.464C31.6116 88.304 31.793 88.1067 31.9316 87.872C32.0703 87.6267 32.1396 87.3333 32.1396 86.992C32.1396 86.6507 32.065 86.368 31.9156 86.144C31.777 85.9093 31.585 85.712 31.3396 85.552C31.0943 85.392 30.8063 85.2587 30.4756 85.152C30.1556 85.0347 29.8143 84.9173 29.4516 84.8C29.089 84.6933 28.7316 84.5653 28.3796 84.416C28.0276 84.256 27.713 84.0587 27.4356 83.824C27.1583 83.5787 26.9343 83.28 26.7636 82.928C26.593 82.576 26.5076 82.1387 26.5076 81.616C26.5076 81.0507 26.6196 80.5653 26.8436 80.16C27.0783 79.7547 27.377 79.4187 27.7396 79.152C28.113 78.8853 28.529 78.6933 28.9876 78.576C29.457 78.448 29.9263 78.384 30.3956 78.384C31.057 78.384 31.6756 78.5013 32.2516 78.736C32.8276 78.9707 33.2916 79.2853 33.6436 79.68L32.5236 80.768ZM47.969 90H41.313C40.449 90 39.6543 89.8613 38.929 89.584C38.2143 89.3067 37.5957 88.9173 37.073 88.416C36.5503 87.9147 36.145 87.3067 35.857 86.592C35.569 85.8773 35.425 85.0773 35.425 84.192C35.425 83.3387 35.5743 82.56 35.873 81.856C36.1717 81.1413 36.5823 80.528 37.105 80.016C37.6277 79.504 38.2463 79.104 38.961 78.816C39.6863 78.528 40.4757 78.384 41.329 78.384C42.1717 78.384 42.9503 78.528 43.665 78.816C44.3797 79.104 44.9983 79.504 45.521 80.016C46.0437 80.528 46.449 81.1413 46.737 81.856C47.0357 82.56 47.185 83.3387 47.185 84.192C47.185 85.2053 46.9717 86.0907 46.545 86.848C46.1183 87.6053 45.553 88.2027 44.849 88.64V88.672H47.969V90ZM37.137 84.192C37.137 84.8107 37.233 85.392 37.425 85.936C37.6277 86.4693 37.9103 86.9333 38.273 87.328C38.6357 87.7227 39.073 88.0373 39.585 88.272C40.097 88.496 40.673 88.608 41.313 88.608C41.9317 88.608 42.497 88.496 43.009 88.272C43.5317 88.0373 43.9743 87.7227 44.337 87.328C44.6997 86.9333 44.9823 86.4693 45.185 85.936C45.3877 85.392 45.489 84.8107 45.489 84.192C45.489 83.584 45.393 83.0133 45.201 82.48C45.009 81.9467 44.7317 81.4827 44.369 81.088C44.0063 80.6827 43.569 80.3627 43.057 80.128C42.545 79.8933 41.969 79.776 41.329 79.776C40.689 79.776 40.113 79.8933 39.601 80.128C39.089 80.3627 38.6463 80.6827 38.273 81.088C37.9103 81.4827 37.6277 81.9467 37.425 82.48C37.233 83.0133 37.137 83.584 37.137 84.192ZM51.1163 88.592H56.1723V90H49.5323V78.672H51.1163V88.592Z" fill="#C3C7BE"/>
<defs>
<clipPath id="clip0_2650_53146">
<rect width="58" height="63" fill="white"/>
</clipPath>
</defs>
</svg>
