<svg width="58" height="84" viewBox="0 0 58 84" fill="none" xmlns="http://www.w3.org/2000/svg">
<path d="M20.6236 27.8723C19.9805 31.1698 17.7088 30.8278 14.9161 30.8278L16.0315 25.0795C19.1256 25.0796 21.2262 24.7457 20.6236 27.8723ZM10.7881 36.6493H13.7762L14.4847 33.0018C17.831 33.0018 19.9072 33.2461 21.8287 31.4467C23.9537 29.4925 24.5073 26.0159 22.993 24.2735C22.2034 23.3616 20.9331 22.9138 19.207 22.9138H13.4505L10.7881 36.6493ZM25.9077 19.2581H28.8797L28.1713 22.9056C30.736 22.9056 33.1136 22.7183 34.2617 23.7768C35.4667 24.8842 34.8887 26.3009 33.5858 32.9856H30.5732C31.8271 26.5209 32.0633 25.9835 31.6073 25.4949C31.1677 25.0227 30.1661 25.1204 27.7479 25.1204L26.2171 32.9856H23.2452L25.9077 19.2581ZM43.9752 27.8723C43.3237 31.2189 40.9869 30.8278 38.2675 30.8278L39.383 25.0795C42.4932 25.0796 44.5777 24.7457 43.9752 27.8723ZM34.1397 36.6493H37.1358L37.8443 33.0018C41.3616 33.0018 43.3075 33.2052 45.1883 31.4467C47.3134 29.4925 47.867 26.0159 46.3527 24.2735C45.5627 23.3616 44.2926 22.9138 42.5665 22.9138H36.81L34.1397 36.6493Z" fill="#C3C7BE"/>
<path d="M29 15.2969C14.6129 15.2969 2.94531 21.4278 2.94531 28.9999C2.94531 36.5721 14.6129 42.7032 29 42.7032C43.3871 42.7032 55.0545 36.5721 55.0545 28.9999C55.0545 21.4278 43.3871 15.2969 29 15.2969Z" stroke="#C3C7BE" stroke-width="1.81301" stroke-miterlimit="10" stroke-linecap="round" stroke-linejoin="round"/>
<path d="M14.376 66.672H17.832C18.44 66.672 18.9947 66.736 19.496 66.864C19.9973 66.9813 20.424 67.168 20.776 67.424C21.128 67.68 21.4 68.0053 21.592 68.4C21.784 68.7947 21.88 69.2693 21.88 69.824C21.88 70.3893 21.7733 70.8747 21.56 71.28C21.3573 71.6853 21.0693 72.016 20.696 72.272C20.3333 72.528 19.896 72.72 19.384 72.848C18.8827 72.9653 18.3387 73.024 17.752 73.024H15.96V78H14.376V66.672ZM15.96 71.68H17.64C18.024 71.68 18.376 71.648 18.696 71.584C19.0267 71.5093 19.3093 71.4027 19.544 71.264C19.7787 71.1147 19.96 70.9227 20.088 70.688C20.216 70.4533 20.28 70.1653 20.28 69.824C20.28 69.4827 20.2107 69.2 20.072 68.976C19.944 68.7413 19.7627 68.5547 19.528 68.416C19.304 68.2667 19.032 68.1653 18.712 68.112C18.392 68.048 18.0453 68.016 17.672 68.016H15.96V71.68ZM23.8916 66.672H25.4756V71.408H31.2036V66.672H32.8036V78H31.2036V72.816H25.4756V78H23.8916V66.672ZM35.5479 66.672H39.0039C39.6119 66.672 40.1665 66.736 40.6679 66.864C41.1692 66.9813 41.5959 67.168 41.9479 67.424C42.2999 67.68 42.5719 68.0053 42.7639 68.4C42.9559 68.7947 43.0519 69.2693 43.0519 69.824C43.0519 70.3893 42.9452 70.8747 42.7319 71.28C42.5292 71.6853 42.2412 72.016 41.8679 72.272C41.5052 72.528 41.0679 72.72 40.5559 72.848C40.0545 72.9653 39.5105 73.024 38.9239 73.024H37.1319V78H35.5479V66.672ZM37.1319 71.68H38.8119C39.1959 71.68 39.5479 71.648 39.8679 71.584C40.1985 71.5093 40.4812 71.4027 40.7159 71.264C40.9505 71.1147 41.1319 70.9227 41.2599 70.688C41.3879 70.4533 41.4519 70.1653 41.4519 69.824C41.4519 69.4827 41.3825 69.2 41.2439 68.976C41.1159 68.7413 40.9345 68.5547 40.6999 68.416C40.4759 68.2667 40.2039 68.1653 39.8839 68.112C39.5639 68.048 39.2172 68.016 38.8439 68.016H37.1319V71.68Z" fill="#C3C7BE"/>
</svg>
