<svg width="58" height="89" viewBox="0 0 58 89" fill="none" xmlns="http://www.w3.org/2000/svg">
<g clip-path="url(#clip0_2650_52974)">
<path d="M29.4386 39.1953C32.1187 39.1953 34.2913 37.0227 34.2913 34.3427C34.2913 31.6626 32.1187 29.49 29.4386 29.49C26.7586 29.49 24.5859 31.6626 24.5859 34.3427C24.5859 37.0227 26.7586 39.1953 29.4386 39.1953Z" fill="#C3C7BE"/>
<path d="M29.4378 45.4594C22.6228 45.4594 16.6681 44.6571 12.2118 43.1298C9.32142 42.1438 6.86608 40.8291 5.11641 39.3308C3.26041 37.7454 2.27441 36.0151 2.27441 34.3428C2.27441 31.1334 5.79308 27.9918 11.6994 25.9424C16.5328 24.2604 22.8354 23.3228 29.4281 23.3228C35.9048 23.3228 42.1204 24.2314 46.9248 25.8941C49.7378 26.8608 52.1061 28.1174 53.7881 29.5094C55.6151 31.0368 56.5818 32.7091 56.5818 34.3428C56.5818 37.6778 52.6474 41.0514 46.3061 43.1491C41.8208 44.6378 35.8274 45.4594 29.4378 45.4594ZM29.4378 25.6428C23.1834 25.6428 16.9967 26.5514 12.4727 28.1271C7.04008 30.0218 4.60408 32.6124 4.60408 34.3428C4.60408 36.1408 7.22375 38.9731 12.9657 40.9354C17.1804 42.3758 22.8838 43.1394 29.4378 43.1394C35.5858 43.1394 41.3181 42.3661 45.5811 40.9451C51.5454 38.9634 54.2714 36.1311 54.2714 34.3428C54.2714 33.4244 53.5754 32.3418 52.3091 31.2881C50.8494 30.0701 48.7228 28.9584 46.1804 28.0788C41.6081 26.5128 35.6631 25.6428 29.4378 25.6428Z" fill="#C3C7BE"/>
<path d="M18.4276 58.5288C17.4416 58.5288 16.5716 58.3162 15.8369 57.8908C13.0626 56.2861 12.0959 51.6655 13.2656 45.5271C14.2226 40.4908 16.5619 34.5748 19.8583 28.8618C23.0966 23.2551 26.9826 18.3251 30.8203 14.9901C33.0629 13.0375 35.3346 11.6068 37.3839 10.8528C39.6169 10.0311 41.5503 10.0311 42.9616 10.8431C45.8519 12.5058 46.8089 17.6098 45.4556 24.1445C44.4986 28.7845 42.2173 34.3815 39.0273 39.9205C35.6246 45.8171 31.9513 50.5732 28.4036 53.6761C26.1029 55.6868 23.7346 57.1561 21.5693 57.9198C20.4383 58.3258 19.3749 58.5288 18.4276 58.5288ZM20.8539 29.4418L21.8593 30.0218C18.7369 35.4351 16.4266 41.2448 15.5373 45.9621C14.4643 51.6171 15.4986 55.0198 16.9873 55.8801C17.3546 56.0928 17.8379 56.2088 18.4276 56.2088C20.3513 56.2088 23.3769 54.9908 26.8763 51.9361C30.2306 49.0071 33.7396 44.4445 37.0166 38.7701C40.0906 33.4438 42.2753 28.0885 43.1839 23.6901C44.4503 17.5325 43.3579 13.7625 41.8016 12.8635C41.0089 12.4091 39.7233 12.4671 38.1766 13.0375C36.3883 13.6948 34.3679 14.9805 32.3379 16.7495C28.6936 19.9201 24.9719 24.6375 21.8593 30.0315L20.8539 29.4418Z" fill="#C3C7BE"/>
<path d="M40.4484 58.5577C37.8191 58.5577 34.4841 56.9724 31.0041 53.9757C27.1181 50.631 23.1644 45.6527 19.8584 39.9397C16.6104 34.333 14.2904 28.504 13.3141 23.5064C12.7437 20.587 12.6374 17.9094 13.0047 15.7537C13.4107 13.4047 14.3677 11.7324 15.7887 10.9107C18.6694 9.23836 23.5704 10.959 28.5584 15.396C32.0964 18.5377 35.8084 23.313 39.0081 28.8424C42.4204 34.739 44.7114 40.2974 45.6201 44.918C46.2098 47.9147 46.3064 50.6987 45.8908 52.9607C45.4461 55.3677 44.4408 57.0787 42.9908 57.9197C42.2658 58.345 41.4054 58.5577 40.4484 58.5577ZM21.8691 38.7797C25.0011 44.193 28.8871 49.094 32.5218 52.2164C36.8814 55.967 40.3421 56.779 41.8404 55.909C43.3968 55.01 44.5374 51.327 43.3581 45.3724C42.4881 41.003 40.2938 35.6864 37.0071 30.012C33.9234 24.6857 30.3758 20.1134 27.0214 17.136C22.3234 12.96 18.5147 12.0224 16.9584 12.9214C16.1657 13.3757 15.5761 14.526 15.2957 16.15C14.9767 18.0254 15.0734 20.4227 15.5954 23.0617C16.5234 27.808 18.7467 33.3857 21.8691 38.7797Z" fill="#C3C7BE"/>
</g>
<path d="M11.96 83H10.376V71.672H14.008C14.552 71.672 15.0693 71.7307 15.56 71.848C16.0507 71.9547 16.4773 72.1307 16.84 72.376C17.2133 72.6213 17.5067 72.9467 17.72 73.352C17.9333 73.7467 18.04 74.232 18.04 74.808C18.04 75.64 17.784 76.312 17.272 76.824C16.76 77.336 16.0987 77.6613 15.288 77.8L18.456 83H16.536L13.656 77.96H11.96V83ZM11.96 76.632H13.784C14.1573 76.632 14.504 76.6 14.824 76.536C15.144 76.472 15.4213 76.3707 15.656 76.232C15.9013 76.0827 16.0933 75.896 16.232 75.672C16.3707 75.4373 16.44 75.1493 16.44 74.808C16.44 74.4667 16.3707 74.184 16.232 73.96C16.0933 73.7253 15.9067 73.5387 15.672 73.4C15.448 73.2613 15.1813 73.1653 14.872 73.112C14.5627 73.048 14.2373 73.016 13.896 73.016H11.96V76.632ZM25.4886 78.536C25.478 78.2373 25.4246 77.96 25.3286 77.704C25.2433 77.4373 25.11 77.208 24.9286 77.016C24.758 76.824 24.5393 76.6747 24.2726 76.568C24.0166 76.4507 23.7126 76.392 23.3606 76.392C23.0406 76.392 22.7366 76.4507 22.4486 76.568C22.1713 76.6747 21.926 76.824 21.7126 77.016C21.51 77.208 21.3393 77.4373 21.2006 77.704C21.0726 77.96 20.998 78.2373 20.9766 78.536H25.4886ZM27.0086 79.144C27.0086 79.2293 27.0086 79.3147 27.0086 79.4C27.0086 79.4853 27.0033 79.5707 26.9926 79.656H20.9766C20.9873 79.976 21.0566 80.28 21.1846 80.568C21.3233 80.8453 21.5046 81.0907 21.7286 81.304C21.9526 81.5067 22.2086 81.6667 22.4966 81.784C22.7953 81.9013 23.11 81.96 23.4406 81.96C23.9526 81.96 24.3953 81.848 24.7686 81.624C25.142 81.4 25.4353 81.128 25.6486 80.808L26.7046 81.656C26.2993 82.1893 25.8193 82.584 25.2646 82.84C24.7206 83.0853 24.1126 83.208 23.4406 83.208C22.8646 83.208 22.3313 83.112 21.8406 82.92C21.35 82.728 20.9286 82.4613 20.5766 82.12C20.2246 81.768 19.9473 81.3467 19.7446 80.856C19.542 80.3653 19.4406 79.8213 19.4406 79.224C19.4406 78.6373 19.5366 78.0987 19.7286 77.608C19.9313 77.1067 20.2086 76.68 20.5606 76.328C20.9126 75.976 21.3286 75.704 21.8086 75.512C22.2886 75.3093 22.806 75.208 23.3606 75.208C23.9153 75.208 24.4166 75.2987 24.8646 75.48C25.3233 75.6613 25.7073 75.9227 26.0166 76.264C26.3366 76.6053 26.582 77.0213 26.7526 77.512C26.9233 77.992 27.0086 78.536 27.0086 79.144ZM33.7348 78.088C33.7348 77.5227 33.5641 77.1067 33.2228 76.84C32.8814 76.5627 32.4281 76.424 31.8628 76.424C31.4361 76.424 31.0308 76.5093 30.6468 76.68C30.2734 76.84 29.9588 77.048 29.7028 77.304L28.9028 76.344C29.2761 75.992 29.7294 75.7147 30.2628 75.512C30.8068 75.3093 31.3881 75.208 32.0068 75.208C32.5508 75.208 33.0201 75.288 33.4148 75.448C33.8201 75.5973 34.1508 75.8053 34.4068 76.072C34.6628 76.3387 34.8548 76.6533 34.9828 77.016C35.1108 77.3787 35.1748 77.768 35.1748 78.184V81.496C35.1748 81.752 35.1801 82.024 35.1908 82.312C35.2121 82.5893 35.2441 82.8187 35.2868 83H33.9268C33.8414 82.6373 33.7988 82.2747 33.7988 81.912H33.7508C33.4734 82.3173 33.1214 82.632 32.6948 82.856C32.2788 83.08 31.7828 83.192 31.2068 83.192C30.9081 83.192 30.5934 83.1493 30.2628 83.064C29.9428 82.9893 29.6494 82.8613 29.3828 82.68C29.1161 82.4987 28.8921 82.2587 28.7108 81.96C28.5401 81.6613 28.4548 81.2933 28.4548 80.856C28.4548 80.28 28.6094 79.8267 28.9188 79.496C29.2281 79.1547 29.6334 78.8987 30.1348 78.728C30.6361 78.5467 31.2014 78.4293 31.8307 78.376C32.4601 78.3227 33.0948 78.296 33.7348 78.296V78.088ZM33.3668 79.384C32.9934 79.384 32.6041 79.4 32.1988 79.432C31.8041 79.464 31.4414 79.528 31.1108 79.624C30.7908 79.72 30.5241 79.864 30.3108 80.056C30.0974 80.248 29.9908 80.504 29.9908 80.824C29.9908 81.048 30.0334 81.2347 30.1188 81.384C30.2148 81.5333 30.3374 81.656 30.4868 81.752C30.6361 81.848 30.8014 81.9173 30.9828 81.96C31.1641 81.992 31.3508 82.008 31.5428 82.008C32.2468 82.008 32.7854 81.8 33.1588 81.384C33.5428 80.9573 33.7348 80.424 33.7348 79.784V79.384H33.3668ZM42.9986 77.336C42.8386 77.0907 42.5986 76.888 42.2786 76.728C41.9586 76.5573 41.6173 76.472 41.2546 76.472C40.86 76.472 40.508 76.5467 40.1986 76.696C39.9 76.8453 39.644 77.048 39.4306 77.304C39.2173 77.5493 39.052 77.8373 38.9346 78.168C38.828 78.4987 38.7746 78.8453 38.7746 79.208C38.7746 79.5707 38.828 79.9173 38.9346 80.248C39.052 80.5787 39.2173 80.872 39.4306 81.128C39.644 81.3733 39.9053 81.5707 40.2146 81.72C40.524 81.8693 40.876 81.944 41.2706 81.944C41.6546 81.944 42.0013 81.8693 42.3106 81.72C42.6306 81.5707 42.892 81.368 43.0946 81.112L44.1026 82.024C43.7826 82.3973 43.3826 82.6907 42.9026 82.904C42.4226 83.1067 41.8786 83.208 41.2706 83.208C40.684 83.208 40.14 83.112 39.6386 82.92C39.148 82.728 38.7213 82.4613 38.3586 82.12C37.996 81.768 37.708 81.3467 37.4946 80.856C37.292 80.3653 37.1906 79.816 37.1906 79.208C37.1906 78.6107 37.292 78.0667 37.4946 77.576C37.6973 77.0853 37.98 76.664 38.3426 76.312C38.7053 75.96 39.132 75.688 39.6226 75.496C40.124 75.304 40.6626 75.208 41.2386 75.208C41.772 75.208 42.3 75.3147 42.8226 75.528C43.356 75.7413 43.7773 76.0507 44.0866 76.456L42.9986 77.336ZM49.3049 76.648H47.2889V80.6C47.2889 81.0587 47.3742 81.3893 47.5449 81.592C47.7155 81.784 47.9875 81.88 48.3609 81.88C48.4995 81.88 48.6489 81.864 48.8089 81.832C48.9689 81.8 49.1129 81.752 49.2409 81.688L49.2889 82.92C49.1075 82.984 48.9049 83.032 48.6809 83.064C48.4675 83.1067 48.2435 83.128 48.0089 83.128C47.2942 83.128 46.7449 82.9307 46.3609 82.536C45.9875 82.1413 45.8009 81.5493 45.8009 80.76V76.648H44.3449V75.416H45.8009V73.24H47.2889V75.416H49.3049V76.648Z" fill="#C3C7BE"/>
<defs>
<clipPath id="clip0_2650_52974">
<rect width="58" height="58" fill="white"/>
</clipPath>
</defs>
</svg>
