<svg width="58" height="89" viewBox="0 0 58 89" fill="none" xmlns="http://www.w3.org/2000/svg">
<path d="M47.8056 31.9218C45.9823 31.9298 44.4032 32.3695 43.0846 33.0207C42.6043 32.0518 42.1077 31.2054 42.0263 30.5706C41.9288 29.8297 41.8228 29.3903 41.9369 28.5112C42.0509 27.6319 42.5635 26.3865 42.5555 26.2971C42.5475 26.2076 42.4415 25.7598 41.3915 25.7517C40.3415 25.7436 39.4381 25.9551 39.3322 26.2319C39.2262 26.5086 39.0229 27.1355 38.9008 27.7867C38.7136 28.739 36.8006 32.1415 35.718 33.916C35.3599 33.2243 35.0588 32.6136 34.9935 32.1252C34.8959 31.3844 34.7901 30.945 34.904 30.0659C35.018 29.1866 35.5307 27.9412 35.5226 27.8518C35.5144 27.7623 35.4086 27.3145 34.3587 27.3064C33.3086 27.2983 32.4053 27.5098 32.2992 27.7867C32.1934 28.0633 32.0795 28.7146 31.8679 29.3416C31.6564 29.968 29.1085 35.6333 28.441 37.1068C28.099 37.8554 27.8062 38.4579 27.5944 38.865C27.562 38.93 27.5376 38.9708 27.5213 39.0034C27.5456 38.9628 27.5621 38.9219 27.5621 38.9384C27.383 39.2882 27.277 39.4836 27.277 39.4836V39.4917C27.1386 39.7521 26.984 39.9881 26.9108 39.9881C26.8619 39.9881 26.7562 39.3045 26.9353 38.3684C27.3177 36.3985 28.2212 33.3382 28.2131 33.2322C28.2049 33.1752 28.3839 32.6462 27.6188 32.3612C26.8782 32.0926 26.6095 32.5404 26.5444 32.5404C26.4794 32.5404 26.4305 32.7033 26.4305 32.7033C26.4305 32.7033 27.2527 29.252 24.8513 29.252C23.3537 29.252 21.27 30.8964 20.2444 32.3859C19.6013 32.7359 18.2093 33.4929 16.7443 34.2986C16.1826 34.608 15.6046 34.9253 15.0593 35.2266C15.0186 35.1857 14.986 35.1451 14.9454 35.1044C12.0313 31.9952 6.6509 29.7974 6.87893 25.6215C6.96027 24.0994 7.48941 20.1029 17.2246 15.2515C25.2016 11.2793 31.5831 12.3701 32.6821 14.7957C34.2611 18.2552 29.2714 24.6938 20.9852 25.6215C17.8269 25.9716 16.1665 24.7506 15.7513 24.2949C15.3199 23.8147 15.2547 23.7901 15.0919 23.8797C14.8232 24.0262 14.9943 24.4495 15.0919 24.7018C15.3362 25.3448 16.3536 26.4844 18.0874 27.0542C19.6094 27.5507 23.3131 27.8276 27.7899 26.0937C32.8202 24.1563 36.7356 18.7596 35.5878 14.2422C34.4158 9.65148 26.8051 8.14552 19.6014 10.7014C15.3118 12.2235 10.6722 14.6167 7.33478 17.7341C3.37073 21.446 2.7359 24.6773 2.99622 26.0287C3.92422 30.8228 10.5336 33.9486 13.1791 36.2602C13.0488 36.3335 12.9267 36.3986 12.8128 36.4638C11.4861 37.123 6.44756 39.7603 5.18583 42.5444C3.76155 45.7025 5.4218 47.9652 6.51258 48.2747C9.91499 49.2188 13.3988 47.5177 15.271 44.7256C17.143 41.9338 16.9152 38.2872 16.0525 36.6266C16.0442 36.6022 16.028 36.5861 16.0199 36.5614C16.3617 36.3581 16.7116 36.1545 17.0618 35.9511C17.7373 35.5522 18.3967 35.1857 18.9745 34.8686C18.6489 35.7477 18.4129 36.8054 18.2908 38.336C18.1443 40.1266 18.885 42.4465 19.8456 43.3582C20.2687 43.7571 20.7815 43.7653 21.099 43.7653C22.2223 43.7653 22.7269 42.8372 23.2885 41.7302C23.9804 40.3788 24.5909 38.8078 24.5909 38.8078C24.5909 38.8078 23.8258 43.0571 25.9177 43.0571C26.6828 43.0571 27.4481 42.0721 27.7897 41.5674V41.5755C27.7897 41.5755 27.8062 41.5431 27.8468 41.4781C27.9282 41.3558 27.9688 41.2825 27.9688 41.2825V41.258C28.2781 40.7289 28.9538 39.516 29.9711 37.5138C31.2899 34.9252 32.5514 31.6936 32.5514 31.6936C32.5514 31.6936 32.6654 32.4834 33.0563 33.7939C33.2841 34.5671 33.7643 35.4137 34.1469 36.2359C33.8377 36.6591 33.6504 36.9033 33.6504 36.9033C33.6504 36.9033 33.6504 36.9114 33.6583 36.9195C33.4142 37.2453 33.1375 37.5954 32.8526 37.9372C31.8107 39.1744 30.5734 40.5908 30.4107 40.9978C30.2152 41.4781 30.2641 41.8359 30.6387 42.1129C30.9153 42.3246 31.4038 42.357 31.9165 42.3165C32.8526 42.2511 33.5119 42.0234 33.8293 41.8766C34.3339 41.6978 34.9201 41.4127 35.4736 41.014C36.4911 40.2653 37.1098 39.1908 37.0526 37.7745C37.0201 36.993 36.7676 36.2115 36.4584 35.4791C36.548 35.3488 36.6457 35.2102 36.7352 35.0721C38.3471 32.7194 39.5924 30.1394 39.5924 30.1394C39.5924 30.1394 39.7064 30.9288 40.097 32.2393C40.2924 32.8987 40.6749 33.6231 41.0248 34.3312C39.5108 35.5604 38.5749 36.985 38.2492 37.9208C37.6468 39.6547 38.119 40.4359 39.0062 40.6153C39.405 40.6967 39.9748 40.5093 40.3982 40.3302C40.9272 40.1511 41.5621 39.8662 42.1563 39.4267C43.1738 38.678 44.1588 37.6278 44.0938 36.2034C44.0692 35.5603 43.8902 34.9173 43.6541 34.2986C44.9319 33.7616 46.5927 33.4683 48.7089 33.7126C53.2428 34.2417 54.1299 37.0743 53.959 38.2544C53.7882 39.443 52.8359 40.0942 52.5184 40.2895C52.2007 40.4849 52.1032 40.5582 52.1278 40.7047C52.1683 40.9163 52.3148 40.9083 52.5834 40.8592C52.958 40.7942 54.9603 39.8987 55.0496 37.7091C55.1801 34.9415 52.5186 31.8974 47.8056 31.9218ZM12.8617 43.7C11.3641 45.3361 9.26396 45.9547 8.36054 45.4337C7.39187 44.8723 7.77442 42.4628 9.62215 40.7208C10.7455 39.6627 12.1943 38.686 13.1548 38.0837C13.3746 37.9535 13.6921 37.7581 14.0828 37.5221C14.148 37.4816 14.1805 37.4652 14.1805 37.4652C14.2537 37.4161 14.3351 37.3756 14.4166 37.3267C15.0919 39.8012 14.4408 41.9825 12.8617 43.7ZM23.8016 36.2602C23.2806 37.538 22.1816 40.7941 21.5144 40.6231C20.9446 40.4765 20.5945 37.994 21.4005 35.5522C21.8074 34.323 22.6701 32.8579 23.1831 32.2882C24.005 31.3683 24.9086 31.0752 25.1203 31.4416C25.4051 31.9218 24.127 35.4626 23.8016 36.2602ZM32.8365 40.5745C32.6169 40.6884 32.4133 40.7616 32.3157 40.7046C32.2425 40.6639 32.4053 40.5092 32.4053 40.5092C32.4053 40.5092 33.5365 39.2964 33.9843 38.7427C34.2447 38.4172 34.5458 38.0345 34.8715 37.6114C34.8715 37.6519 34.8795 37.6929 34.8795 37.7415C34.8716 39.1987 33.4716 40.1838 32.8365 40.5745ZM39.8044 38.9871C39.6416 38.8732 39.6658 38.4906 40.2113 37.3021C40.423 36.8381 40.9115 36.0568 41.7578 35.3079C41.8555 35.6171 41.9124 35.9101 41.9124 36.1868C41.9041 38.0183 40.5938 38.7021 39.8044 38.9871Z" fill="#C3C7BE"/>
<path d="M18.008 73.768C17.784 73.4587 17.48 73.208 17.096 73.016C16.712 72.8133 16.28 72.712 15.8 72.712C15.544 72.712 15.2827 72.7493 15.016 72.824C14.76 72.888 14.5253 73 14.312 73.16C14.0987 73.3093 13.9227 73.5013 13.784 73.736C13.656 73.96 13.592 74.232 13.592 74.552C13.592 74.8613 13.6507 75.1227 13.768 75.336C13.896 75.5387 14.0613 75.7147 14.264 75.864C14.4773 76.0027 14.7227 76.1253 15 76.232C15.288 76.328 15.592 76.4293 15.912 76.536C16.296 76.6533 16.6853 76.7867 17.08 76.936C17.4747 77.0853 17.832 77.2827 18.152 77.528C18.472 77.7733 18.7333 78.0827 18.936 78.456C19.1387 78.8187 19.24 79.2827 19.24 79.848C19.24 80.4347 19.128 80.9467 18.904 81.384C18.6907 81.8107 18.4027 82.168 18.04 82.456C17.6773 82.7333 17.256 82.9413 16.776 83.08C16.3067 83.2187 15.8213 83.288 15.32 83.288C14.6053 83.288 13.912 83.1493 13.24 82.872C12.5787 82.5947 12.0293 82.184 11.592 81.64L12.824 80.6C13.0907 80.9947 13.448 81.3147 13.896 81.56C14.344 81.8053 14.8293 81.928 15.352 81.928C15.6187 81.928 15.8853 81.8907 16.152 81.816C16.4187 81.7413 16.6587 81.624 16.872 81.464C17.096 81.304 17.2773 81.1067 17.416 80.872C17.5547 80.6267 17.624 80.3333 17.624 79.992C17.624 79.6507 17.5493 79.368 17.4 79.144C17.2613 78.9093 17.0693 78.712 16.824 78.552C16.5787 78.392 16.2907 78.2587 15.96 78.152C15.64 78.0347 15.2987 77.9173 14.936 77.8C14.5733 77.6933 14.216 77.5653 13.864 77.416C13.512 77.256 13.1973 77.0587 12.92 76.824C12.6427 76.5787 12.4187 76.28 12.248 75.928C12.0773 75.576 11.992 75.1387 11.992 74.616C11.992 74.0507 12.104 73.5653 12.328 73.16C12.5627 72.7547 12.8613 72.4187 13.224 72.152C13.5973 71.8853 14.0133 71.6933 14.472 71.576C14.9413 71.448 15.4107 71.384 15.88 71.384C16.5413 71.384 17.16 71.5013 17.736 71.736C18.312 71.9707 18.776 72.2853 19.128 72.68L18.008 73.768ZM26.1254 78.088C26.1254 77.5227 25.9547 77.1067 25.6134 76.84C25.272 76.5627 24.8187 76.424 24.2534 76.424C23.8267 76.424 23.4214 76.5093 23.0374 76.68C22.664 76.84 22.3494 77.048 22.0934 77.304L21.2934 76.344C21.6667 75.992 22.12 75.7147 22.6534 75.512C23.1974 75.3093 23.7787 75.208 24.3974 75.208C24.9414 75.208 25.4107 75.288 25.8054 75.448C26.2107 75.5973 26.5414 75.8053 26.7974 76.072C27.0534 76.3387 27.2454 76.6533 27.3734 77.016C27.5014 77.3787 27.5654 77.768 27.5654 78.184V81.496C27.5654 81.752 27.5707 82.024 27.5814 82.312C27.6027 82.5893 27.6347 82.8187 27.6774 83H26.3174C26.232 82.6373 26.1894 82.2747 26.1894 81.912H26.1414C25.864 82.3173 25.512 82.632 25.0854 82.856C24.6694 83.08 24.1734 83.192 23.5974 83.192C23.2987 83.192 22.984 83.1493 22.6534 83.064C22.3334 82.9893 22.04 82.8613 21.7734 82.68C21.5067 82.4987 21.2827 82.2587 21.1014 81.96C20.9307 81.6613 20.8454 81.2933 20.8454 80.856C20.8454 80.28 21 79.8267 21.3094 79.496C21.6187 79.1547 22.024 78.8987 22.5254 78.728C23.0267 78.5467 23.592 78.4293 24.2214 78.376C24.8507 78.3227 25.4854 78.296 26.1254 78.296V78.088ZM25.7574 79.384C25.384 79.384 24.9947 79.4 24.5894 79.432C24.1947 79.464 23.832 79.528 23.5014 79.624C23.1814 79.72 22.9147 79.864 22.7014 80.056C22.488 80.248 22.3814 80.504 22.3814 80.824C22.3814 81.048 22.424 81.2347 22.5094 81.384C22.6054 81.5333 22.728 81.656 22.8774 81.752C23.0267 81.848 23.192 81.9173 23.3734 81.96C23.5547 81.992 23.7414 82.008 23.9334 82.008C24.6374 82.008 25.176 81.8 25.5494 81.384C25.9334 80.9573 26.1254 80.424 26.1254 79.784V79.384H25.7574ZM34.1733 77.336C34.0026 77.0587 33.7626 76.8347 33.4533 76.664C33.1439 76.4827 32.7973 76.392 32.4133 76.392C32.2426 76.392 32.0719 76.4133 31.9013 76.456C31.7306 76.488 31.5759 76.5467 31.4373 76.632C31.3093 76.7067 31.2026 76.808 31.1173 76.936C31.0426 77.0533 31.0053 77.2027 31.0053 77.384C31.0053 77.704 31.1493 77.944 31.4373 78.104C31.7253 78.2533 32.1573 78.392 32.7333 78.52C33.0959 78.6053 33.4319 78.7067 33.7413 78.824C34.0506 78.9413 34.3173 79.0907 34.5413 79.272C34.7759 79.4427 34.9573 79.6507 35.0853 79.896C35.2133 80.1413 35.2773 80.4293 35.2773 80.76C35.2773 81.208 35.1919 81.5867 35.0213 81.896C34.8506 82.2053 34.6213 82.4613 34.3333 82.664C34.0559 82.856 33.7359 82.9947 33.3733 83.08C33.0106 83.1653 32.6373 83.208 32.2533 83.208C31.6773 83.208 31.1119 83.096 30.5573 82.872C30.0133 82.648 29.5599 82.3067 29.1973 81.848L30.2693 80.936C30.4719 81.2347 30.7493 81.4853 31.1013 81.688C31.4639 81.8907 31.8586 81.992 32.2853 81.992C32.4773 81.992 32.6586 81.976 32.8293 81.944C33.0106 81.9013 33.1706 81.8373 33.3093 81.752C33.4586 81.6667 33.5759 81.5547 33.6613 81.416C33.7466 81.2773 33.7893 81.1013 33.7893 80.888C33.7893 80.536 33.6186 80.2747 33.2773 80.104C32.9466 79.9333 32.4559 79.7733 31.8053 79.624C31.5493 79.56 31.2879 79.4853 31.0213 79.4C30.7653 79.304 30.5306 79.176 30.3173 79.016C30.1039 78.856 29.9279 78.6587 29.7893 78.424C29.6613 78.1787 29.5973 77.88 29.5973 77.528C29.5973 77.1227 29.6773 76.776 29.8372 76.488C30.0079 76.1893 30.2266 75.9493 30.4933 75.768C30.7599 75.576 31.0639 75.4373 31.4053 75.352C31.7466 75.256 32.0986 75.208 32.4613 75.208C33.0053 75.208 33.5279 75.3147 34.0293 75.528C34.5413 75.7413 34.9359 76.0507 35.2133 76.456L34.1733 77.336ZM41.2826 77.336C41.112 77.0587 40.872 76.8347 40.5626 76.664C40.2533 76.4827 39.9066 76.392 39.5226 76.392C39.352 76.392 39.1813 76.4133 39.0106 76.456C38.84 76.488 38.6853 76.5467 38.5466 76.632C38.4186 76.7067 38.312 76.808 38.2266 76.936C38.152 77.0533 38.1146 77.2027 38.1146 77.384C38.1146 77.704 38.2586 77.944 38.5466 78.104C38.8346 78.2533 39.2666 78.392 39.8426 78.52C40.2053 78.6053 40.5413 78.7067 40.8506 78.824C41.16 78.9413 41.4266 79.0907 41.6506 79.272C41.8853 79.4427 42.0666 79.6507 42.1946 79.896C42.3226 80.1413 42.3866 80.4293 42.3866 80.76C42.3866 81.208 42.3013 81.5867 42.1306 81.896C41.96 82.2053 41.7306 82.4613 41.4426 82.664C41.1653 82.856 40.8453 82.9947 40.4826 83.08C40.12 83.1653 39.7466 83.208 39.3626 83.208C38.7866 83.208 38.2213 83.096 37.6666 82.872C37.1226 82.648 36.6693 82.3067 36.3066 81.848L37.3786 80.936C37.5813 81.2347 37.8586 81.4853 38.2106 81.688C38.5733 81.8907 38.968 81.992 39.3946 81.992C39.5866 81.992 39.768 81.976 39.9386 81.944C40.12 81.9013 40.28 81.8373 40.4186 81.752C40.568 81.6667 40.6853 81.5547 40.7706 81.416C40.856 81.2773 40.8986 81.1013 40.8986 80.888C40.8986 80.536 40.728 80.2747 40.3866 80.104C40.056 79.9333 39.5653 79.7733 38.9146 79.624C38.6586 79.56 38.3973 79.4853 38.1306 79.4C37.8746 79.304 37.64 79.176 37.4266 79.016C37.2133 78.856 37.0373 78.6587 36.8986 78.424C36.7706 78.1787 36.7066 77.88 36.7066 77.528C36.7066 77.1227 36.7866 76.776 36.9466 76.488C37.1173 76.1893 37.336 75.9493 37.6026 75.768C37.8693 75.576 38.1733 75.4373 38.5146 75.352C38.856 75.256 39.208 75.208 39.5706 75.208C40.1146 75.208 40.6373 75.3147 41.1386 75.528C41.6506 75.7413 42.0453 76.0507 42.3226 76.456L41.2826 77.336Z" fill="#C3C7BE"/>
</svg>
