<svg width="640" height="560" viewBox="0 0 640 560" fill="none" xmlns="http://www.w3.org/2000/svg">
<g clip-path="url(#clip0_3064_60461)">
<path d="M569.631 440.873H69.6208V122.313C69.6208 111.944 77.6291 103.877 87.9279 103.877H551.318C561.623 103.877 569.631 111.944 569.631 122.313V440.873Z" fill="#102030"/>
<path d="M444.92 457.579H85.0667V122.312H551.879V457.579H496.997" fill="white"/>
<path d="M537.654 135.31V418.231C537.654 425.552 532.198 431.15 525.066 431.15H102.219C95.0882 431.15 89.636 425.552 89.636 418.231V135.31C89.636 127.993 95.0882 122.391 102.219 122.391H525.066C532.198 122.391 537.654 127.993 537.654 135.31Z" fill="white"/>
<path d="M99.456 140.349C101.585 140.349 103.311 138.619 103.311 136.485C103.311 134.351 101.585 132.621 99.456 132.621C97.3269 132.621 95.601 134.351 95.601 136.485C95.601 138.619 97.3269 140.349 99.456 140.349Z" fill="#FDFDFD"/>
<path opacity="0.6" d="M111.021 140.349C113.15 140.349 114.876 138.619 114.876 136.485C114.876 134.351 113.15 132.621 111.021 132.621C108.892 132.621 107.166 134.351 107.166 136.485C107.166 138.619 108.892 140.349 111.021 140.349Z" fill="#FDFDFD"/>
<path opacity="0.4" d="M122.586 140.349C124.715 140.349 126.441 138.619 126.441 136.485C126.441 134.351 124.715 132.621 122.586 132.621C120.457 132.621 118.731 134.351 118.731 136.485C118.731 138.619 120.457 140.349 122.586 140.349Z" fill="#FDFDFD"/>
<path d="M397.49 411.137H222.5C218.252 411.137 214.855 407.717 214.855 403.44V181.425C214.855 177.148 218.252 173.724 222.5 173.724H397.49C401.738 173.724 405.134 177.148 405.134 181.425V403.44C405.134 407.717 401.738 411.137 397.49 411.137Z" fill="#E6EDF5"/>
<path d="M380.925 350.824H240.765C237.365 350.824 234.817 348.258 234.817 344.834V255.003C234.817 251.579 237.365 249.014 240.765 249.014H380.501C383.897 249.014 386.449 251.579 386.449 255.003V344.834C386.873 348.258 384.325 350.824 380.925 350.824Z" fill="white"/>
<path d="M316.789 337.135H251.805L284.511 300.347L316.789 337.135Z" fill="#CED7E2"/>
<path d="M369.884 337.138H276.867L323.586 284.092L369.884 337.138Z" fill="#E6EDF5"/>
<path d="M276.443 286.657C283.243 286.657 288.759 281.104 288.759 274.253C288.759 267.401 283.243 261.848 276.443 261.848C269.638 261.848 264.122 267.401 264.122 274.253C264.122 281.104 269.638 286.657 276.443 286.657Z" fill="#CED7E2"/>
<path d="M513.869 407.72H427.648C425.524 407.72 423.823 406.008 423.823 403.871V348.259C423.823 346.118 425.524 344.41 427.648 344.41H513.869C515.993 344.41 517.689 346.118 517.689 348.259V403.871C517.689 406.008 515.993 407.72 513.869 407.72Z" fill="#E6EDF5"/>
<path d="M473.942 399.164H434.444L454.405 376.492L473.942 399.164Z" fill="#CED7E2"/>
<path d="M507.072 399.162H449.733L478.19 366.651L507.072 399.162Z" fill="white"/>
<path d="M449.309 368.364C453.53 368.364 456.953 364.917 456.953 360.663C456.953 356.412 453.53 352.965 449.309 352.965C445.088 352.965 441.664 356.412 441.664 360.663C441.664 364.917 445.088 368.364 449.309 368.364Z" fill="#CED7E2"/>
<path d="M513.869 324.302H427.648C425.524 324.302 423.823 322.59 423.823 320.453V264.841C423.823 262.7 425.524 260.992 427.648 260.992H513.869C515.993 260.992 517.689 262.7 517.689 264.841V320.453C517.689 322.59 515.993 324.302 513.869 324.302Z" fill="#E6EDF5"/>
<path d="M473.942 315.747H434.444L454.405 293.075L473.942 315.747Z" fill="#CED7E2"/>
<path d="M507.072 315.746H449.733L478.19 282.806L507.072 315.746Z" fill="white"/>
<path d="M449.309 284.519C453.53 284.519 456.953 281.072 456.953 276.817C456.953 272.567 453.53 269.12 449.309 269.12C445.088 269.12 441.664 272.567 441.664 276.817C441.664 281.072 445.088 284.519 449.309 284.519Z" fill="#CED7E2"/>
<path d="M513.869 240.46H427.648C425.524 240.46 423.823 238.748 423.823 236.611V180.999C423.823 178.862 425.524 177.15 427.648 177.15H513.869C515.993 177.15 517.689 178.862 517.689 180.999V236.611C517.689 238.748 515.993 240.46 513.869 240.46Z" fill="#E6EDF5"/>
<path d="M473.942 231.901H434.444L454.405 209.229L473.942 231.901Z" fill="#CED7E2"/>
<path d="M507.072 231.903H449.733L478.19 199.392L507.072 231.903Z" fill="white"/>
<path d="M449.309 201.105C453.53 201.105 456.953 197.658 456.953 193.403C456.953 189.153 453.53 185.706 449.309 185.706C445.088 185.706 441.664 189.153 441.664 193.403C441.664 197.658 445.088 201.105 449.309 201.105Z" fill="#CED7E2"/>
<path d="M385.173 197.255H236.94C235.24 197.255 234.392 195.968 234.392 194.685C234.392 192.977 235.664 192.12 236.94 192.12H384.749C386.449 192.12 387.297 193.402 387.297 194.685C387.721 195.968 386.449 197.255 385.173 197.255Z" fill="white"/>
<path d="M385.173 212.655H236.94C235.24 212.655 234.392 211.372 234.392 210.089C234.392 208.377 235.664 207.519 236.94 207.519H384.749C386.449 207.519 387.297 208.802 387.297 210.089C387.721 211.372 386.449 212.655 385.173 212.655Z" fill="white"/>
<path d="M343.55 373.925H236.94C235.24 373.925 234.392 372.642 234.392 371.359C234.392 369.647 235.664 368.789 236.94 368.789H343.55C345.246 368.789 346.098 370.072 346.098 371.359C346.098 372.642 344.822 373.925 343.55 373.925Z" fill="#E6EDF5"/>
<path d="M311.693 229.336H236.94C235.24 229.336 234.392 228.053 234.392 226.77C234.392 225.059 235.664 224.205 236.94 224.205H311.269C312.969 224.205 313.817 225.487 313.817 226.77C314.241 228.053 312.969 229.336 311.693 229.336Z" fill="url(#paint0_linear_3064_60461)"/>
<path d="M385.173 389.752H236.94C235.24 389.752 234.392 388.465 234.392 387.182C234.392 385.474 235.664 384.617 236.94 384.617H384.749C386.449 384.617 387.297 385.899 387.297 387.182C387.721 388.465 386.449 389.752 385.173 389.752Z" fill="#E6EDF5"/>
<path d="M385.173 373.925H356.291C354.591 373.925 353.743 372.642 353.743 371.359C353.743 369.647 355.015 368.789 356.291 368.789H385.173C386.873 368.789 387.721 370.072 387.721 371.359C387.721 372.642 386.449 373.925 385.173 373.925Z" fill="url(#paint1_linear_3064_60461)"/>
<path d="M190.646 409.855H109.521C104.425 409.855 100.6 406.006 100.6 400.874V181.426C100.6 176.29 104.425 172.441 109.521 172.441H190.218C195.318 172.441 199.138 176.29 199.138 181.426V400.874C199.562 406.006 195.318 409.855 190.646 409.855Z" fill="#1C3754"/>
<path d="M150.296 202.386C155.689 202.386 160.064 197.981 160.064 192.548C160.064 187.114 155.689 182.709 150.296 182.709C144.899 182.709 140.527 187.114 140.527 192.548C140.527 197.981 144.899 202.386 150.296 202.386Z" fill="white"/>
<path d="M181.301 214.366H119.29C118.438 214.366 117.589 213.508 117.589 212.654C117.589 211.796 118.438 210.942 119.29 210.942H181.301C182.149 210.942 182.997 211.796 182.997 212.654C182.997 213.508 182.149 214.366 181.301 214.366Z" fill="white"/>
<path d="M181.301 227.625H119.29C118.438 227.625 117.589 226.77 117.589 225.913C117.589 225.059 118.438 224.205 119.29 224.205H181.301C182.149 224.205 182.997 225.059 182.997 225.913C182.997 226.77 182.149 227.625 181.301 227.625Z" fill="white"/>
<path d="M181.301 250.297H119.29C118.438 250.297 117.589 249.443 117.589 248.586C117.589 247.303 118.014 246.448 119.29 246.448H181.301C182.149 246.448 182.997 247.303 182.997 248.16C182.997 249.443 182.149 250.297 181.301 250.297Z" fill="white"/>
<path d="M141.799 263.56H118.438C118.014 263.56 117.166 263.131 117.166 262.277V260.99C117.166 260.565 117.59 259.707 118.438 259.707H141.375C141.799 259.707 142.651 260.136 142.651 260.99V262.277C142.651 263.131 142.223 263.56 141.799 263.56Z" fill="white"/>
<path d="M181.301 287.084H119.29C118.438 287.084 117.589 286.23 117.589 285.372C117.589 284.518 118.438 283.664 119.29 283.664H181.301C182.149 283.664 182.997 284.518 182.997 285.372C182.997 286.23 182.149 287.084 181.301 287.084Z" fill="white"/>
<path d="M141.799 300.348H118.438C118.014 300.348 117.166 299.919 117.166 299.065V297.782C117.166 297.353 117.59 296.495 118.438 296.495H141.375C141.799 296.495 142.651 296.924 142.651 297.782V299.065C142.651 299.919 142.223 300.348 141.799 300.348Z" fill="white"/>
<path d="M181.301 323.875H119.29C118.438 323.875 117.589 323.021 117.589 322.163C117.589 321.309 118.438 320.455 119.29 320.455H181.301C182.149 320.455 182.997 321.309 182.997 322.163C182.997 323.446 182.149 323.875 181.301 323.875Z" fill="white"/>
<path d="M141.799 337.137H118.438C118.014 337.137 117.166 336.708 117.166 335.854V334.571C117.166 334.142 117.59 333.284 118.438 333.284H141.375C141.799 333.284 142.651 333.713 142.651 334.571V336.279C142.651 336.708 142.223 337.137 141.799 337.137Z" fill="url(#paint2_linear_3064_60461)"/>
<path d="M598.248 440.873V455.278C598.248 468.526 586.824 471.985 573.047 471.985H66.1877C52.456 471.985 41.0148 469.105 41.0148 455.278V440.873H270.428C272.147 446.06 277.865 450.091 284.16 450.091H355.098C361.392 450.091 366.545 446.06 368.829 440.873H598.248Z" fill="#102030"/>
<path d="M598.248 440.873C598.248 454.127 586.824 457.007 573.047 457.007H66.1877C52.456 457.007 41.0148 454.127 41.0148 440.873H270.428C272.147 446.06 277.865 450.091 284.16 450.091H355.098C361.392 450.091 366.545 446.06 368.829 440.873H598.248Z" fill="#172D45"/>
<path d="M101.099 144.091C104.039 144.091 106.423 141.693 106.423 138.737C106.423 135.786 104.039 133.387 101.099 133.387C98.1584 133.387 95.7745 135.786 95.7745 138.737C95.7745 141.693 98.1584 144.091 101.099 144.091Z" fill="#FD724F"/>
<path d="M118.304 144.091C121.245 144.091 123.628 141.693 123.628 138.737C123.628 135.786 121.245 133.387 118.304 133.387C115.364 133.387 112.98 135.786 112.98 138.737C112.98 141.693 115.364 144.091 118.304 144.091Z" fill="#FFCB00"/>
<path d="M135.504 144.091C138.449 144.091 140.833 141.693 140.833 138.737C140.833 135.786 138.449 133.387 135.504 133.387C132.564 133.387 130.18 135.786 130.18 138.737C130.18 141.693 132.564 144.091 135.504 144.091Z" fill="#7ED171"/>
<path d="M423.512 136.392C423.512 147.397 418.783 157.295 411.508 164.253C404.962 170.482 395.866 174.151 386.046 174.151C386.046 174.151 383.862 174.151 334.755 174.151C332.938 174.151 331.118 174.151 329.301 174.151C326.389 174.151 323.117 174.151 320.206 174.151H261.281C236.181 174.878 216.537 154.702 216.537 130.51C216.537 106.317 236.181 86.1727 261.281 86.9H261.643C264.189 79.2154 267.464 72.2581 271.827 66.7555C271.827 66.7555 271.827 66.7555 271.827 66.376C279.468 56.1298 289.652 48.7931 300.927 44.7452C301.293 44.3973 302.018 44.3974 302.384 44.0179C317.297 38.8948 334.03 39.2426 348.942 44.7452C370.041 52.8094 387.137 71.1511 390.774 98.6325C409.325 101.574 423.512 117.323 423.512 136.392Z" fill="url(#paint3_linear_3064_60461)"/>
<path d="M308.397 111.724C309.851 110.237 309.851 108.055 308.397 106.6C306.939 105.114 305.122 105.494 302.939 105.494C309.485 88.638 331.313 84.9698 342.588 98.5365C346.954 103.28 353.863 97.0499 349.863 92.3063C337.859 78.3601 316.763 76.5261 302.939 88.6382C297.847 93.0339 294.21 98.8843 292.389 105.494C287.66 105.494 286.935 105.494 285.843 106.6C284.389 108.055 284.389 110.237 285.843 111.724C299.301 124.911 295.664 124.911 308.397 111.724Z" fill="white"/>
<path d="M365.505 120.136L357.138 111.724C355.684 110.238 353.501 110.238 352.047 111.724L343.68 120.136C342.226 121.623 342.226 123.805 343.68 125.291C345.135 126.746 346.955 126.366 349.135 126.366C342.589 143.601 320.035 146.922 308.76 132.628C306.94 130.414 304.031 130.034 301.848 131.869C294.573 138.099 311.669 151.318 326.947 151.318C341.86 151.318 355.318 141.04 358.959 126.366C363.685 126.366 364.413 126.366 365.505 125.291C366.959 124.184 366.959 121.97 365.505 120.136Z" fill="white"/>
</g>
<defs>
<linearGradient id="paint0_linear_3064_60461" x1="313.113" y1="227.446" x2="254.866" y2="192.505" gradientUnits="userSpaceOnUse">
<stop stop-color="#20C3F9"/>
<stop offset="1" stop-color="#F19E43"/>
</linearGradient>
<linearGradient id="paint1_linear_3064_60461" x1="387.385" y1="372.033" x2="355.62" y2="363.896" gradientUnits="userSpaceOnUse">
<stop stop-color="#20C3F9"/>
<stop offset="1" stop-color="#F19E43"/>
</linearGradient>
<linearGradient id="paint2_linear_3064_60461" x1="142.399" y1="335.717" x2="118.573" y2="329.615" gradientUnits="userSpaceOnUse">
<stop stop-color="#20C3F9"/>
<stop offset="1" stop-color="#F19E43"/>
</linearGradient>
<linearGradient id="paint3_linear_3064_60461" x1="421.462" y1="124.881" x2="216.008" y2="112.574" gradientUnits="userSpaceOnUse">
<stop stop-color="#20C3F9"/>
<stop offset="1" stop-color="#F19E43"/>
</linearGradient>
<clipPath id="clip0_3064_60461">
<rect width="640" height="560" fill="white"/>
</clipPath>
</defs>
</svg>
