<svg width="56" height="83" viewBox="0 0 56 83" fill="none" xmlns="http://www.w3.org/2000/svg">
<g clip-path="url(#clip0_2650_53029)">
<path d="M33.3965 43.9615L47.2271 41.0997C47.2271 41.0997 42.2361 8.80917 42.1959 8.59467C42.1614 8.382 41.9774 8.24267 41.7915 8.24267C41.6055 8.24267 38.0942 7.99333 38.0942 7.99333C38.0942 7.99333 35.6505 5.65767 35.3361 5.4065C35.2499 5.33867 35.1924 5.302 35.1042 5.27083L33.3524 43.9615H33.3965ZM26.4447 20.7258C26.4447 20.7258 24.8922 19.9485 23.0445 19.9485C20.2711 19.9485 20.1619 21.6095 20.1619 22.0403C20.1619 24.299 26.3719 25.1845 26.3719 30.5268C26.3719 34.7343 23.6119 37.4202 19.8437 37.4202C15.3319 37.4202 13.0587 34.7343 13.0587 34.7343L14.2969 30.91C14.2969 30.91 16.6831 32.8643 18.6669 32.8643C19.9606 32.8643 20.5356 31.8652 20.5356 31.1557C20.5356 28.1875 15.4488 28.05 15.4488 23.1642C15.3836 19.063 18.4599 15.0682 24.7005 15.0682C27.1098 15.0682 28.2943 15.73 28.2943 15.73L26.483 20.7075L26.4447 20.7258ZM25.4097 1.52167C25.6704 1.52167 25.9291 1.59133 26.186 1.76917C24.3 2.62167 22.23 4.774 21.379 9.08783C20.1216 9.47833 18.9007 9.83033 17.7584 10.1475C18.7531 6.875 21.1566 1.54 25.4097 1.54V1.52167ZM27.7768 6.92817V7.17567C26.3316 7.601 24.7427 8.063 23.1883 8.525C24.0815 5.26717 25.7432 3.67583 27.1845 3.07817C27.5545 3.99667 27.7768 5.23417 27.7768 6.92817ZM28.8099 2.8325C30.14 2.96817 30.9968 4.422 31.5488 6.05C30.8799 6.259 30.14 6.4735 29.3293 6.721V6.259C29.3293 4.88033 29.1453 3.7455 28.8099 2.82883V2.8325ZM34.5445 5.19567C34.5062 5.19567 34.4295 5.23417 34.395 5.23417C34.3605 5.23417 33.8411 5.37167 33.0265 5.61917C32.2158 3.35867 30.7725 1.27417 28.2195 1.27417H27.9991C27.2593 0.383167 26.3661 0 25.5918 0C19.6386 0 16.7943 7.10783 15.903 10.7177C13.6145 11.3868 11.949 11.8837 11.763 11.9533C10.4693 12.3438 10.4329 12.3787 10.2834 13.5483C10.1396 14.3953 6.77588 39.3305 6.77588 39.3305L32.7678 44L34.5445 5.19567Z" fill="#C3C7BE"/>
</g>
<path d="M7.008 67.768C6.784 67.4587 6.48 67.208 6.096 67.016C5.712 66.8133 5.28 66.712 4.8 66.712C4.544 66.712 4.28267 66.7493 4.016 66.824C3.76 66.888 3.52533 67 3.312 67.16C3.09867 67.3093 2.92267 67.5013 2.784 67.736C2.656 67.96 2.592 68.232 2.592 68.552C2.592 68.8613 2.65067 69.1227 2.768 69.336C2.896 69.5387 3.06133 69.7147 3.264 69.864C3.47733 70.0027 3.72267 70.1253 4 70.232C4.288 70.328 4.592 70.4293 4.912 70.536C5.296 70.6533 5.68533 70.7867 6.08 70.936C6.47467 71.0853 6.832 71.2827 7.152 71.528C7.472 71.7733 7.73333 72.0827 7.936 72.456C8.13867 72.8187 8.24 73.2827 8.24 73.848C8.24 74.4347 8.128 74.9467 7.904 75.384C7.69067 75.8107 7.40267 76.168 7.04 76.456C6.67733 76.7333 6.256 76.9413 5.776 77.08C5.30667 77.2187 4.82133 77.288 4.32 77.288C3.60533 77.288 2.912 77.1493 2.24 76.872C1.57867 76.5947 1.02933 76.184 0.592 75.64L1.824 74.6C2.09067 74.9947 2.448 75.3147 2.896 75.56C3.344 75.8053 3.82933 75.928 4.352 75.928C4.61867 75.928 4.88533 75.8907 5.152 75.816C5.41867 75.7413 5.65867 75.624 5.872 75.464C6.096 75.304 6.27733 75.1067 6.416 74.872C6.55467 74.6267 6.624 74.3333 6.624 73.992C6.624 73.6507 6.54933 73.368 6.4 73.144C6.26133 72.9093 6.06933 72.712 5.824 72.552C5.57867 72.392 5.29067 72.2587 4.96 72.152C4.64 72.0347 4.29867 71.9173 3.936 71.8C3.57333 71.6933 3.216 71.5653 2.864 71.416C2.512 71.256 2.19733 71.0587 1.92 70.824C1.64267 70.5787 1.41867 70.28 1.248 69.928C1.07733 69.576 0.992 69.1387 0.992 68.616C0.992 68.0507 1.104 67.5653 1.328 67.16C1.56267 66.7547 1.86133 66.4187 2.224 66.152C2.59733 65.8853 3.01333 65.6933 3.472 65.576C3.94133 65.448 4.41067 65.384 4.88 65.384C5.54133 65.384 6.16 65.5013 6.736 65.736C7.312 65.9707 7.776 66.2853 8.128 66.68L7.008 67.768ZM11.9734 70.568C12.1547 70.1947 12.464 69.8747 12.9014 69.608C13.3387 69.3413 13.8294 69.208 14.3734 69.208C14.864 69.208 15.2854 69.2933 15.6374 69.464C15.9894 69.624 16.2827 69.8427 16.5174 70.12C16.752 70.3973 16.9227 70.7227 17.0294 71.096C17.1467 71.4693 17.2054 71.8693 17.2054 72.296V77H15.7014V72.808C15.7014 72.4987 15.6747 72.2053 15.6214 71.928C15.5787 71.6507 15.4934 71.4053 15.3654 71.192C15.2374 70.9787 15.0614 70.808 14.8374 70.68C14.624 70.552 14.3414 70.488 13.9894 70.488C13.392 70.488 12.9014 70.7173 12.5174 71.176C12.1334 71.624 11.9414 72.2267 11.9414 72.984V77H10.4374V64.904H11.9414V70.568H11.9734ZM27.4291 73.192C27.4291 73.7787 27.3225 74.3173 27.1091 74.808C26.9065 75.2987 26.6185 75.7253 26.2451 76.088C25.8825 76.44 25.4505 76.7173 24.9491 76.92C24.4478 77.112 23.9091 77.208 23.3331 77.208C22.7571 77.208 22.2185 77.112 21.7171 76.92C21.2158 76.7173 20.7838 76.44 20.4211 76.088C20.0585 75.7253 19.7705 75.2987 19.5571 74.808C19.3545 74.3173 19.2531 73.7787 19.2531 73.192C19.2531 72.6053 19.3545 72.072 19.5571 71.592C19.7705 71.1013 20.0585 70.68 20.4211 70.328C20.7838 69.976 21.2158 69.704 21.7171 69.512C22.2185 69.3093 22.7571 69.208 23.3331 69.208C23.9091 69.208 24.4478 69.3093 24.9491 69.512C25.4505 69.704 25.8825 69.976 26.2451 70.328C26.6185 70.68 26.9065 71.1013 27.1091 71.592C27.3225 72.072 27.4291 72.6053 27.4291 73.192ZM25.8611 73.192C25.8611 72.8293 25.8025 72.4827 25.6851 72.152C25.5785 71.8213 25.4185 71.5333 25.2051 71.288C24.9918 71.032 24.7251 70.8293 24.4051 70.68C24.0958 70.5307 23.7385 70.456 23.3331 70.456C22.9278 70.456 22.5651 70.5307 22.2451 70.68C21.9358 70.8293 21.6745 71.032 21.4611 71.288C21.2478 71.5333 21.0825 71.8213 20.9651 72.152C20.8585 72.4827 20.8051 72.8293 20.8051 73.192C20.8051 73.5547 20.8585 73.9013 20.9651 74.232C21.0825 74.5627 21.2478 74.856 21.4611 75.112C21.6745 75.368 21.9358 75.5707 22.2451 75.72C22.5651 75.8693 22.9278 75.944 23.3331 75.944C23.7385 75.944 24.0958 75.8693 24.4051 75.72C24.7251 75.5707 24.9918 75.368 25.2051 75.112C25.4185 74.856 25.5785 74.5627 25.6851 74.232C25.8025 73.9013 25.8611 73.5547 25.8611 73.192ZM31.0188 80.84H29.5148V69.416H30.9868V70.6H31.0348C31.2801 70.1947 31.6374 69.864 32.1068 69.608C32.5868 69.3413 33.1414 69.208 33.7708 69.208C34.3361 69.208 34.8481 69.3093 35.3068 69.512C35.7761 69.7147 36.1761 69.9973 36.5068 70.36C36.8481 70.7227 37.1094 71.1493 37.2908 71.64C37.4721 72.12 37.5628 72.6373 37.5628 73.192C37.5628 73.7467 37.4721 74.2693 37.2908 74.76C37.1094 75.2507 36.8534 75.6773 36.5228 76.04C36.1921 76.4027 35.7921 76.6907 35.3228 76.904C34.8534 77.1067 34.3254 77.208 33.7388 77.208C33.1948 77.208 32.6828 77.0907 32.2028 76.856C31.7228 76.6213 31.3441 76.2907 31.0668 75.864H31.0188V80.84ZM36.0108 73.192C36.0108 72.84 35.9574 72.4987 35.8508 72.168C35.7441 71.8373 35.5841 71.544 35.3708 71.288C35.1574 71.032 34.8908 70.8293 34.5708 70.68C34.2614 70.5307 33.8988 70.456 33.4828 70.456C33.0988 70.456 32.7468 70.5307 32.4268 70.68C32.1174 70.8293 31.8508 71.032 31.6268 71.288C31.4028 71.544 31.2268 71.8373 31.0988 72.168C30.9814 72.4987 30.9228 72.8453 30.9228 73.208C30.9228 73.5707 30.9814 73.9173 31.0988 74.248C31.2268 74.5787 31.4028 74.872 31.6268 75.128C31.8508 75.3733 32.1174 75.5707 32.4268 75.72C32.7468 75.8693 33.0988 75.944 33.4828 75.944C33.8988 75.944 34.2614 75.8693 34.5708 75.72C34.8908 75.56 35.1574 75.352 35.3708 75.096C35.5841 74.84 35.7441 74.5467 35.8508 74.216C35.9574 73.8853 36.0108 73.544 36.0108 73.192ZM41.1754 77H39.6714V69.416H41.1754V77ZM41.4314 66.68C41.4314 66.9573 41.33 67.1867 41.1274 67.368C40.9354 67.5493 40.7007 67.64 40.4234 67.64C40.146 67.64 39.9114 67.5493 39.7194 67.368C39.5274 67.176 39.4314 66.9467 39.4314 66.68C39.4314 66.4027 39.5274 66.1733 39.7194 65.992C39.9114 65.8 40.146 65.704 40.4234 65.704C40.7007 65.704 40.9354 65.8 41.1274 65.992C41.33 66.1733 41.4314 66.4027 41.4314 66.68ZM47.364 70.648H45.604V77H44.1V70.648H42.596V69.416H44.1V67.832C44.1 67.384 44.148 66.9733 44.244 66.6C44.3507 66.216 44.516 65.8853 44.74 65.608C44.9747 65.3307 45.268 65.112 45.62 64.952C45.9827 64.792 46.42 64.712 46.932 64.712C47.2947 64.712 47.6093 64.7493 47.876 64.824L47.7 66.12C47.5827 66.088 47.4653 66.0613 47.348 66.04C47.2307 66.0187 47.0973 66.008 46.948 66.008C46.66 66.008 46.4253 66.0613 46.244 66.168C46.0733 66.264 45.94 66.3973 45.844 66.568C45.748 66.7387 45.684 66.936 45.652 67.16C45.62 67.3733 45.604 67.5973 45.604 67.832V69.416H47.364V70.648ZM51.6291 75.368H51.6611L53.7571 69.416H55.3571L51.6771 78.792C51.5491 79.112 51.4105 79.3947 51.2611 79.64C51.1118 79.896 50.9358 80.1093 50.7331 80.28C50.5305 80.4613 50.2905 80.6 50.0131 80.696C49.7465 80.792 49.4265 80.84 49.0531 80.84C48.8931 80.84 48.7278 80.8293 48.5571 80.808C48.3971 80.7973 48.2318 80.7707 48.0611 80.728L48.2051 79.4C48.4611 79.4853 48.7118 79.528 48.9571 79.528C49.3518 79.528 49.6451 79.416 49.8371 79.192C50.0291 78.9787 50.2051 78.6693 50.3651 78.264L50.8451 77L47.5971 69.416H49.2771L51.6291 75.368Z" fill="#C3C7BE"/>
<defs>
<clipPath id="clip0_2650_53029">
<rect width="46" height="44" fill="white" transform="translate(4)"/>
</clipPath>
</defs>
</svg>
