<svg width="49" height="49" viewBox="0 0 49 49" fill="none" xmlns="http://www.w3.org/2000/svg">
<rect width="49" height="49" rx="10" fill="#F0D5CE"/>
<path fill-rule="evenodd" clip-rule="evenodd" d="M12.1733 11.0339C10.428 11.0389 9 11.0515 9 11.0619C9 11.0723 9.15822 11.3487 9.35161 11.6761C9.545 12.0035 9.76661 12.3763 9.84412 12.5044C9.92164 12.6326 9.99797 12.726 10.0138 12.7121C10.0296 12.6982 10.0321 12.7046 10.0193 12.7263C10.0066 12.748 10.0374 12.8376 10.0878 12.9253C10.1382 13.0131 10.195 13.0849 10.214 13.0849C10.2331 13.0849 10.2405 13.0977 10.2306 13.1133C10.2207 13.1289 10.2462 13.1951 10.2874 13.2604C10.3285 13.3257 10.5417 13.6829 10.7612 14.0541C10.9808 14.4254 11.2444 14.8693 11.3472 15.0407C11.4499 15.212 11.6058 15.4768 11.6935 15.6291C11.7813 15.7814 11.8685 15.9156 11.8874 15.9272C11.9062 15.9389 11.9172 15.9544 11.9119 15.9618C11.9065 15.9692 11.9472 16.0532 12.0023 16.1483C12.0574 16.2435 12.1324 16.3636 12.169 16.4152C12.2056 16.4668 12.2356 16.5161 12.2356 16.5249C12.2356 16.5336 12.3039 16.6549 12.3874 16.7945C12.4709 16.9341 12.5709 17.1078 12.6096 17.1805C12.6483 17.2532 12.712 17.3462 12.7511 17.3874C12.7902 17.4285 12.8163 17.4674 12.809 17.4738C12.8017 17.4803 12.8248 17.5381 12.8603 17.6024C12.8959 17.6666 12.9418 17.7098 12.9625 17.6984C12.9831 17.687 12.9888 17.6898 12.975 17.7046C12.9613 17.7194 13.0076 17.8349 13.078 17.9611C13.1483 18.0874 13.2176 18.2062 13.232 18.2253C13.2463 18.2443 13.3478 18.4118 13.4576 18.5976C13.5673 18.7833 13.7476 19.0871 13.8582 19.2726C13.9689 19.4581 14.1073 19.6956 14.1658 19.8003C14.2243 19.905 14.2939 20.0152 14.3205 20.0453C14.3471 20.0754 14.3689 20.1092 14.3689 20.1205C14.3689 20.1319 14.5308 20.411 14.7287 20.7409C14.9266 21.0708 15.1067 21.3521 15.1287 21.3661C15.1508 21.3801 15.1559 21.3917 15.1399 21.3921C15.124 21.3923 15.1466 21.4543 15.1901 21.5296C15.2336 21.605 15.2825 21.6587 15.2987 21.649C15.3148 21.6392 15.3201 21.6516 15.3103 21.6765C15.3004 21.7013 15.3446 21.8001 15.4084 21.8959C15.4722 21.9916 15.563 22.1396 15.6101 22.2246C15.6571 22.3096 15.7623 22.4882 15.8438 22.6214C15.9253 22.7547 16.0027 22.892 16.0158 22.9265C16.0295 22.9629 16.0569 22.9788 16.0808 22.9644C16.1076 22.9483 16.1125 22.9548 16.0946 22.9828C16.0786 23.0081 16.0985 23.0673 16.1425 23.1253C16.1839 23.1798 16.2178 23.2321 16.2178 23.2416C16.2178 23.251 16.268 23.3412 16.3295 23.442C16.3909 23.5428 16.4808 23.6939 16.5293 23.7779C16.5778 23.8618 16.765 24.1812 16.9453 24.4875C17.1255 24.7939 17.4205 25.2934 17.6007 25.5975C17.7809 25.9016 17.9475 26.1623 17.9708 26.1768C17.9942 26.1912 17.9995 26.2033 17.9826 26.2036C17.9657 26.2039 17.9782 26.2433 18.0105 26.2912C18.0427 26.3392 18.2418 26.6702 18.4528 27.0268C18.6639 27.3835 18.9616 27.8856 19.1145 28.1426C19.2673 28.3996 19.4197 28.6566 19.453 28.7137C19.4863 28.7708 19.568 28.9081 19.6345 29.0188C19.7011 29.1295 19.7717 29.2464 19.7914 29.2784C19.8112 29.3105 19.8734 29.4181 19.9298 29.5175C19.9862 29.6169 20.0486 29.6885 20.0683 29.6766C20.0881 29.6647 20.0939 29.6713 20.0812 29.6914C20.0685 29.7114 20.1197 29.8303 20.1949 29.9557C20.2702 30.081 20.3446 30.1722 20.3604 30.1583C20.3762 30.1444 20.3782 30.1517 20.3647 30.1745C20.3509 30.1978 20.545 30.5623 20.8071 31.0053C21.0639 31.4393 21.358 31.9347 21.4608 32.106C21.5636 32.2774 21.8199 32.7057 22.0304 33.058C22.2409 33.4102 22.5191 33.8751 22.6488 34.0911C22.7784 34.3071 22.9069 34.5252 22.9344 34.5757C22.9618 34.6262 23.0018 34.679 23.0233 34.693C23.0447 34.707 23.0484 34.7187 23.0315 34.719C23.0145 34.7193 23.0297 34.7623 23.0651 34.8147C23.1005 34.8671 23.3282 35.2448 23.5711 35.6541C23.8139 36.0634 24.0452 36.4529 24.0851 36.5195C24.125 36.5861 24.1898 36.6984 24.229 36.769C24.2683 36.8396 24.3163 36.8878 24.3358 36.8762C24.3551 36.8645 24.3607 36.8712 24.3481 36.891C24.3355 36.9109 24.4005 37.0574 24.4926 37.2166C24.5847 37.3758 24.6725 37.5112 24.6878 37.5176C24.7031 37.5239 24.7156 37.5521 24.7156 37.5802C24.7156 37.6083 24.7297 37.6227 24.7471 37.6123C24.7644 37.6019 24.7769 37.6126 24.7748 37.6362C24.7727 37.6598 24.8015 37.7375 24.8387 37.8089C24.876 37.8803 24.9212 37.9387 24.9393 37.9387C24.9573 37.9387 24.9615 37.9119 24.9486 37.8792C24.9357 37.8465 24.9363 37.8306 24.95 37.8439C24.9637 37.8572 25.0461 37.7477 25.1332 37.6005C25.2203 37.4534 25.4672 37.0413 25.6818 36.6849C25.908 36.3094 26.0612 36.0196 26.0461 35.9959C26.0318 35.9734 26.0351 35.964 26.0534 35.975C26.0717 35.986 26.2222 35.7679 26.3878 35.4903C26.5534 35.2127 26.7529 34.8737 26.8311 34.7369C26.9093 34.6001 27.0661 34.3374 27.1794 34.1531C27.2927 33.9688 27.3743 33.8004 27.3606 33.7788C27.3459 33.7557 27.3515 33.7491 27.3742 33.7627C27.3957 33.7757 27.4247 33.7513 27.44 33.7075C27.4551 33.6644 27.4629 33.6135 27.4574 33.5945C27.4519 33.5755 27.4594 33.5716 27.4741 33.5859C27.4889 33.6002 27.5382 33.5481 27.5837 33.47C27.6293 33.3919 27.6561 33.3116 27.6433 33.2915C27.6306 33.2714 27.636 33.2645 27.6554 33.2762C27.6748 33.2879 27.7237 33.2397 27.7641 33.169C27.8044 33.0984 27.8687 32.9861 27.907 32.9195C27.9454 32.8529 28.0272 32.7155 28.0889 32.6142C28.1506 32.5129 28.1903 32.4116 28.1771 32.3892C28.1638 32.3667 28.1662 32.36 28.1823 32.3742C28.1984 32.3884 28.2433 32.3495 28.2822 32.2876C28.321 32.2258 28.4736 31.9728 28.6213 31.7253C28.769 31.4778 28.9386 31.187 28.9983 31.0791C29.0579 30.9711 29.1961 30.7375 29.3054 30.5598C29.4146 30.3822 29.6586 29.9775 29.8476 29.6605C30.0365 29.3436 30.1911 29.0671 30.1911 29.0461C30.1911 29.0251 30.2046 29.008 30.2209 29.008C30.2374 29.008 30.2696 28.9678 30.2925 28.9188C30.3154 28.8698 30.3235 28.8114 30.3103 28.789C30.2971 28.7667 30.2996 28.76 30.3157 28.7742C30.3318 28.7884 30.3768 28.7495 30.4158 28.6876C30.4547 28.6258 30.7484 28.1342 31.0684 27.5951C31.39 27.0533 31.6394 26.5966 31.6261 26.5739C31.6128 26.5514 31.6145 26.544 31.6299 26.5576C31.6454 26.5711 31.7767 26.3842 31.9218 26.1422C32.067 25.9002 32.2002 25.6788 32.2179 25.6503C32.2356 25.6217 32.3014 25.5127 32.3641 25.408C32.4267 25.3033 32.4781 25.1988 32.4783 25.1758C32.4784 25.1529 32.4902 25.1411 32.5044 25.1497C32.5187 25.1582 32.5407 25.1391 32.5532 25.1071C32.5659 25.0751 32.7476 24.7605 32.957 24.4081C33.1664 24.0556 33.3383 23.7586 33.339 23.7482C33.3396 23.7377 33.3812 23.6668 33.4313 23.5907C33.4815 23.5145 33.6479 23.2419 33.8011 22.9849C33.9544 22.7279 34.2873 22.1671 34.5409 21.7387C34.7945 21.3104 35.098 20.7963 35.2153 20.5964C35.3326 20.3965 35.4557 20.1862 35.4889 20.1291C35.5221 20.072 35.5997 19.9457 35.6613 19.8484C35.7229 19.7511 35.7733 19.6609 35.7733 19.6479C35.7733 19.635 35.8072 19.5798 35.8486 19.5253C35.8942 19.4653 35.913 19.4077 35.8962 19.3795C35.881 19.3539 35.8817 19.3445 35.8977 19.3587C35.9138 19.3728 36.0042 19.2592 36.0986 19.1063C36.193 18.9533 36.315 18.747 36.3695 18.6479C36.4241 18.5487 36.5098 18.4053 36.5601 18.3291C36.6103 18.253 36.7115 18.0816 36.785 17.9483C36.8585 17.8151 36.931 17.6905 36.946 17.6714C36.9611 17.6524 37.1194 17.39 37.2978 17.0884C37.4763 16.7868 37.6222 16.5339 37.6222 16.5266C37.6222 16.5192 37.6782 16.4279 37.7467 16.3237C37.8151 16.2196 37.8711 16.1243 37.8711 16.1121C37.8711 16.0998 37.9008 16.0484 37.9371 15.9979C37.9734 15.9474 38.0447 15.8328 38.0955 15.7433C38.1462 15.6538 38.3301 15.3422 38.5041 15.051C38.6781 14.7597 38.861 14.4513 38.9105 14.3657C38.96 14.28 39.1701 13.9217 39.3774 13.5695C39.5847 13.2173 39.7698 12.9058 39.7886 12.8772C39.8075 12.8486 39.9042 12.6883 40.0036 12.5208C40.103 12.3533 40.1734 12.199 40.16 12.178C40.1459 12.1557 40.1518 12.1493 40.1741 12.1627C40.1968 12.1763 40.2624 12.0969 40.3341 11.969C40.401 11.8497 40.5475 11.5991 40.6598 11.4119C40.7721 11.2248 40.8586 11.0669 40.852 11.0612C40.8454 11.0554 38.0943 11.0392 34.7384 11.0253L28.6368 11L28.5117 11.203C28.4429 11.3147 28.1381 11.8266 27.8344 12.3407C27.5307 12.8547 26.7605 14.1554 26.1229 15.231C25.4853 16.3067 24.9498 17.1914 24.9328 17.1969C24.9158 17.2025 24.7291 16.9144 24.5179 16.5566C24.3067 16.1988 23.8151 15.3686 23.4254 14.7118C23.0357 14.055 22.4678 13.097 22.1636 12.583C21.8593 12.0689 21.5241 11.5043 21.4186 11.3282L21.227 11.008L18.2868 11.0164C16.6697 11.0211 13.9187 11.0289 12.1733 11.0339ZM34.1733 11.7176C34.1733 11.7271 34.1653 11.7349 34.1556 11.7349C34.1458 11.7349 34.1378 11.7271 34.1378 11.7176C34.1378 11.7081 34.1458 11.7003 34.1556 11.7003C34.1653 11.7003 34.1733 11.7081 34.1733 11.7176ZM34.0311 11.9599C34.0311 11.9694 34.0231 11.9772 34.0133 11.9772C34.0036 11.9772 33.9956 11.9694 33.9956 11.9599C33.9956 11.9504 34.0036 11.9426 34.0133 11.9426C34.0231 11.9426 34.0311 11.9504 34.0311 11.9599ZM33.9244 12.2714C33.9244 12.2809 33.9164 12.2887 33.9067 12.2887C33.8969 12.2887 33.8889 12.2809 33.8889 12.2714C33.8889 12.2619 33.8969 12.2541 33.9067 12.2541C33.9164 12.2541 33.9244 12.2619 33.9244 12.2714ZM40.0044 12.3753C40.0044 12.3848 39.9964 12.3926 39.9867 12.3926C39.9769 12.3926 39.9689 12.3848 39.9689 12.3753C39.9689 12.3658 39.9769 12.358 39.9867 12.358C39.9964 12.358 40.0044 12.3658 40.0044 12.3753ZM16.3956 12.9637C16.3956 12.9733 16.3876 12.981 16.3778 12.981C16.368 12.981 16.36 12.9733 16.36 12.9637C16.36 12.9542 16.368 12.9464 16.3778 12.9464C16.3876 12.9464 16.3956 12.9542 16.3956 12.9637ZM33.3556 13.2407C33.3556 13.2502 33.3476 13.258 33.3378 13.258C33.328 13.258 33.32 13.2502 33.32 13.2407C33.32 13.2311 33.328 13.2233 33.3378 13.2233C33.3476 13.2233 33.3556 13.2311 33.3556 13.2407ZM39.2933 13.656C39.2933 13.6656 39.2853 13.6733 39.2756 13.6733C39.2658 13.6733 39.2578 13.6656 39.2578 13.656C39.2578 13.6465 39.2658 13.6387 39.2756 13.6387C39.2853 13.6387 39.2933 13.6465 39.2933 13.656ZM32.9289 13.8637C32.9289 13.8733 32.9209 13.881 32.9111 13.881C32.9013 13.881 32.8933 13.8733 32.8933 13.8637C32.8933 13.8542 32.9013 13.8464 32.9111 13.8464C32.9209 13.8464 32.9289 13.8542 32.9289 13.8637ZM38.9733 14.1753C38.9733 14.1848 38.9653 14.1926 38.9556 14.1926C38.9458 14.1926 38.9378 14.1848 38.9378 14.1753C38.9378 14.1658 38.9458 14.158 38.9556 14.158C38.9653 14.158 38.9733 14.1658 38.9733 14.1753ZM11.1333 14.3483C11.1333 14.3579 11.1253 14.3657 11.1156 14.3657C11.1058 14.3657 11.0978 14.3579 11.0978 14.3483C11.0978 14.3388 11.1058 14.331 11.1156 14.331C11.1253 14.331 11.1333 14.3388 11.1333 14.3483ZM32.5022 14.6253C32.5022 14.6348 32.4942 14.6426 32.4844 14.6426C32.4747 14.6426 32.4667 14.6348 32.4667 14.6253C32.4667 14.6158 32.4747 14.608 32.4844 14.608C32.4942 14.608 32.5022 14.6158 32.5022 14.6253ZM38.3333 15.1445C38.3333 15.154 38.3253 15.1618 38.3156 15.1618C38.3058 15.1618 38.2978 15.154 38.2978 15.1445C38.2978 15.135 38.3058 15.1272 38.3156 15.1272C38.3253 15.1272 38.3333 15.135 38.3333 15.1445ZM17.8889 15.6983C17.8889 15.7079 17.8809 15.7157 17.8711 15.7157C17.8613 15.7157 17.8533 15.7079 17.8533 15.6983C17.8533 15.6888 17.8613 15.681 17.8711 15.681C17.8809 15.681 17.8889 15.6888 17.8889 15.6983ZM18.1022 15.733C18.1022 15.7425 18.0942 15.7503 18.0844 15.7503C18.0747 15.7503 18.0667 15.7425 18.0667 15.733C18.0667 15.7234 18.0747 15.7157 18.0844 15.7157C18.0942 15.7157 18.1022 15.7234 18.1022 15.733ZM38.0133 15.733C38.0133 15.7425 38.0053 15.7503 37.9956 15.7503C37.9858 15.7503 37.9778 15.7425 37.9778 15.733C37.9778 15.7234 37.9858 15.7157 37.9956 15.7157C38.0053 15.7157 38.0133 15.7234 38.0133 15.733ZM37.8356 16.0099C37.8356 16.0194 37.8276 16.0272 37.8178 16.0272C37.808 16.0272 37.8 16.0194 37.8 16.0099C37.8 16.0004 37.808 15.9926 37.8178 15.9926C37.8276 15.9926 37.8356 16.0004 37.8356 16.0099ZM31.5778 16.0791C31.5778 16.0886 31.5698 16.0964 31.56 16.0964C31.5502 16.0964 31.5422 16.0886 31.5422 16.0791C31.5422 16.0696 31.5502 16.0618 31.56 16.0618C31.5698 16.0618 31.5778 16.0696 31.5778 16.0791ZM18.6711 16.7022C18.6711 16.7117 18.6631 16.7195 18.6533 16.7195C18.6436 16.7195 18.6356 16.7117 18.6356 16.7022C18.6356 16.6927 18.6436 16.6849 18.6533 16.6849C18.6631 16.6849 18.6711 16.6927 18.6711 16.7022ZM12.5556 16.806C12.5556 16.8156 12.5476 16.8233 12.5378 16.8233C12.528 16.8233 12.52 16.8156 12.52 16.806C12.52 16.7965 12.528 16.7887 12.5378 16.7887C12.5476 16.7887 12.5556 16.7965 12.5556 16.806ZM18.6711 16.8407C18.6711 16.8502 18.6631 16.858 18.6533 16.858C18.6436 16.858 18.6356 16.8502 18.6356 16.8407C18.6356 16.8311 18.6436 16.8233 18.6533 16.8233C18.6631 16.8233 18.6711 16.8311 18.6711 16.8407ZM19.0978 17.4637C19.0978 17.4733 19.0898 17.481 19.08 17.481C19.0702 17.481 19.0622 17.4733 19.0622 17.4637C19.0622 17.4542 19.0702 17.4464 19.08 17.4464C19.0898 17.4464 19.0978 17.4542 19.0978 17.4637ZM30.7956 17.4983C30.7956 17.5079 30.7876 17.5157 30.7778 17.5157C30.768 17.5157 30.76 17.5079 30.76 17.4983C30.76 17.4888 30.768 17.481 30.7778 17.481C30.7876 17.481 30.7956 17.4888 30.7956 17.4983ZM19.24 17.6714C19.24 17.6809 19.232 17.6887 19.2222 17.6887C19.2124 17.6887 19.2044 17.6809 19.2044 17.6714C19.2044 17.6619 19.2124 17.6541 19.2222 17.6541C19.232 17.6541 19.24 17.6619 19.24 17.6714ZM30.44 18.0176C30.44 18.0271 30.432 18.0349 30.4222 18.0349C30.4124 18.0349 30.4044 18.0271 30.4044 18.0176C30.4044 18.0081 30.4124 18.0003 30.4222 18.0003C30.432 18.0003 30.44 18.0081 30.44 18.0176ZM36.0578 18.7791C36.0578 18.7886 36.0498 18.7964 36.04 18.7964C36.0302 18.7964 36.0222 18.7886 36.0222 18.7791C36.0222 18.7696 36.0302 18.7618 36.04 18.7618C36.0498 18.7618 36.0578 18.7696 36.0578 18.7791ZM36.1644 18.7791C36.1644 18.7886 36.1564 18.7964 36.1467 18.7964C36.1369 18.7964 36.1289 18.7886 36.1289 18.7791C36.1289 18.7696 36.1369 18.7618 36.1467 18.7618C36.1564 18.7618 36.1644 18.7696 36.1644 18.7791ZM13.7644 18.9176C13.7644 18.9271 13.7564 18.9349 13.7467 18.9349C13.7369 18.9349 13.7289 18.9271 13.7289 18.9176C13.7289 18.9081 13.7369 18.9003 13.7467 18.9003C13.7564 18.9003 13.7644 18.9081 13.7644 18.9176ZM29.9067 18.9176C29.9067 18.9271 29.8987 18.9349 29.8889 18.9349C29.8791 18.9349 29.8711 18.9271 29.8711 18.9176C29.8711 18.9081 29.8791 18.9003 29.8889 18.9003C29.8987 18.9003 29.9067 18.9081 29.9067 18.9176ZM29.8711 19.1599C29.8711 19.1694 29.8631 19.1772 29.8533 19.1772C29.8436 19.1772 29.8356 19.1694 29.8356 19.1599C29.8356 19.1504 29.8436 19.1426 29.8533 19.1426C29.8631 19.1426 29.8711 19.1504 29.8711 19.1599ZM29.5511 19.506C29.5511 19.5156 29.5431 19.5233 29.5333 19.5233C29.5236 19.5233 29.5156 19.5156 29.5156 19.506C29.5156 19.4965 29.5236 19.4887 29.5333 19.4887C29.5431 19.4887 29.5511 19.4965 29.5511 19.506ZM20.6622 20.1637C20.6622 20.1733 20.6542 20.181 20.6444 20.181C20.6347 20.181 20.6267 20.1733 20.6267 20.1637C20.6267 20.1542 20.6347 20.1464 20.6444 20.1464C20.6542 20.1464 20.6622 20.1542 20.6622 20.1637ZM35.2044 20.406C35.2044 20.4156 35.1964 20.4233 35.1867 20.4233C35.1769 20.4233 35.1689 20.4156 35.1689 20.406C35.1689 20.3965 35.1769 20.3887 35.1867 20.3887C35.1964 20.3887 35.2044 20.3965 35.2044 20.406ZM21.0889 20.7868C21.0889 20.7963 21.0809 20.8041 21.0711 20.8041C21.0613 20.8041 21.0533 20.7963 21.0533 20.7868C21.0533 20.7773 21.0613 20.7695 21.0711 20.7695C21.0809 20.7695 21.0889 20.7773 21.0889 20.7868ZM28.2 21.7907C28.2 21.8002 28.192 21.808 28.1822 21.808C28.1724 21.808 28.1644 21.8002 28.1644 21.7907C28.1644 21.7811 28.1724 21.7733 28.1822 21.7733C28.192 21.7733 28.2 21.7811 28.2 21.7907ZM34.3156 21.9637C34.3156 21.9733 34.3076 21.981 34.2978 21.981C34.288 21.981 34.28 21.9733 34.28 21.9637C34.28 21.9542 34.288 21.9464 34.2978 21.9464C34.3076 21.9464 34.3156 21.9542 34.3156 21.9637ZM21.8 22.0676C21.8 22.0771 21.792 22.0849 21.7822 22.0849C21.7724 22.0849 21.7644 22.0771 21.7644 22.0676C21.7644 22.0581 21.7724 22.0503 21.7822 22.0503C21.792 22.0503 21.8 22.0581 21.8 22.0676ZM15.72 22.1022C15.72 22.1117 15.712 22.1195 15.7022 22.1195C15.6924 22.1195 15.6844 22.1117 15.6844 22.1022C15.6844 22.0927 15.6924 22.0849 15.7022 22.0849C15.712 22.0849 15.72 22.0927 15.72 22.1022ZM22.12 22.5176C22.12 22.5271 22.112 22.5349 22.1022 22.5349C22.0924 22.5349 22.0844 22.5271 22.0844 22.5176C22.0844 22.5081 22.0924 22.5003 22.1022 22.5003C22.112 22.5003 22.12 22.5081 22.12 22.5176ZM22.1556 22.7599C22.1556 22.7694 22.1476 22.7772 22.1378 22.7772C22.128 22.7772 22.12 22.7694 22.12 22.7599C22.12 22.7504 22.128 22.7426 22.1378 22.7426C22.1476 22.7426 22.1556 22.7504 22.1556 22.7599ZM33.7467 22.8983C33.7467 22.9079 33.7387 22.9157 33.7289 22.9157C33.7191 22.9157 33.7111 22.9079 33.7111 22.8983C33.7111 22.8888 33.7191 22.881 33.7289 22.881C33.7387 22.881 33.7467 22.8888 33.7467 22.8983ZM22.4756 23.106C22.4756 23.1156 22.4676 23.1233 22.4578 23.1233C22.448 23.1233 22.44 23.1156 22.44 23.106C22.44 23.0965 22.448 23.0887 22.4578 23.0887C22.4676 23.0887 22.4756 23.0965 22.4756 23.106ZM27.3111 23.2791C27.3111 23.2886 27.3031 23.2964 27.2933 23.2964C27.2836 23.2964 27.2756 23.2886 27.2756 23.2791C27.2756 23.2696 27.2836 23.2618 27.2933 23.2618C27.3031 23.2618 27.3111 23.2696 27.3111 23.2791ZM27.2756 23.3483C27.2756 23.3579 27.2676 23.3657 27.2578 23.3657C27.248 23.3657 27.24 23.3579 27.24 23.3483C27.24 23.3388 27.248 23.331 27.2578 23.331C27.2676 23.331 27.2756 23.3388 27.2756 23.3483ZM33.5333 23.3483C33.5333 23.3579 33.5253 23.3657 33.5156 23.3657C33.5058 23.3657 33.4978 23.3579 33.4978 23.3483C33.4978 23.3388 33.5058 23.331 33.5156 23.331C33.5253 23.331 33.5333 23.3388 33.5333 23.3483ZM33.1778 23.7983C33.1778 23.8079 33.1698 23.8157 33.16 23.8157C33.1502 23.8157 33.1422 23.8079 33.1422 23.7983C33.1422 23.7888 33.1502 23.781 33.16 23.781C33.1698 23.781 33.1778 23.7888 33.1778 23.7983ZM16.8222 24.006C16.8222 24.0156 16.8142 24.0233 16.8044 24.0233C16.7947 24.0233 16.7867 24.0156 16.7867 24.006C16.7867 23.9965 16.7947 23.9887 16.8044 23.9887C16.8142 23.9887 16.8222 23.9965 16.8222 24.006ZM22.9378 24.0407C22.9378 24.0502 22.9298 24.058 22.92 24.058C22.9102 24.058 22.9022 24.0502 22.9022 24.0407C22.9022 24.0311 22.9102 24.0233 22.92 24.0233C22.9298 24.0233 22.9378 24.0311 22.9378 24.0407ZM32.8933 24.3176C32.8933 24.3271 32.8853 24.3349 32.8756 24.3349C32.8658 24.3349 32.8578 24.3271 32.8578 24.3176C32.8578 24.3081 32.8658 24.3003 32.8756 24.3003C32.8853 24.3003 32.8933 24.3081 32.8933 24.3176ZM32.7867 24.6291C32.7867 24.6386 32.7787 24.6464 32.7689 24.6464C32.7591 24.6464 32.7511 24.6386 32.7511 24.6291C32.7511 24.6196 32.7591 24.6118 32.7689 24.6118C32.7787 24.6118 32.7867 24.6196 32.7867 24.6291ZM26.5289 24.6983C26.5289 24.7079 26.5209 24.7157 26.5111 24.7157C26.5013 24.7157 26.4933 24.7079 26.4933 24.6983C26.4933 24.6888 26.5013 24.681 26.5111 24.681C26.5209 24.681 26.5289 24.6888 26.5289 24.6983ZM23.5067 24.906C23.5067 24.9156 23.4987 24.9233 23.4889 24.9233C23.4791 24.9233 23.4711 24.9156 23.4711 24.906C23.4711 24.8965 23.4791 24.8887 23.4889 24.8887C23.4987 24.8887 23.5067 24.8965 23.5067 24.906ZM17.32 24.9753C17.32 24.9848 17.312 24.9926 17.3022 24.9926C17.2924 24.9926 17.2844 24.9848 17.2844 24.9753C17.2844 24.9658 17.2924 24.958 17.3022 24.958C17.312 24.958 17.32 24.9658 17.32 24.9753ZM26.1733 25.2176C26.1733 25.2271 26.1653 25.2349 26.1556 25.2349C26.1458 25.2349 26.1378 25.2271 26.1378 25.2176C26.1378 25.2081 26.1458 25.2003 26.1556 25.2003C26.1653 25.2003 26.1733 25.2081 26.1733 25.2176ZM23.8267 25.3907C23.8267 25.4002 23.8187 25.408 23.8089 25.408C23.7991 25.408 23.7911 25.4002 23.7911 25.3907C23.7911 25.3811 23.7991 25.3733 23.8089 25.3733C23.8187 25.3733 23.8267 25.3811 23.8267 25.3907ZM23.9689 25.633C23.9689 25.6425 23.9609 25.6503 23.9511 25.6503C23.9413 25.6503 23.9333 25.6425 23.9333 25.633C23.9333 25.6234 23.9413 25.6157 23.9511 25.6157C23.9609 25.6157 23.9689 25.6234 23.9689 25.633ZM25.8889 25.7022C25.8889 25.7117 25.8809 25.7195 25.8711 25.7195C25.8613 25.7195 25.8533 25.7117 25.8533 25.7022C25.8533 25.6927 25.8613 25.6849 25.8711 25.6849C25.8809 25.6849 25.8889 25.6927 25.8889 25.7022ZM31.8978 25.9791C31.8978 25.9886 31.8898 25.9964 31.88 25.9964C31.8702 25.9964 31.8622 25.9886 31.8622 25.9791C31.8622 25.9696 31.8702 25.9618 31.88 25.9618C31.8898 25.9618 31.8978 25.9696 31.8978 25.9791ZM24.3244 26.2214C24.3244 26.2309 24.3164 26.2387 24.3067 26.2387C24.2969 26.2387 24.2889 26.2309 24.2889 26.2214C24.2889 26.2119 24.2969 26.2041 24.3067 26.2041C24.3164 26.2041 24.3244 26.2119 24.3244 26.2214ZM25.4978 26.3599C25.4978 26.3694 25.4898 26.3772 25.48 26.3772C25.4702 26.3772 25.4622 26.3694 25.4622 26.3599C25.4622 26.3504 25.4702 26.3426 25.48 26.3426C25.4898 26.3426 25.4978 26.3504 25.4978 26.3599ZM25.6044 26.3599C25.6044 26.3694 25.5964 26.3772 25.5867 26.3772C25.5769 26.3772 25.5689 26.3694 25.5689 26.3599C25.5689 26.3504 25.5769 26.3426 25.5867 26.3426C25.5964 26.3426 25.6044 26.3504 25.6044 26.3599ZM18.28 26.4983C18.28 26.5079 18.272 26.5157 18.2622 26.5157C18.2524 26.5157 18.2444 26.5079 18.2444 26.4983C18.2444 26.4888 18.2524 26.481 18.2622 26.481C18.272 26.481 18.28 26.4888 18.28 26.4983ZM25.3911 26.533C25.3911 26.5425 25.3831 26.5503 25.3733 26.5503C25.3636 26.5503 25.3556 26.5425 25.3556 26.533C25.3556 26.5234 25.3636 26.5157 25.3733 26.5157C25.3831 26.5157 25.3911 26.5234 25.3911 26.533ZM24.7156 26.8791C24.7156 26.8886 24.7076 26.8964 24.6978 26.8964C24.688 26.8964 24.68 26.8886 24.68 26.8791C24.68 26.8696 24.688 26.8618 24.6978 26.8618C24.7076 26.8618 24.7156 26.8696 24.7156 26.8791ZM18.5289 26.983C18.5289 26.9925 18.5209 27.0003 18.5111 27.0003C18.5013 27.0003 18.4933 26.9925 18.4933 26.983C18.4933 26.9734 18.5013 26.9657 18.5111 26.9657C18.5209 26.9657 18.5289 26.9734 18.5289 26.983ZM25 27.1907C25 27.2002 24.992 27.208 24.9822 27.208C24.9724 27.208 24.9644 27.2002 24.9644 27.1907C24.9644 27.1811 24.9724 27.1733 24.9822 27.1733C24.992 27.1733 25 27.1811 25 27.1907ZM30.9378 27.606C30.9378 27.6156 30.9298 27.6233 30.92 27.6233C30.9102 27.6233 30.9022 27.6156 30.9022 27.606C30.9022 27.5965 30.9102 27.5887 30.92 27.5887C30.9298 27.5887 30.9378 27.5965 30.9378 27.606ZM19.1333 27.9176C19.1333 27.9271 19.1253 27.9349 19.1156 27.9349C19.1058 27.9349 19.0978 27.9271 19.0978 27.9176C19.0978 27.9081 19.1058 27.9003 19.1156 27.9003C19.1253 27.9003 19.1333 27.9081 19.1333 27.9176ZM20.1289 29.5791C20.1289 29.5886 20.1209 29.5964 20.1111 29.5964C20.1013 29.5964 20.0933 29.5886 20.0933 29.5791C20.0933 29.5696 20.1013 29.5618 20.1111 29.5618C20.1209 29.5618 20.1289 29.5696 20.1289 29.5791ZM20.2356 29.5791C20.2356 29.5886 20.2276 29.5964 20.2178 29.5964C20.208 29.5964 20.2 29.5886 20.2 29.5791C20.2 29.5696 20.208 29.5618 20.2178 29.5618C20.2276 29.5618 20.2356 29.5696 20.2356 29.5791ZM29.5156 29.856C29.5156 29.8656 29.5076 29.8733 29.4978 29.8733C29.488 29.8733 29.48 29.8656 29.48 29.856C29.48 29.8465 29.488 29.8387 29.4978 29.8387C29.5076 29.8387 29.5156 29.8465 29.5156 29.856ZM29.48 30.0983C29.48 30.1079 29.472 30.1157 29.4622 30.1157C29.4524 30.1157 29.4444 30.1079 29.4444 30.0983C29.4444 30.0888 29.4524 30.081 29.4622 30.081C29.472 30.081 29.48 30.0888 29.48 30.0983ZM29.2133 30.6349C29.2254 30.6539 29.2273 30.6695 29.2175 30.6695C29.2078 30.6695 29.1899 30.6539 29.1778 30.6349C29.1657 30.6158 29.1638 30.6003 29.1736 30.6003C29.1834 30.6003 29.2012 30.6158 29.2133 30.6349ZM28.9467 30.9637C28.9467 30.9732 28.9387 30.981 28.9289 30.981C28.9191 30.981 28.9111 30.9732 28.9111 30.9637C28.9111 30.9542 28.9191 30.9464 28.9289 30.9464C28.9387 30.9464 28.9467 30.9542 28.9467 30.9637ZM28.8756 31.0676C28.8756 31.0771 28.8676 31.0849 28.8578 31.0849C28.848 31.0849 28.84 31.0771 28.84 31.0676C28.84 31.0581 28.848 31.0503 28.8578 31.0503C28.8676 31.0503 28.8756 31.0581 28.8756 31.0676ZM28.4844 31.7945C28.4844 31.804 28.4764 31.8118 28.4667 31.8118C28.4569 31.8118 28.4489 31.804 28.4489 31.7945C28.4489 31.785 28.4569 31.7772 28.4667 31.7772C28.4764 31.7772 28.4844 31.785 28.4844 31.7945ZM21.5867 32.0714C21.5867 32.0809 21.5787 32.0887 21.5689 32.0887C21.5591 32.0887 21.5511 32.0809 21.5511 32.0714C21.5511 32.0619 21.5591 32.0541 21.5689 32.0541C21.5787 32.0541 21.5867 32.0619 21.5867 32.0714ZM21.9778 32.7637C21.9778 32.7733 21.9698 32.781 21.96 32.781C21.9502 32.781 21.9422 32.7733 21.9422 32.7637C21.9422 32.7542 21.9502 32.7464 21.96 32.7464C21.9698 32.7464 21.9778 32.7542 21.9778 32.7637ZM27.6311 33.1791C27.6311 33.1886 27.6231 33.1964 27.6133 33.1964C27.6036 33.1964 27.5956 33.1886 27.5956 33.1791C27.5956 33.1696 27.6036 33.1618 27.6133 33.1618C27.6231 33.1618 27.6311 33.1696 27.6311 33.1791ZM22.5467 33.6983C22.5467 33.7079 22.5387 33.7157 22.5289 33.7157C22.5191 33.7157 22.5111 33.7079 22.5111 33.6983C22.5111 33.6888 22.5191 33.681 22.5289 33.681C22.5387 33.681 22.5467 33.6888 22.5467 33.6983ZM23.8622 35.9483C23.8622 35.9579 23.8542 35.9657 23.8444 35.9657C23.8347 35.9657 23.8267 35.9579 23.8267 35.9483C23.8267 35.9388 23.8347 35.931 23.8444 35.931C23.8542 35.931 23.8622 35.9388 23.8622 35.9483ZM25.7822 36.2599C25.7822 36.2694 25.7742 36.2772 25.7644 36.2772C25.7547 36.2772 25.7467 36.2694 25.7467 36.2599C25.7467 36.2504 25.7547 36.2426 25.7644 36.2426C25.7742 36.2426 25.7822 36.2504 25.7822 36.2599ZM24.3956 36.7791C24.3956 36.7886 24.3876 36.7964 24.3778 36.7964C24.368 36.7964 24.36 36.7886 24.36 36.7791C24.36 36.7696 24.368 36.7618 24.3778 36.7618C24.3876 36.7618 24.3956 36.7696 24.3956 36.7791ZM24.5378 37.056C24.5378 37.0656 24.5298 37.0733 24.52 37.0733C24.5102 37.0733 24.5022 37.0656 24.5022 37.056C24.5022 37.0465 24.5102 37.0387 24.52 37.0387C24.5298 37.0387 24.5378 37.0465 24.5378 37.056Z" fill="white"/>
<path fill-rule="evenodd" clip-rule="evenodd" d="M18.594 11.0091C17.7173 11.0117 17 11.0182 17 11.0237C17 11.0291 17.0795 11.1728 17.1766 11.3431C17.2738 11.5133 17.3851 11.7071 17.424 11.7738C17.463 11.8404 17.5013 11.889 17.5092 11.8818C17.5172 11.8745 17.5184 11.8778 17.512 11.8891C17.5056 11.9004 17.5211 11.947 17.5464 11.9926C17.5717 12.0383 17.6003 12.0756 17.6098 12.0756C17.6194 12.0756 17.6231 12.0823 17.6182 12.0904C17.6132 12.0985 17.626 12.133 17.6467 12.1669C17.6673 12.2009 17.7744 12.3866 17.8847 12.5796C17.995 12.7727 18.1274 13.0035 18.179 13.0927C18.2306 13.1818 18.3089 13.3195 18.353 13.3987C18.3971 13.4779 18.4409 13.5476 18.4504 13.5537C18.4598 13.5597 18.4654 13.5678 18.4627 13.5717C18.46 13.5755 18.4804 13.6192 18.5081 13.6687C18.5358 13.7182 18.5734 13.7806 18.5918 13.8075C18.6102 13.8343 18.6253 13.8599 18.6253 13.8645C18.6253 13.869 18.6596 13.9321 18.7015 14.0047C18.7435 14.0773 18.7937 14.1676 18.8132 14.2054C18.8326 14.2432 18.8646 14.2916 18.8843 14.313C18.9039 14.3343 18.917 14.3546 18.9133 14.3579C18.9097 14.3613 18.9213 14.3914 18.9391 14.4248C18.957 14.4582 18.9801 14.4806 18.9904 14.4747C19.0008 14.4688 19.0036 14.4702 18.9967 14.478C18.9898 14.4857 19.0131 14.5457 19.0484 14.6113C19.0838 14.677 19.1186 14.7388 19.1258 14.7487C19.133 14.7586 19.184 14.8457 19.2391 14.9423C19.2942 15.0389 19.3848 15.1968 19.4404 15.2933C19.496 15.3898 19.5655 15.5133 19.5949 15.5677C19.6243 15.6222 19.6592 15.6795 19.6726 15.6951C19.686 15.7108 19.6969 15.7284 19.6969 15.7343C19.6969 15.7402 19.7782 15.8853 19.8777 16.0569C19.9771 16.2284 20.0675 16.3747 20.0786 16.382C20.0897 16.3892 20.0922 16.3953 20.0842 16.3955C20.0762 16.3956 20.0875 16.4278 20.1094 16.467C20.1313 16.5062 20.1558 16.5342 20.1639 16.5291C20.1721 16.524 20.1747 16.5305 20.1698 16.5434C20.1648 16.5563 20.187 16.6076 20.2191 16.6575C20.2511 16.7073 20.2967 16.7842 20.3204 16.8284C20.344 16.8726 20.3968 16.9655 20.4378 17.0348C20.4787 17.1041 20.5176 17.1755 20.5241 17.1934C20.531 17.2123 20.5448 17.2206 20.5568 17.2131C20.5703 17.2047 20.5727 17.2081 20.5638 17.2227C20.5557 17.2358 20.5657 17.2666 20.5878 17.2968C20.6086 17.3251 20.6256 17.3523 20.6256 17.3573C20.6256 17.3622 20.6509 17.4091 20.6817 17.4615C20.7126 17.5139 20.7577 17.5925 20.7821 17.6361C20.8065 17.6798 20.9005 17.8459 20.9911 18.0052C21.0816 18.1645 21.2298 18.4242 21.3203 18.5824C21.4108 18.7405 21.4945 18.8761 21.5062 18.8836C21.518 18.8911 21.5206 18.8974 21.5121 18.8976C21.5036 18.8977 21.5099 18.9182 21.5261 18.9431C21.5423 18.9681 21.6423 19.1402 21.7483 19.3256C21.8543 19.5111 22.0039 19.7722 22.0807 19.9058C22.1575 20.0395 22.234 20.1732 22.2507 20.2029C22.2674 20.2326 22.3085 20.3039 22.3419 20.3615C22.3753 20.4191 22.4108 20.4798 22.4207 20.4965C22.4306 20.5132 22.4619 20.5691 22.4903 20.6208C22.5186 20.6725 22.5499 20.7098 22.5598 20.7036C22.5698 20.6974 22.5727 20.7008 22.5663 20.7112C22.5599 20.7217 22.5856 20.7835 22.6234 20.8487C22.6612 20.9139 22.6986 20.9613 22.7065 20.954C22.7145 20.9468 22.7155 20.9506 22.7087 20.9625C22.7018 20.9746 22.7993 21.1642 22.9309 21.3945C23.0599 21.6202 23.2077 21.8778 23.2593 21.9669C23.3109 22.056 23.4397 22.2788 23.5454 22.4619C23.6511 22.6451 23.7909 22.8868 23.856 22.9992C23.9211 23.1115 23.9857 23.2249 23.9995 23.2512C24.0133 23.2775 24.0334 23.3049 24.0441 23.3122C24.0549 23.3195 24.0568 23.3255 24.0483 23.3257C24.0398 23.3258 24.0474 23.3482 24.0652 23.3755C24.0829 23.4027 24.1973 23.5991 24.3193 23.812C24.4413 24.0248 24.5575 24.2273 24.5775 24.262C24.5975 24.2966 24.6301 24.355 24.6498 24.3917C24.6696 24.4284 24.6937 24.4535 24.7034 24.4475C24.7132 24.4414 24.7159 24.4449 24.7096 24.4552C24.7033 24.4655 24.736 24.5417 24.7822 24.6245C24.8285 24.7073 24.8726 24.7777 24.8803 24.781C24.8879 24.7843 24.8942 24.799 24.8942 24.8135C24.8942 24.8282 24.9013 24.8357 24.91 24.8303C24.9188 24.8248 24.925 24.8304 24.924 24.8427C24.9229 24.855 24.9374 24.8954 24.9561 24.9325C24.9748 24.9696 24.9975 25 25.0066 25C25.0156 25 25.0177 24.9861 25.0113 24.969C25.0048 24.952 25.0051 24.9438 25.012 24.9507C25.0188 24.9576 25.0602 24.9007 25.104 24.8241C25.1477 24.7476 25.2718 24.5333 25.3796 24.348C25.4932 24.1527 25.5701 24.002 25.5626 23.9897C25.5554 23.978 25.557 23.9731 25.5662 23.9788C25.5754 23.9845 25.651 23.8711 25.7342 23.7268C25.8174 23.5824 25.9176 23.4061 25.9569 23.335C25.9962 23.2639 26.0749 23.1273 26.1318 23.0314C26.1888 22.9356 26.2297 22.848 26.2228 22.8368C26.2155 22.8248 26.2183 22.8213 26.2297 22.8284C26.2405 22.8351 26.2551 22.8225 26.2628 22.7997C26.2703 22.7773 26.2743 22.7508 26.2715 22.7409C26.2687 22.731 26.2725 22.729 26.2799 22.7365C26.2873 22.7439 26.3121 22.7168 26.3349 22.6762C26.3578 22.6356 26.3713 22.5938 26.3649 22.5834C26.3585 22.5729 26.3612 22.5693 26.371 22.5754C26.3807 22.5815 26.4053 22.5564 26.4255 22.5197C26.4458 22.483 26.4781 22.4246 26.4973 22.3899C26.5166 22.3553 26.5577 22.2838 26.5887 22.2312C26.6197 22.1785 26.6396 22.1258 26.633 22.1142C26.6263 22.1025 26.6275 22.099 26.6356 22.1063C26.6437 22.1137 26.6663 22.0935 26.6858 22.0613C26.7053 22.0292 26.7819 21.8976 26.8561 21.7689C26.9303 21.6402 27.0155 21.489 27.0455 21.4329C27.0754 21.3767 27.1449 21.2552 27.1997 21.1629C27.2546 21.0705 27.3772 20.86 27.4721 20.6952C27.567 20.5304 27.6447 20.3866 27.6447 20.3757C27.6447 20.3648 27.6514 20.3559 27.6597 20.3559C27.6679 20.3559 27.6841 20.335 27.6956 20.3095C27.7071 20.284 27.7112 20.2536 27.7045 20.242C27.6979 20.2304 27.6991 20.2269 27.7072 20.2343C27.7153 20.2417 27.738 20.2214 27.7575 20.1893C27.7771 20.1572 27.9246 19.9015 28.0854 19.6212C28.2469 19.3394 28.3722 19.1019 28.3655 19.0901C28.3588 19.0784 28.3597 19.0746 28.3674 19.0816C28.3752 19.0887 28.4412 18.9915 28.514 18.8656C28.5869 18.7398 28.6539 18.6247 28.6628 18.6098C28.6717 18.595 28.7047 18.5383 28.7362 18.4838C28.7677 18.4294 28.7935 18.375 28.7936 18.3631C28.7936 18.3512 28.7995 18.345 28.8067 18.3495C28.8139 18.354 28.8249 18.344 28.8312 18.3273C28.8376 18.3107 28.9288 18.1471 29.034 17.9638C29.1392 17.7806 29.2256 17.6261 29.2259 17.6207C29.2262 17.6152 29.2471 17.5784 29.2723 17.5388C29.2975 17.4992 29.3811 17.3574 29.4581 17.2238C29.5351 17.0901 29.7023 16.7985 29.8296 16.5758C29.957 16.353 30.1095 16.0857 30.1684 15.9817C30.2273 15.8778 30.2892 15.7684 30.3058 15.7387C30.3225 15.709 30.3615 15.6433 30.3924 15.5927C30.4234 15.5421 30.4487 15.4952 30.4487 15.4885C30.4487 15.4818 30.4657 15.4531 30.4866 15.4247C30.5094 15.3935 30.5189 15.3636 30.5105 15.3489C30.5028 15.3356 30.5032 15.3307 30.5112 15.3381C30.5193 15.3454 30.5647 15.2864 30.6121 15.2068C30.6595 15.1273 30.7208 15.02 30.7482 14.9684C30.7756 14.9169 30.8187 14.8423 30.8439 14.8027C30.8692 14.7631 30.92 14.674 30.9569 14.6047C30.9938 14.5354 31.0302 14.4706 31.0378 14.4607C31.0454 14.4508 31.1249 14.3143 31.2145 14.1575C31.3041 14.0007 31.3775 13.8692 31.3775 13.8653C31.3775 13.8615 31.4056 13.8141 31.44 13.7599C31.4743 13.7057 31.5025 13.6562 31.5025 13.6498C31.5025 13.6434 31.5174 13.6167 31.5356 13.5904C31.5539 13.5642 31.5897 13.5046 31.6152 13.458C31.6407 13.4115 31.7331 13.2495 31.8205 13.098C31.9078 12.9466 31.9997 12.7862 32.0246 12.7416C32.0494 12.6971 32.155 12.5108 32.2591 12.3276C32.3632 12.1445 32.4562 11.9825 32.4657 11.9676C32.4751 11.9528 32.5237 11.8694 32.5737 11.7823C32.6236 11.6952 32.659 11.615 32.6522 11.604C32.6451 11.5924 32.6481 11.5891 32.6593 11.5961C32.6707 11.6032 32.7037 11.5618 32.7397 11.4953C32.7733 11.4333 32.8469 11.303 32.9033 11.2057C32.9597 11.1083 33.0031 11.0263 32.9998 11.0233C32.9965 11.0202 31.6146 11.0118 29.9289 11.0046L27.9394 11.0237L25.0192 15.8737C25.3395 15.3144 24.1994 17.3202 25.0192 15.8737C25.0278 15.8708 24.699 16.4331 25.0192 15.8737C25.0192 15.8737 22.5432 11.0916 22.4903 11L21.6649 11C20.8526 11.0024 19.4707 11.0065 18.594 11.0091ZM29.645 11.3646C29.645 11.3696 29.641 11.3736 29.6361 11.3736C29.6312 11.3736 29.6272 11.3696 29.6272 11.3646C29.6272 11.3597 29.6312 11.3556 29.6361 11.3556C29.641 11.3556 29.645 11.3597 29.645 11.3646ZM29.5736 11.4906C29.5736 11.4956 29.5696 11.4996 29.5646 11.4996C29.5597 11.4996 29.5557 11.4956 29.5557 11.4906C29.5557 11.4857 29.5597 11.4816 29.5646 11.4816C29.5696 11.4816 29.5736 11.4857 29.5736 11.4906ZM29.52 11.6526C29.52 11.6576 29.516 11.6616 29.5111 11.6616C29.5062 11.6616 29.5021 11.6576 29.5021 11.6526C29.5021 11.6477 29.5062 11.6436 29.5111 11.6436C29.516 11.6436 29.52 11.6477 29.52 11.6526ZM32.5741 11.7066C32.5741 11.7116 32.5701 11.7156 32.5652 11.7156C32.5602 11.7156 32.5562 11.7116 32.5562 11.7066C32.5562 11.7017 32.5602 11.6976 32.5652 11.6976C32.5701 11.6976 32.5741 11.7017 32.5741 11.7066ZM20.7149 12.0126C20.7149 12.0176 20.7109 12.0216 20.706 12.0216C20.7011 12.0216 20.6971 12.0176 20.6971 12.0126C20.6971 12.0077 20.7011 12.0036 20.706 12.0036C20.7109 12.0036 20.7149 12.0077 20.7149 12.0126ZM29.2342 12.1566C29.2342 12.1616 29.2302 12.1656 29.2253 12.1656C29.2204 12.1656 29.2164 12.1616 29.2164 12.1566C29.2164 12.1517 29.2204 12.1476 29.2253 12.1476C29.2302 12.1476 29.2342 12.1517 29.2342 12.1566ZM32.2169 12.3726C32.2169 12.3776 32.2129 12.3816 32.208 12.3816C32.203 12.3816 32.199 12.3776 32.199 12.3726C32.199 12.3677 32.203 12.3636 32.208 12.3636C32.2129 12.3636 32.2169 12.3677 32.2169 12.3726ZM29.0199 12.4806C29.0199 12.4856 29.0159 12.4896 29.011 12.4896C29.0061 12.4896 29.002 12.4856 29.002 12.4806C29.002 12.4757 29.0061 12.4716 29.011 12.4716C29.0159 12.4716 29.0199 12.4757 29.0199 12.4806ZM32.0561 12.6426C32.0561 12.6476 32.0521 12.6516 32.0472 12.6516C32.0423 12.6516 32.0383 12.6476 32.0383 12.6426C32.0383 12.6377 32.0423 12.6336 32.0472 12.6336C32.0521 12.6336 32.0561 12.6377 32.0561 12.6426ZM18.0716 12.7326C18.0716 12.7376 18.0676 12.7416 18.0627 12.7416C18.0578 12.7416 18.0538 12.7376 18.0538 12.7326C18.0538 12.7277 18.0578 12.7236 18.0627 12.7236C18.0676 12.7236 18.0716 12.7277 18.0716 12.7326ZM28.8056 12.8766C28.8056 12.8816 28.8016 12.8856 28.7967 12.8856C28.7917 12.8856 28.7877 12.8816 28.7877 12.8766C28.7877 12.8717 28.7917 12.8676 28.7967 12.8676C28.8016 12.8676 28.8056 12.8717 28.8056 12.8766ZM31.7347 13.1467C31.7347 13.1516 31.7306 13.1557 31.7257 13.1557C31.7208 13.1557 31.7168 13.1516 31.7168 13.1467C31.7168 13.1417 31.7208 13.1377 31.7257 13.1377C31.7306 13.1377 31.7347 13.1417 31.7347 13.1467ZM21.465 13.4347C21.465 13.4396 21.461 13.4437 21.4561 13.4437C21.4512 13.4437 21.4472 13.4396 21.4472 13.4347C21.4472 13.4297 21.4512 13.4257 21.4561 13.4257C21.461 13.4257 21.465 13.4297 21.465 13.4347ZM21.5722 13.4527C21.5722 13.4576 21.5682 13.4617 21.5633 13.4617C21.5584 13.4617 21.5543 13.4576 21.5543 13.4527C21.5543 13.4477 21.5584 13.4437 21.5633 13.4437C21.5682 13.4437 21.5722 13.4477 21.5722 13.4527ZM31.5739 13.4527C31.5739 13.4576 31.5699 13.4617 31.565 13.4617C31.5601 13.4617 31.5561 13.4576 31.5561 13.4527C31.5561 13.4477 31.5601 13.4437 31.565 13.4437C31.5699 13.4437 31.5739 13.4477 31.5739 13.4527ZM31.4846 13.5967C31.4846 13.6016 31.4806 13.6057 31.4757 13.6057C31.4708 13.6057 31.4668 13.6016 31.4668 13.5967C31.4668 13.5917 31.4708 13.5877 31.4757 13.5877C31.4806 13.5877 31.4846 13.5917 31.4846 13.5967ZM28.3412 13.6327C28.3412 13.6376 28.3372 13.6417 28.3323 13.6417C28.3274 13.6417 28.3234 13.6376 28.3234 13.6327C28.3234 13.6277 28.3274 13.6237 28.3323 13.6237C28.3372 13.6237 28.3412 13.6277 28.3412 13.6327ZM21.858 13.9567C21.858 13.9616 21.854 13.9657 21.849 13.9657C21.8441 13.9657 21.8401 13.9616 21.8401 13.9567C21.8401 13.9517 21.8441 13.9477 21.849 13.9477C21.854 13.9477 21.858 13.9517 21.858 13.9567ZM18.786 14.0107C18.786 14.0156 18.782 14.0197 18.7771 14.0197C18.7722 14.0197 18.7682 14.0156 18.7682 14.0107C18.7682 14.0057 18.7722 14.0017 18.7771 14.0017C18.782 14.0017 18.786 14.0057 18.786 14.0107ZM21.858 14.0287C21.858 14.0336 21.854 14.0377 21.849 14.0377C21.8441 14.0377 21.8401 14.0336 21.8401 14.0287C21.8401 14.0237 21.8441 14.0197 21.849 14.0197C21.854 14.0197 21.858 14.0237 21.858 14.0287ZM22.0723 14.3527C22.0723 14.3576 22.0683 14.3617 22.0634 14.3617C22.0585 14.3617 22.0544 14.3576 22.0544 14.3527C22.0544 14.3477 22.0585 14.3437 22.0634 14.3437C22.0683 14.3437 22.0723 14.3477 22.0723 14.3527ZM27.9483 14.3707C27.9483 14.3756 27.9443 14.3797 27.9394 14.3797C27.9345 14.3797 27.9304 14.3756 27.9304 14.3707C27.9304 14.3657 27.9345 14.3617 27.9394 14.3617C27.9443 14.3617 27.9483 14.3657 27.9483 14.3707ZM22.1437 14.4607C22.1437 14.4656 22.1397 14.4697 22.1348 14.4697C22.1299 14.4697 22.1259 14.4656 22.1259 14.4607C22.1259 14.4557 22.1299 14.4517 22.1348 14.4517C22.1397 14.4517 22.1437 14.4557 22.1437 14.4607ZM27.7697 14.6407C27.7697 14.6456 27.7657 14.6497 27.7608 14.6497C27.7559 14.6497 27.7518 14.6456 27.7518 14.6407C27.7518 14.6357 27.7559 14.6317 27.7608 14.6317C27.7657 14.6317 27.7697 14.6357 27.7697 14.6407ZM30.5916 15.0367C30.5916 15.0417 30.5876 15.0457 30.5827 15.0457C30.5778 15.0457 30.5737 15.0417 30.5737 15.0367C30.5737 15.0318 30.5778 15.0277 30.5827 15.0277C30.5876 15.0277 30.5916 15.0318 30.5916 15.0367ZM30.6452 15.0367C30.6452 15.0417 30.6412 15.0457 30.6363 15.0457C30.6313 15.0457 30.6273 15.0417 30.6273 15.0367C30.6273 15.0318 30.6313 15.0277 30.6363 15.0277C30.6412 15.0277 30.6452 15.0318 30.6452 15.0367ZM19.3933 15.1087C19.3933 15.1137 19.3892 15.1177 19.3843 15.1177C19.3794 15.1177 19.3754 15.1137 19.3754 15.1087C19.3754 15.1038 19.3794 15.0997 19.3843 15.0997C19.3892 15.0997 19.3933 15.1038 19.3933 15.1087ZM27.5018 15.1087C27.5018 15.1137 27.4978 15.1177 27.4929 15.1177C27.488 15.1177 27.4839 15.1137 27.4839 15.1087C27.4839 15.1038 27.488 15.0997 27.4929 15.0997C27.4978 15.0997 27.5018 15.1038 27.5018 15.1087ZM27.4839 15.2347C27.4839 15.2397 27.4799 15.2437 27.475 15.2437C27.4701 15.2437 27.4661 15.2397 27.4661 15.2347C27.4661 15.2298 27.4701 15.2257 27.475 15.2257C27.4799 15.2257 27.4839 15.2298 27.4839 15.2347ZM27.3232 15.4147C27.3232 15.4197 27.3192 15.4237 27.3143 15.4237C27.3094 15.4237 27.3053 15.4197 27.3053 15.4147C27.3053 15.4098 27.3094 15.4057 27.3143 15.4057C27.3192 15.4057 27.3232 15.4098 27.3232 15.4147ZM22.8581 15.7567C22.8581 15.7617 22.8541 15.7657 22.8492 15.7657C22.8443 15.7657 22.8403 15.7617 22.8403 15.7567C22.8403 15.7518 22.8443 15.7477 22.8492 15.7477C22.8541 15.7477 22.8581 15.7518 22.8581 15.7567ZM30.163 15.8827C30.163 15.8877 30.1589 15.8917 30.154 15.8917C30.1491 15.8917 30.1451 15.8877 30.1451 15.8827C30.1451 15.8778 30.1491 15.8737 30.154 15.8737C30.1589 15.8737 30.163 15.8778 30.163 15.8827ZM23.0725 16.0807C23.0725 16.0857 23.0684 16.0897 23.0635 16.0897C23.0586 16.0897 23.0546 16.0857 23.0546 16.0807C23.0546 16.0758 23.0586 16.0717 23.0635 16.0717C23.0684 16.0717 23.0725 16.0758 23.0725 16.0807ZM26.6445 16.6028C26.6445 16.6077 26.6405 16.6118 26.6356 16.6118C26.6307 16.6118 26.6266 16.6077 26.6266 16.6028C26.6266 16.5978 26.6307 16.5938 26.6356 16.5938C26.6405 16.5938 26.6445 16.5978 26.6445 16.6028ZM29.7165 16.6928C29.7165 16.6977 29.7124 16.7018 29.7075 16.7018C29.7026 16.7018 29.6986 16.6977 29.6986 16.6928C29.6986 16.6878 29.7026 16.6838 29.7075 16.6838C29.7124 16.6838 29.7165 16.6878 29.7165 16.6928ZM23.4297 16.7468C23.4297 16.7517 23.4257 16.7558 23.4207 16.7558C23.4158 16.7558 23.4118 16.7517 23.4118 16.7468C23.4118 16.7418 23.4158 16.7378 23.4207 16.7378C23.4257 16.7378 23.4297 16.7418 23.4297 16.7468ZM20.3756 16.7648C20.3756 16.7697 20.3716 16.7738 20.3666 16.7738C20.3617 16.7738 20.3577 16.7697 20.3577 16.7648C20.3577 16.7598 20.3617 16.7558 20.3666 16.7558C20.3716 16.7558 20.3756 16.7598 20.3756 16.7648ZM23.5904 16.9808C23.5904 16.9857 23.5864 16.9898 23.5815 16.9898C23.5766 16.9898 23.5726 16.9857 23.5726 16.9808C23.5726 16.9758 23.5766 16.9718 23.5815 16.9718C23.5864 16.9718 23.5904 16.9758 23.5904 16.9808ZM23.6083 17.1068C23.6083 17.1117 23.6043 17.1158 23.5993 17.1158C23.5944 17.1158 23.5904 17.1117 23.5904 17.1068C23.5904 17.1018 23.5944 17.0978 23.5993 17.0978C23.6043 17.0978 23.6083 17.1018 23.6083 17.1068ZM29.4307 17.1788C29.4307 17.1837 29.4267 17.1878 29.4218 17.1878C29.4169 17.1878 29.4128 17.1837 29.4128 17.1788C29.4128 17.1738 29.4169 17.1698 29.4218 17.1698C29.4267 17.1698 29.4307 17.1738 29.4307 17.1788ZM23.769 17.2868C23.769 17.2917 23.765 17.2958 23.7601 17.2958C23.7552 17.2958 23.7512 17.2917 23.7512 17.2868C23.7512 17.2818 23.7552 17.2778 23.7601 17.2778C23.765 17.2778 23.769 17.2818 23.769 17.2868ZM26.198 17.3768C26.198 17.3817 26.194 17.3858 26.1891 17.3858C26.1842 17.3858 26.1801 17.3817 26.1801 17.3768C26.1801 17.3718 26.1842 17.3678 26.1891 17.3678C26.194 17.3678 26.198 17.3718 26.198 17.3768ZM26.1801 17.4128C26.1801 17.4177 26.1761 17.4218 26.1712 17.4218C26.1663 17.4218 26.1623 17.4177 26.1623 17.4128C26.1623 17.4078 26.1663 17.4038 26.1712 17.4038C26.1761 17.4038 26.1801 17.4078 26.1801 17.4128ZM29.3235 17.4128C29.3235 17.4177 29.3195 17.4218 29.3146 17.4218C29.3097 17.4218 29.3057 17.4177 29.3057 17.4128C29.3057 17.4078 29.3097 17.4038 29.3146 17.4038C29.3195 17.4038 29.3235 17.4078 29.3235 17.4128ZM29.1449 17.6468C29.1449 17.6517 29.1409 17.6558 29.136 17.6558C29.1311 17.6558 29.1271 17.6517 29.1271 17.6468C29.1271 17.6418 29.1311 17.6378 29.136 17.6378C29.1409 17.6378 29.1449 17.6418 29.1449 17.6468ZM20.9292 17.7548C20.9292 17.7597 20.9252 17.7638 20.9203 17.7638C20.9154 17.7638 20.9114 17.7597 20.9114 17.7548C20.9114 17.7498 20.9154 17.7458 20.9203 17.7458C20.9252 17.7458 20.9292 17.7498 20.9292 17.7548ZM24.0012 17.7728C24.0012 17.7777 23.9972 17.7818 23.9923 17.7818C23.9874 17.7818 23.9833 17.7777 23.9833 17.7728C23.9833 17.7678 23.9874 17.7638 23.9923 17.7638C23.9972 17.7638 24.0012 17.7678 24.0012 17.7728ZM29.002 17.9168C29.002 17.9217 28.998 17.9258 28.9931 17.9258C28.9882 17.9258 28.9842 17.9217 28.9842 17.9168C28.9842 17.9118 28.9882 17.9078 28.9931 17.9078C28.998 17.9078 29.002 17.9118 29.002 17.9168ZM28.9485 18.0788C28.9485 18.0837 28.9445 18.0878 28.9395 18.0878C28.9346 18.0878 28.9306 18.0837 28.9306 18.0788C28.9306 18.0738 28.9346 18.0698 28.9395 18.0698C28.9445 18.0698 28.9485 18.0738 28.9485 18.0788ZM25.8051 18.1148C25.8051 18.1197 25.8011 18.1238 25.7961 18.1238C25.7912 18.1238 25.7872 18.1197 25.7872 18.1148C25.7872 18.1098 25.7912 18.1058 25.7961 18.1058C25.8011 18.1058 25.8051 18.1098 25.8051 18.1148ZM24.287 18.2228C24.287 18.2278 24.2829 18.2318 24.278 18.2318C24.2731 18.2318 24.2691 18.2278 24.2691 18.2228C24.2691 18.2179 24.2731 18.2138 24.278 18.2138C24.2829 18.2138 24.287 18.2179 24.287 18.2228ZM21.1793 18.2588C21.1793 18.2638 21.1753 18.2678 21.1704 18.2678C21.1654 18.2678 21.1614 18.2638 21.1614 18.2588C21.1614 18.2539 21.1654 18.2498 21.1704 18.2498C21.1753 18.2498 21.1793 18.2539 21.1793 18.2588ZM25.6265 18.3848C25.6265 18.3898 25.6225 18.3938 25.6175 18.3938C25.6126 18.3938 25.6086 18.3898 25.6086 18.3848C25.6086 18.3799 25.6126 18.3758 25.6175 18.3758C25.6225 18.3758 25.6265 18.3799 25.6265 18.3848ZM24.4477 18.4748C24.4477 18.4798 24.4437 18.4838 24.4388 18.4838C24.4339 18.4838 24.4298 18.4798 24.4298 18.4748C24.4298 18.4699 24.4339 18.4658 24.4388 18.4658C24.4437 18.4658 24.4477 18.4699 24.4477 18.4748ZM24.5191 18.6008C24.5191 18.6058 24.5151 18.6098 24.5102 18.6098C24.5053 18.6098 24.5013 18.6058 24.5013 18.6008C24.5013 18.5959 24.5053 18.5918 24.5102 18.5918C24.5151 18.5918 24.5191 18.5959 24.5191 18.6008ZM25.4836 18.6368C25.4836 18.6418 25.4796 18.6458 25.4747 18.6458C25.4698 18.6458 25.4657 18.6418 25.4657 18.6368C25.4657 18.6319 25.4698 18.6278 25.4747 18.6278C25.4796 18.6278 25.4836 18.6319 25.4836 18.6368ZM28.502 18.7808C28.502 18.7858 28.4979 18.7898 28.493 18.7898C28.4881 18.7898 28.4841 18.7858 28.4841 18.7808C28.4841 18.7759 28.4881 18.7718 28.493 18.7718C28.4979 18.7718 28.502 18.7759 28.502 18.7808ZM24.6977 18.9068C24.6977 18.9118 24.6937 18.9158 24.6888 18.9158C24.6839 18.9158 24.6799 18.9118 24.6799 18.9068C24.6799 18.9019 24.6839 18.8978 24.6888 18.8978C24.6937 18.8978 24.6977 18.9019 24.6977 18.9068ZM25.2871 18.9788C25.2871 18.9838 25.2831 18.9878 25.2782 18.9878C25.2733 18.9878 25.2693 18.9838 25.2693 18.9788C25.2693 18.9739 25.2733 18.9698 25.2782 18.9698C25.2831 18.9698 25.2871 18.9739 25.2871 18.9788ZM25.3407 18.9788C25.3407 18.9838 25.3367 18.9878 25.3318 18.9878C25.3269 18.9878 25.3229 18.9838 25.3229 18.9788C25.3229 18.9739 25.3269 18.9698 25.3318 18.9698C25.3367 18.9698 25.3407 18.9739 25.3407 18.9788ZM21.6615 19.0508C21.6615 19.0558 21.6575 19.0598 21.6526 19.0598C21.6477 19.0598 21.6437 19.0558 21.6437 19.0508C21.6437 19.0459 21.6477 19.0418 21.6526 19.0418C21.6575 19.0418 21.6615 19.0459 21.6615 19.0508ZM25.2335 19.0688C25.2335 19.0738 25.2295 19.0778 25.2246 19.0778C25.2197 19.0778 25.2157 19.0738 25.2157 19.0688C25.2157 19.0639 25.2197 19.0598 25.2246 19.0598C25.2295 19.0598 25.2335 19.0639 25.2335 19.0688ZM24.8942 19.2488C24.8942 19.2538 24.8902 19.2578 24.8853 19.2578C24.8804 19.2578 24.8763 19.2538 24.8763 19.2488C24.8763 19.2439 24.8804 19.2398 24.8853 19.2398C24.8902 19.2398 24.8942 19.2439 24.8942 19.2488ZM21.7865 19.3028C21.7865 19.3078 21.7825 19.3118 21.7776 19.3118C21.7727 19.3118 21.7687 19.3078 21.7687 19.3028C21.7687 19.2979 21.7727 19.2938 21.7776 19.2938C21.7825 19.2938 21.7865 19.2979 21.7865 19.3028ZM25.0371 19.4108C25.0371 19.4158 25.0331 19.4198 25.0282 19.4198C25.0232 19.4198 25.0192 19.4158 25.0192 19.4108C25.0192 19.4059 25.0232 19.4018 25.0282 19.4018C25.0331 19.4018 25.0371 19.4059 25.0371 19.4108ZM28.0197 19.6268C28.0197 19.6318 28.0157 19.6358 28.0108 19.6358C28.0059 19.6358 28.0019 19.6318 28.0019 19.6268C28.0019 19.6219 28.0059 19.6178 28.0108 19.6178C28.0157 19.6178 28.0197 19.6219 28.0197 19.6268ZM22.0902 19.7888C22.0902 19.7938 22.0861 19.7978 22.0812 19.7978C22.0763 19.7978 22.0723 19.7938 22.0723 19.7888C22.0723 19.7839 22.0763 19.7798 22.0812 19.7798C22.0861 19.7798 22.0902 19.7839 22.0902 19.7888ZM22.5902 20.6529C22.5902 20.6578 22.5862 20.6619 22.5813 20.6619C22.5764 20.6619 22.5724 20.6578 22.5724 20.6529C22.5724 20.6479 22.5764 20.6439 22.5813 20.6439C22.5862 20.6439 22.5902 20.6479 22.5902 20.6529ZM22.6438 20.6529C22.6438 20.6578 22.6398 20.6619 22.6349 20.6619C22.63 20.6619 22.626 20.6578 22.626 20.6529C22.626 20.6479 22.63 20.6439 22.6349 20.6439C22.6398 20.6439 22.6438 20.6479 22.6438 20.6529ZM27.3053 20.7969C27.3053 20.8018 27.3013 20.8059 27.2964 20.8059C27.2915 20.8059 27.2875 20.8018 27.2875 20.7969C27.2875 20.7919 27.2915 20.7879 27.2964 20.7879C27.3013 20.7879 27.3053 20.7919 27.3053 20.7969ZM27.2875 20.9229C27.2875 20.9278 27.2835 20.9319 27.2785 20.9319C27.2736 20.9319 27.2696 20.9278 27.2696 20.9229C27.2696 20.9179 27.2736 20.9139 27.2785 20.9139C27.2835 20.9139 27.2875 20.9179 27.2875 20.9229ZM27.1535 21.2019C27.1596 21.2118 27.1605 21.2199 27.1556 21.2199C27.1507 21.2199 27.1417 21.2118 27.1357 21.2019C27.1296 21.192 27.1286 21.1839 27.1336 21.1839C27.1385 21.1839 27.1474 21.192 27.1535 21.2019ZM27.0196 21.3729C27.0196 21.3778 27.0156 21.3819 27.0106 21.3819C27.0057 21.3819 27.0017 21.3778 27.0017 21.3729C27.0017 21.3679 27.0057 21.3639 27.0106 21.3639C27.0156 21.3639 27.0196 21.3679 27.0196 21.3729ZM26.9838 21.4269C26.9838 21.4318 26.9798 21.4359 26.9749 21.4359C26.97 21.4359 26.966 21.4318 26.966 21.4269C26.966 21.4219 26.97 21.4179 26.9749 21.4179C26.9798 21.4179 26.9838 21.4219 26.9838 21.4269ZM26.7874 21.8049C26.7874 21.8099 26.7834 21.8139 26.7785 21.8139C26.7735 21.8139 26.7695 21.8099 26.7695 21.8049C26.7695 21.8 26.7735 21.7959 26.7785 21.7959C26.7834 21.7959 26.7874 21.8 26.7874 21.8049ZM23.3225 21.9489C23.3225 21.9539 23.3185 21.9579 23.3136 21.9579C23.3087 21.9579 23.3046 21.9539 23.3046 21.9489C23.3046 21.944 23.3087 21.9399 23.3136 21.9399C23.3185 21.9399 23.3225 21.944 23.3225 21.9489ZM23.519 22.3089C23.519 22.3139 23.515 22.3179 23.51 22.3179C23.5051 22.3179 23.5011 22.3139 23.5011 22.3089C23.5011 22.304 23.5051 22.2999 23.51 22.2999C23.515 22.2999 23.519 22.304 23.519 22.3089ZM26.3587 22.5249C26.3587 22.5299 26.3547 22.5339 26.3498 22.5339C26.3449 22.5339 26.3409 22.5299 26.3409 22.5249C26.3409 22.52 26.3449 22.5159 26.3498 22.5159C26.3547 22.5159 26.3587 22.52 26.3587 22.5249ZM23.8047 22.7949C23.8047 22.7999 23.8007 22.8039 23.7958 22.8039C23.7909 22.8039 23.7869 22.7999 23.7869 22.7949C23.7869 22.79 23.7909 22.7859 23.7958 22.7859C23.8007 22.7859 23.8047 22.79 23.8047 22.7949ZM24.4656 23.965C24.4656 23.9699 24.4615 23.974 24.4566 23.974C24.4517 23.974 24.4477 23.9699 24.4477 23.965C24.4477 23.96 24.4517 23.956 24.4566 23.956C24.4615 23.956 24.4656 23.96 24.4656 23.965ZM25.43 24.127C25.43 24.1319 25.426 24.136 25.4211 24.136C25.4162 24.136 25.4122 24.1319 25.4122 24.127C25.4122 24.122 25.4162 24.118 25.4211 24.118C25.426 24.118 25.43 24.122 25.43 24.127ZM24.7335 24.397C24.7335 24.4019 24.7294 24.406 24.7245 24.406C24.7196 24.406 24.7156 24.4019 24.7156 24.397C24.7156 24.392 24.7196 24.388 24.7245 24.388C24.7294 24.388 24.7335 24.392 24.7335 24.397ZM24.8049 24.541C24.8049 24.5459 24.8009 24.55 24.796 24.55C24.7911 24.55 24.787 24.5459 24.787 24.541C24.787 24.536 24.7911 24.532 24.796 24.532C24.8009 24.532 24.8049 24.536 24.8049 24.541Z" fill="#E7C1B7"/>
</svg>
