<svg width="49" height="49" viewBox="0 0 49 49" fill="none" xmlns="http://www.w3.org/2000/svg">
<rect width="49" height="49" rx="10" fill="#D4E9F4"/>
<path fill-rule="evenodd" clip-rule="evenodd" d="M16.0078 16.9977C16.2737 17.072 16.7681 17.2768 17.1064 17.4528C17.5093 17.6623 17.95 18.0008 18.3833 18.4337C18.8708 18.9206 19.1286 19.2682 19.3629 19.7538C19.5379 20.1164 19.7275 20.6161 19.7844 20.8644C19.8412 21.1126 19.9739 22.8483 20.0791 24.7214L20.2705 28.1271L21.5795 24.7096C22.2995 22.8298 23.0421 20.9807 23.2297 20.6004C23.4173 20.22 23.7149 19.6919 23.8909 19.4266C24.0669 19.1614 24.4573 18.7014 24.7584 18.4043C25.0594 18.1072 25.5202 17.7352 25.7824 17.5775C26.0445 17.4198 26.4893 17.2099 26.7707 17.111C27.0521 17.0121 27.5932 16.8859 27.973 16.8305C28.4099 16.7668 28.6919 16.7606 28.741 16.8136C28.7836 16.8597 29.12 19.2704 29.4887 22.1708C29.8573 25.0712 30.1835 27.5827 30.2137 27.7519C30.2667 28.0487 30.2711 28.0518 30.3403 27.8398C30.3798 27.7189 30.8488 26.2358 31.3826 24.5439C32.0461 22.4414 32.4919 21.1866 32.7911 20.5793C33.0319 20.0906 33.4429 19.4183 33.7045 19.0852C33.9662 18.752 34.3925 18.306 34.6521 18.094C34.9117 17.882 35.4409 17.5553 35.8281 17.3681C36.2443 17.1667 36.8282 16.9717 37.2562 16.891C37.6543 16.8158 38.0963 16.7668 38.2383 16.7819L38.4965 16.8095L36.042 22.874C34.692 26.2094 33.4396 29.2278 33.2588 29.5817C33.078 29.9354 32.6866 30.5329 32.389 30.9093C32.0913 31.2857 31.616 31.7719 31.3326 31.9898C31.0492 32.2077 30.566 32.5127 30.2588 32.6676C29.9514 32.8227 29.4175 33.0214 29.0722 33.1094C28.7269 33.1973 28.1873 33.2836 27.873 33.3011L27.3018 33.3329L26.5847 28.3671C26.1903 25.6359 25.8541 23.3024 25.8376 23.1816C25.8179 23.0371 25.4199 23.97 24.6755 25.9062C24.0529 27.5256 23.4253 29.0878 23.281 29.3779C23.1366 29.6679 22.844 30.1693 22.6307 30.4922C22.4174 30.8151 21.9445 31.3579 21.5797 31.6985C21.1484 32.1013 20.674 32.4393 20.2232 32.6649C19.8419 32.8558 19.2417 33.0719 18.8895 33.1453C18.5372 33.2187 18.0582 33.2963 17.825 33.3177C17.5557 33.3425 17.3873 33.3204 17.3639 33.257C17.3436 33.2021 16.7335 29.5386 16.0082 25.1161C15.2829 20.6934 14.6895 17.0008 14.6895 16.9102C14.6895 16.7642 14.7367 16.7522 15.1069 16.8041C15.3366 16.8362 15.7419 16.9233 16.0078 16.9977Z" fill="white"/>
</svg>
