<svg width="49" height="49" viewBox="0 0 49 49" fill="none" xmlns="http://www.w3.org/2000/svg">
<rect width="49" height="49" rx="10" fill="#D4E9F4"/>
<path fill-rule="evenodd" clip-rule="evenodd" d="M9.64026 14.0573C9.49999 14.0909 9.29747 14.1559 9.19021 14.2017C9.08295 14.2474 8.90023 14.3384 8.78418 14.404C8.66813 14.4695 8.46561 14.6129 8.33414 14.7225C8.20267 14.8322 8.00516 15.0293 7.89523 15.1606C7.78527 15.2918 7.64197 15.4873 7.57675 15.595C7.51155 15.7027 7.4072 15.9044 7.34485 16.0431C7.28251 16.1819 7.19985 16.3997 7.16112 16.5271C7.12241 16.6546 7.07033 16.8795 7.04536 17.0269C7.00582 17.2606 7 18.1585 7 24.0144C7 29.9566 7.0054 30.7657 7.04671 31.0099C7.07243 31.1618 7.12793 31.3942 7.17006 31.5265C7.21221 31.6588 7.30588 31.8957 7.37825 32.0529C7.45058 32.2101 7.57642 32.4379 7.65784 32.5591C7.7393 32.6803 7.91149 32.8924 8.04053 33.0305C8.16954 33.1685 8.36288 33.3464 8.47014 33.4257C8.5774 33.505 8.77482 33.6291 8.90885 33.7016C9.04287 33.774 9.26564 33.87 9.40389 33.9149C9.54215 33.9598 9.77677 34.0132 9.92528 34.0336C10.1149 34.0597 12.2868 34.071 17.216 34.0717L24.2367 34.0726L27.402 36.0501C29.1429 37.1377 30.5718 38.015 30.5774 37.9997C30.5829 37.9844 30.2742 37.1131 29.8914 36.0635C29.5085 35.0138 29.1886 34.1361 29.1805 34.113C29.1687 34.0794 30.2421 34.0709 34.487 34.0708C38.1818 34.0708 39.8907 34.0594 40.0782 34.0336C40.2267 34.0132 40.463 33.9593 40.6033 33.9139C40.7435 33.8684 40.9845 33.762 41.1388 33.6774C41.293 33.5928 41.5225 33.4373 41.6488 33.3319C41.7751 33.2265 41.9746 33.0261 42.0922 32.8867C42.2098 32.7473 42.3599 32.5443 42.4257 32.4355C42.4915 32.3268 42.5996 32.1168 42.6658 31.9688C42.7321 31.8208 42.8203 31.5787 42.8618 31.4307C42.9033 31.2827 42.9529 31.0481 42.9721 30.9093C42.9979 30.7224 43.0044 28.8992 42.9973 23.863L42.9878 17.069L42.9051 16.7531C42.8596 16.5793 42.7705 16.3132 42.7072 16.1617C42.6439 16.0101 42.52 15.7664 42.432 15.6199C42.344 15.4735 42.1632 15.2317 42.0302 15.0826C41.8972 14.9335 41.6815 14.7308 41.5508 14.6321C41.4202 14.5334 41.2002 14.3933 41.062 14.3207C40.9237 14.2481 40.6796 14.1481 40.5194 14.0985L40.2282 14.0083L25.0618 14.0021C10.4942 13.9962 9.8852 13.9984 9.64026 14.0573ZM23.1496 16.3774C23.2613 16.4395 23.427 16.5704 23.518 16.6683C23.6161 16.7739 23.714 16.9215 23.7587 17.031C23.8002 17.1325 23.8463 17.2997 23.8612 17.4026C23.8781 17.5186 23.8772 17.6697 23.859 17.8002C23.8401 17.9357 23.7663 18.1605 23.652 18.4312C23.5543 18.6624 23.4349 18.9651 23.3867 19.1038C23.3384 19.2426 23.2372 19.5685 23.1618 19.8282C23.0863 20.0878 22.9709 20.5343 22.9054 20.8204C22.8398 21.1064 22.738 21.5921 22.6792 21.8995C22.6203 22.207 22.5247 22.7582 22.4667 23.1244C22.4087 23.4906 22.3076 24.2077 22.2421 24.7179C22.1766 25.2282 22.0961 25.9181 22.0632 26.251C22.0303 26.584 21.9802 27.1289 21.9519 27.4619C21.9138 27.9104 21.899 28.4464 21.895 29.5303C21.8911 30.5718 21.8789 31.0369 21.8525 31.1442C21.8321 31.2271 21.7816 31.3709 21.7403 31.4637C21.6991 31.5565 21.6093 31.6981 21.5409 31.7782C21.4724 31.8583 21.3624 31.9554 21.2964 31.994C21.2172 32.0402 21.0991 32.0692 20.9488 32.0793C20.7936 32.0897 20.6691 32.0775 20.5574 32.0411C20.4672 32.0118 20.3131 31.9288 20.2149 31.8567C20.1166 31.7847 19.9189 31.5912 19.7754 31.4269C19.6319 31.2625 19.4282 31.0109 19.3226 30.8678C19.2171 30.7247 19.0214 30.4369 18.8878 30.2283C18.7543 30.0197 18.5351 29.6449 18.4008 29.3954C18.2665 29.1459 18.0168 28.6239 17.846 28.2354C17.6752 27.847 17.4328 27.238 17.3073 26.8822C17.1817 26.5264 16.9931 25.9437 16.8881 25.5873C16.7831 25.2309 16.6737 24.8447 16.6451 24.7291C16.6164 24.6135 16.5834 24.5189 16.5715 24.5189C16.5597 24.5189 16.0302 25.6805 15.3949 27.1003C14.7596 28.5201 14.1286 29.891 13.9927 30.1469C13.8567 30.4028 13.6253 30.7912 13.4784 31.0099C13.3315 31.2287 13.1132 31.5082 12.9934 31.6311C12.8736 31.754 12.6928 31.9003 12.5916 31.9564C12.4904 32.0124 12.3551 32.0661 12.291 32.0758C12.2268 32.0854 12.1146 32.0753 12.0416 32.0532C11.9421 32.0232 11.8591 31.9571 11.7102 31.7892C11.5538 31.6128 11.4789 31.4902 11.3575 31.212C11.2728 31.0178 11.1295 30.6092 11.0391 30.3039C10.9487 29.9987 10.8195 29.5336 10.752 29.2703C10.6845 29.0071 10.5631 28.5 10.4822 28.1436C10.4013 27.7871 10.267 27.155 10.1838 26.7387C10.1007 26.3225 9.9507 25.5279 9.85052 24.973C9.75037 24.418 9.58853 23.472 9.4909 22.8708C9.39327 22.2696 9.26585 21.4675 9.20776 21.0882C9.14965 20.709 9.03984 19.9674 8.96375 19.4402C8.88766 18.913 8.82508 18.3757 8.82466 18.2462C8.82418 18.0923 8.84542 17.9425 8.88595 17.8136C8.92007 17.7052 9.00047 17.5385 9.06468 17.4433C9.12886 17.348 9.23498 17.2283 9.3005 17.1774C9.36603 17.1265 9.49966 17.052 9.59744 17.0117C9.739 16.9535 9.8426 16.9384 10.1053 16.9376C10.3847 16.9367 10.4581 16.9482 10.5837 17.0122C10.6653 17.0538 10.7781 17.1272 10.8344 17.1753C10.8907 17.2234 10.9763 17.3327 11.0246 17.4181C11.073 17.5036 11.1326 17.6492 11.1571 17.7417C11.1816 17.8341 11.2624 18.3487 11.3367 18.8852C11.411 19.4217 11.5326 20.2617 11.607 20.7519C11.6813 21.2421 11.8171 22.0897 11.9087 22.6354C12.0003 23.1811 12.1359 23.953 12.2101 24.3507C12.2842 24.7484 12.4246 25.4582 12.522 25.9279C12.6193 26.3976 12.7061 26.7898 12.7148 26.7995C12.7234 26.8093 12.7356 26.8109 12.7417 26.8032C12.7478 26.7955 13.479 25.2378 14.3666 23.3417C15.2543 21.4456 16.0282 19.8125 16.0865 19.7127C16.1449 19.6128 16.2568 19.4592 16.3352 19.3713C16.4137 19.2833 16.5562 19.1683 16.6519 19.1156C16.7862 19.0418 16.8786 19.0172 17.0564 19.008C17.2157 18.9997 17.3332 19.0132 17.4366 19.0517C17.5189 19.0824 17.6493 19.1697 17.7264 19.2458C17.8035 19.3218 17.9004 19.444 17.9416 19.5173C17.9829 19.5905 18.0475 19.7432 18.0852 19.8565C18.1229 19.9697 18.2242 20.4481 18.3103 20.9195C18.3965 21.3909 18.527 22.0493 18.6005 22.3826C18.674 22.7158 18.7813 23.1777 18.839 23.409C18.8967 23.6402 19.012 24.0716 19.0953 24.3675C19.1787 24.6635 19.3213 25.1327 19.4123 25.4102C19.5033 25.6877 19.5887 25.9279 19.6021 25.944C19.6155 25.9601 19.6345 25.9071 19.6443 25.8263C19.6541 25.7454 19.6897 25.4068 19.7234 25.0739C19.7571 24.7409 19.8316 24.107 19.889 23.6652C19.9464 23.2235 20.0408 22.5727 20.0988 22.219C20.1567 21.8653 20.2584 21.3063 20.3246 20.9768C20.3909 20.6473 20.4977 20.163 20.5619 19.9005C20.6262 19.6381 20.7383 19.219 20.8112 18.9693C20.884 18.7196 21.0118 18.3242 21.0953 18.0907C21.1787 17.8573 21.3237 17.494 21.4174 17.2835C21.5111 17.073 21.6383 16.825 21.7001 16.7322C21.762 16.6395 21.8693 16.5196 21.9385 16.4659C22.0078 16.412 22.1347 16.34 22.2205 16.3057C22.3407 16.2577 22.4418 16.2458 22.6615 16.254C22.9141 16.2634 22.9697 16.2775 23.1496 16.3774ZM28.5725 18.0416C28.6965 18.0512 28.9594 18.1047 29.1566 18.1605C29.3962 18.2284 29.6253 18.3226 29.8463 18.4444C30.0283 18.5446 30.269 18.7048 30.3812 18.8003C30.4933 18.8958 30.661 19.0599 30.7538 19.165C30.8466 19.2701 31.0017 19.4768 31.0985 19.6243C31.1953 19.7719 31.3538 20.067 31.4506 20.2802C31.5474 20.4934 31.6743 20.8278 31.7326 21.0235C31.7909 21.2191 31.8664 21.5445 31.9003 21.7466C31.9343 21.9487 31.9755 22.2503 31.992 22.4168C32.0084 22.5833 32.022 22.9487 32.0222 23.2288C32.0223 23.509 32.0085 23.8949 31.9915 24.0865C31.9745 24.2781 31.9395 24.5786 31.9137 24.7543C31.8878 24.9301 31.8215 25.2728 31.7662 25.5159C31.711 25.759 31.6172 26.1072 31.5577 26.2895C31.4983 26.4718 31.3363 26.8783 31.1976 27.1928C31.059 27.5073 30.8575 27.9127 30.7499 28.0938C30.6423 28.2749 30.4743 28.5327 30.3765 28.6668C30.2788 28.8009 30.0826 29.034 29.9406 29.1847C29.7985 29.3354 29.5693 29.543 29.4313 29.646C29.2932 29.749 29.0791 29.8856 28.9557 29.9496C28.8322 30.0135 28.6162 30.1032 28.4757 30.1488C28.3353 30.1945 28.1162 30.248 27.989 30.2679C27.8618 30.2877 27.6187 30.3039 27.4488 30.3039C27.2788 30.3039 27.0265 30.2818 26.888 30.2547C26.7494 30.2276 26.5161 30.1665 26.3695 30.1188C26.2228 30.0712 26.0018 29.9799 25.8783 29.9159C25.7548 29.852 25.5442 29.7176 25.4103 29.6174C25.2763 29.5171 25.0602 29.3145 24.93 29.1671C24.7998 29.0197 24.6208 28.7809 24.5323 28.6365C24.4438 28.4921 24.3053 28.2293 24.2246 28.0524C24.1438 27.8756 24.0349 27.5947 23.9826 27.4282C23.9303 27.2617 23.8554 26.9773 23.8162 26.7962C23.7769 26.6151 23.7221 26.267 23.6943 26.0226C23.6546 25.6728 23.6474 25.4211 23.6605 24.8384C23.6697 24.4314 23.6988 23.9395 23.7252 23.7453C23.7516 23.5511 23.8215 23.1727 23.8803 22.9045C23.9392 22.6362 24.0413 22.2503 24.1071 22.0468C24.1729 21.8433 24.3188 21.4649 24.4313 21.206C24.5439 20.947 24.7124 20.5989 24.8059 20.4324C24.8994 20.2659 25.0683 19.9933 25.1811 19.8266C25.294 19.6599 25.5192 19.379 25.6816 19.2025C25.844 19.026 26.0837 18.8008 26.2143 18.702C26.3449 18.6033 26.5774 18.4558 26.731 18.3742C26.8846 18.2927 27.1423 18.188 27.3037 18.1416C27.465 18.0952 27.732 18.0457 27.897 18.0317C28.062 18.0176 28.2308 18.0102 28.2721 18.0152C28.3133 18.0202 28.4485 18.0321 28.5725 18.0416ZM37.993 18.0812C38.1498 18.1092 38.4198 18.185 38.5931 18.2497C38.7663 18.3144 39.0094 18.4283 39.1331 18.5027C39.2569 18.5771 39.4562 18.7219 39.5761 18.8244C39.696 18.9269 39.8818 19.1171 39.9891 19.2469C40.0964 19.3768 40.2465 19.5882 40.3227 19.7167C40.3989 19.8453 40.5326 20.1043 40.6198 20.2923C40.707 20.4803 40.8272 20.7922 40.8869 20.9854C40.9465 21.1785 41.0281 21.5191 41.0682 21.7421C41.1083 21.9652 41.1547 22.3672 41.1713 22.6354C41.1907 22.9486 41.1917 23.3217 41.1739 23.678C41.1587 23.9833 41.132 24.3465 41.1145 24.4853C41.097 24.624 41.0544 24.8964 41.0199 25.0907C40.9854 25.2849 40.9102 25.6179 40.8528 25.8306C40.7955 26.0434 40.6897 26.3786 40.6177 26.5756C40.5458 26.7726 40.4259 27.0699 40.3514 27.2362C40.2769 27.4026 40.1396 27.6796 40.0464 27.8519C39.9532 28.0242 39.784 28.3058 39.6703 28.4775C39.5566 28.6493 39.3553 28.9113 39.2229 29.0597C39.0905 29.2082 38.8713 29.4218 38.7358 29.5344C38.6003 29.647 38.3744 29.8035 38.2338 29.8822C38.0931 29.961 37.8921 30.0583 37.7872 30.0986C37.6822 30.1389 37.4999 30.1953 37.3821 30.2239C37.2643 30.2525 36.9979 30.2843 36.79 30.2945C36.5612 30.3058 36.3126 30.2972 36.1599 30.2727C36.0213 30.2504 35.7998 30.2017 35.6678 30.1645C35.5358 30.1274 35.303 30.0386 35.1506 29.9674C34.9982 29.8961 34.7597 29.7547 34.6206 29.6531C34.4815 29.5514 34.2673 29.3613 34.1445 29.2306C34.0217 29.0998 33.8393 28.8637 33.7391 28.7057C33.6389 28.5478 33.4829 28.2563 33.3925 28.058C33.3022 27.8596 33.1793 27.5393 33.1194 27.3461C33.0595 27.1529 32.9779 26.8124 32.9379 26.5893C32.898 26.3663 32.8495 25.987 32.8301 25.7465C32.8087 25.4809 32.8024 25.0915 32.8139 24.7543C32.8243 24.4491 32.8587 24.0026 32.8902 23.7621C32.9218 23.5216 32.9693 23.2189 32.9958 23.0895C33.0222 22.96 33.0791 22.7178 33.1221 22.5513C33.1652 22.3848 33.2576 22.0821 33.3275 21.8786C33.3973 21.6751 33.5315 21.3365 33.6257 21.126C33.7199 20.9155 33.8719 20.6074 33.9636 20.4414C34.0552 20.2753 34.2103 20.0202 34.3082 19.8745C34.4062 19.7288 34.5887 19.4876 34.7139 19.3384C34.8391 19.1892 35.0711 18.958 35.2296 18.8245C35.3881 18.691 35.6123 18.5267 35.7278 18.4593C35.8433 18.392 36.0526 18.2918 36.1928 18.2367C36.3331 18.1816 36.5282 18.1179 36.6264 18.095C36.7246 18.0723 36.9271 18.0439 37.0764 18.032C37.2258 18.0201 37.429 18.0149 37.528 18.0204C37.627 18.0259 37.8362 18.0533 37.993 18.0812ZM27.972 20.7701C27.8813 20.7985 27.7349 20.8703 27.6467 20.9297C27.5586 20.9891 27.3892 21.1517 27.2703 21.2909C27.1514 21.4302 26.9642 21.6955 26.8543 21.8805C26.7445 22.0655 26.5879 22.3753 26.5064 22.5691C26.4249 22.7628 26.3285 23.0197 26.2921 23.1399C26.2558 23.2601 26.1927 23.5174 26.152 23.7117C26.0937 23.9899 26.0745 24.1932 26.0613 24.6702C26.048 25.1521 26.0547 25.3374 26.0943 25.5784C26.1216 25.7449 26.1856 26.0249 26.2365 26.2006C26.2874 26.3763 26.3759 26.6246 26.4332 26.7524C26.4905 26.8802 26.607 27.0677 26.6921 27.1692C26.7774 27.2709 26.9143 27.3892 26.9969 27.4327C27.1063 27.4903 27.2003 27.5117 27.344 27.512C27.4524 27.5122 27.6094 27.4896 27.6928 27.4618C27.7762 27.434 27.9445 27.3381 28.0667 27.2487C28.189 27.1592 28.38 26.984 28.4912 26.8593C28.6024 26.7347 28.7627 26.5176 28.8474 26.3769C28.932 26.2362 29.0585 25.9838 29.1284 25.8161C29.1983 25.6484 29.2967 25.3631 29.3471 25.1823C29.3975 25.0014 29.4698 24.6911 29.5077 24.4928C29.5671 24.1824 29.5767 24.036 29.5764 23.4426C29.5761 22.8301 29.5681 22.7174 29.5049 22.4336C29.4658 22.2579 29.4008 22.0157 29.3605 21.8954C29.3202 21.7752 29.2399 21.5756 29.1819 21.4518C29.124 21.328 29.0137 21.1533 28.9368 21.0636C28.86 20.9738 28.7348 20.8666 28.6586 20.8253C28.5787 20.782 28.4389 20.7435 28.3285 20.7344C28.2068 20.7243 28.077 20.7373 27.972 20.7701ZM37.1529 20.7701C37.0622 20.7985 36.9168 20.8699 36.8298 20.9288C36.7429 20.9877 36.5831 21.1347 36.4748 21.2555C36.3665 21.3762 36.1835 21.6326 36.0682 21.8252C35.9529 22.0177 35.7937 22.3204 35.7145 22.4978C35.6352 22.6752 35.5337 22.9339 35.4889 23.0726C35.4441 23.2114 35.3737 23.4838 35.3324 23.678C35.2713 23.9662 35.2546 24.1488 35.2417 24.6702C35.2289 25.1837 35.2357 25.3688 35.2762 25.612C35.3039 25.7785 35.3668 26.0497 35.4159 26.2147C35.4649 26.3798 35.5604 26.634 35.628 26.7798C35.6957 26.9255 35.8101 27.1129 35.8823 27.1962C35.9546 27.2795 36.0843 27.3846 36.1707 27.4296C36.2867 27.4902 36.3795 27.5117 36.5249 27.512C36.6333 27.5122 36.7913 27.4892 36.8761 27.461C36.9608 27.4328 37.1303 27.3346 37.2528 27.2427C37.3753 27.1509 37.5886 26.9419 37.7268 26.7783C37.865 26.6147 38.0419 26.361 38.12 26.2146C38.1982 26.0681 38.316 25.8004 38.3818 25.6196C38.4477 25.4387 38.5361 25.149 38.5782 24.9756C38.6203 24.8023 38.6753 24.534 38.7004 24.3794C38.7256 24.2249 38.7536 23.8639 38.7627 23.5771C38.7754 23.1797 38.7676 22.9759 38.73 22.7195C38.7028 22.5346 38.6336 22.2258 38.5761 22.0332C38.5186 21.8407 38.4281 21.5915 38.3748 21.4795C38.3216 21.3675 38.207 21.1898 38.1202 21.0847C38.0334 20.9795 37.9006 20.861 37.8251 20.8212C37.7496 20.7814 37.6046 20.742 37.5029 20.7337C37.388 20.7242 37.2554 20.7381 37.1529 20.7701Z" fill="white"/>
</svg>
