<svg width="80" height="86" viewBox="0 0 80 86" fill="none" xmlns="http://www.w3.org/2000/svg">
<g clip-path="url(#clip0_2650_53025)">
<path d="M16.6848 23.5C16.6848 20.6499 17.3328 17.9135 18.629 15.2907L29.2785 41.6496C25.4869 39.9885 22.44 37.5318 20.1379 34.2796C17.8358 31.0273 16.6848 27.4342 16.6848 23.5ZM54.0598 22.4771C54.0598 22.8093 54.0356 23.1459 53.9872 23.4869C53.9389 23.8278 53.8421 24.2606 53.6971 24.7852C53.552 25.3097 53.4407 25.6944 53.3633 25.9392C53.286 26.184 53.1167 26.6998 52.8555 27.4866C52.5944 28.2734 52.4251 28.7805 52.3477 29.0078L50.1424 35.7221L42.0754 14.058C42.9653 14.0056 43.8165 13.9356 44.629 13.8482C44.9965 13.8132 45.248 13.6515 45.3834 13.363C45.5189 13.0745 45.4947 12.8035 45.3109 12.5499C45.1271 12.2964 44.8514 12.1784 44.4839 12.1959L38.5352 12.4581C37.0843 12.4407 35.1305 12.3532 32.6736 12.1959C32.4415 12.1784 32.2432 12.2221 32.0788 12.327C31.9143 12.4319 31.8031 12.5631 31.745 12.7204C31.687 12.8778 31.6725 13.0395 31.7015 13.2056C31.7305 13.3717 31.8176 13.516 31.9627 13.6384C32.1078 13.7608 32.2964 13.8307 32.5285 13.8482L34.85 14.058L38.3321 22.6607L33.4571 35.8795L25.3321 14.058C26.222 14.0056 27.0732 13.9356 27.8857 13.8482C28.2532 13.8132 28.5047 13.6515 28.6401 13.363C28.7756 13.0745 28.7514 12.8035 28.5676 12.5499C28.3838 12.2964 28.1081 12.1784 27.7406 12.1959L21.7919 12.4581C21.6565 12.4581 21.434 12.4538 21.1245 12.445C20.815 12.4363 20.5635 12.4319 20.37 12.4319C22.4013 9.6343 25.0564 7.41806 28.3354 5.7832C31.6145 4.14834 35.1692 3.33092 38.9995 3.33092C41.8433 3.33092 44.5564 3.79427 47.139 4.72098C49.7216 5.64769 52.0285 6.95034 54.0598 8.62891H53.7696C52.7056 8.62891 51.8157 8.98298 51.1 9.69113C50.3842 10.3993 50.0263 11.2342 50.0263 12.1959C50.0263 12.4057 50.0456 12.6155 50.0843 12.8253C50.123 13.0352 50.1617 13.2231 50.2004 13.3892C50.2391 13.5553 50.3165 13.7564 50.4325 13.9925C50.5486 14.2285 50.6357 14.4121 50.6937 14.5432C50.7517 14.6744 50.8678 14.8711 51.0419 15.1334C51.216 15.3956 51.3369 15.5792 51.4046 15.6842C51.4724 15.7891 51.6126 15.9989 51.8254 16.3136C52.0382 16.6283 52.1736 16.8294 52.2317 16.9169C53.4504 18.7878 54.0598 20.6412 54.0598 22.4771ZM39.3767 25.2573L46.254 42.2266C46.2733 42.3315 46.3217 42.4276 46.3991 42.5151C43.9616 43.2844 41.495 43.6691 38.9995 43.6691C36.8328 43.6691 34.7339 43.3893 32.7026 42.8298L39.3767 25.2573ZM58.5575 13.822C60.3953 16.8644 61.3142 20.0904 61.3142 23.5C61.3142 27.1544 60.3083 30.5246 58.2964 33.6108C56.2845 36.6969 53.5858 39.1317 50.2004 40.9152L57.0196 23.1328C58.161 20.1778 58.7317 17.7649 58.7317 15.894C58.7317 15.1596 58.6736 14.4689 58.5575 13.822ZM38.9995 0C42.5203 0 45.8864 0.620722 49.0977 1.86217C52.309 3.10361 55.0754 4.77344 57.3968 6.87165C59.7183 8.96987 61.5657 11.4702 62.9392 14.3728C64.3128 17.2753 64.9995 20.3177 64.9995 23.5C64.9995 26.6823 64.3128 29.7247 62.9392 32.6272C61.5657 35.5298 59.7183 38.0301 57.3968 40.1283C55.0754 42.2266 52.309 43.8964 49.0977 45.1378C45.8864 46.3793 42.5203 47 38.9995 47C35.4787 47 32.1126 46.3793 28.9013 45.1378C25.69 43.8964 22.9236 42.2266 20.6022 40.1283C18.2808 38.0301 16.4333 35.5298 15.0598 32.6272C13.6863 29.7247 12.9995 26.6823 12.9995 23.5C12.9995 20.3177 13.6863 17.2753 15.0598 14.3728C16.4333 11.4702 18.2808 8.96987 20.6022 6.87165C22.9236 4.77344 25.69 3.10361 28.9013 1.86217C32.1126 0.620722 35.4787 0 38.9995 0ZM38.9995 45.9247C42.3462 45.9247 45.5527 45.3302 48.6189 44.1412C51.6852 42.9522 54.3258 41.3567 56.5408 39.3546C58.7558 37.3526 60.5211 34.9659 61.8366 32.1945C63.152 29.4231 63.8098 26.5249 63.8098 23.5C63.8098 20.4751 63.152 17.5769 61.8366 14.8055C60.5211 12.0341 58.7558 9.64742 56.5408 7.64537C54.3258 5.64332 51.6852 4.04781 48.6189 2.85882C45.5527 1.66983 42.3462 1.07533 38.9995 1.07533C35.6528 1.07533 32.4463 1.66983 29.3801 2.85882C26.3139 4.04781 23.6732 5.64332 21.4582 7.64537C19.2432 9.64742 17.4779 12.0341 16.1625 14.8055C14.847 17.5769 14.1892 20.4751 14.1892 23.5C14.1892 26.5249 14.847 29.4231 16.1625 32.1945C17.4779 34.9659 19.2432 37.3526 21.4582 39.3546C23.6732 41.3567 26.3139 42.9522 29.3801 44.1412C32.4463 45.3302 35.6528 45.9247 38.9995 45.9247Z" fill="#C3C7BE"/>
</g>
<path d="M4.368 77.696H4.4L7.056 68.672H8.8L11.44 77.696H11.472L13.968 68.672H15.648L12.32 80H10.672L7.92 70.896H7.888L5.136 80H3.488L0.16 68.672H1.872L4.368 77.696ZM24.2104 76.192C24.2104 76.7787 24.1037 77.3173 23.8904 77.808C23.6877 78.2987 23.3997 78.7253 23.0264 79.088C22.6637 79.44 22.2317 79.7173 21.7304 79.92C21.229 80.112 20.6904 80.208 20.1144 80.208C19.5384 80.208 18.9997 80.112 18.4984 79.92C17.997 79.7173 17.565 79.44 17.2024 79.088C16.8397 78.7253 16.5517 78.2987 16.3384 77.808C16.1357 77.3173 16.0344 76.7787 16.0344 76.192C16.0344 75.6053 16.1357 75.072 16.3384 74.592C16.5517 74.1013 16.8397 73.68 17.2024 73.328C17.565 72.976 17.997 72.704 18.4984 72.512C18.9997 72.3093 19.5384 72.208 20.1144 72.208C20.6904 72.208 21.229 72.3093 21.7304 72.512C22.2317 72.704 22.6637 72.976 23.0264 73.328C23.3997 73.68 23.6877 74.1013 23.8904 74.592C24.1037 75.072 24.2104 75.6053 24.2104 76.192ZM22.6424 76.192C22.6424 75.8293 22.5837 75.4827 22.4664 75.152C22.3597 74.8213 22.1997 74.5333 21.9864 74.288C21.773 74.032 21.5064 73.8293 21.1864 73.68C20.877 73.5307 20.5197 73.456 20.1144 73.456C19.709 73.456 19.3464 73.5307 19.0264 73.68C18.717 73.8293 18.4557 74.032 18.2424 74.288C18.029 74.5333 17.8637 74.8213 17.7464 75.152C17.6397 75.4827 17.5864 75.8293 17.5864 76.192C17.5864 76.5547 17.6397 76.9013 17.7464 77.232C17.8637 77.5627 18.029 77.856 18.2424 78.112C18.4557 78.368 18.717 78.5707 19.0264 78.72C19.3464 78.8693 19.709 78.944 20.1144 78.944C20.5197 78.944 20.877 78.8693 21.1864 78.72C21.5064 78.5707 21.773 78.368 21.9864 78.112C22.1997 77.856 22.3597 77.5627 22.4664 77.232C22.5837 76.9013 22.6424 76.5547 22.6424 76.192ZM26.296 74.048C26.296 73.8453 26.2907 73.584 26.28 73.264C26.2693 72.944 26.2533 72.6613 26.232 72.416H27.656C27.6773 72.608 27.6933 72.832 27.704 73.088C27.7147 73.3333 27.72 73.536 27.72 73.696H27.768C27.9813 73.248 28.2907 72.8907 28.696 72.624C29.112 72.3467 29.576 72.208 30.088 72.208C30.3227 72.208 30.52 72.2293 30.68 72.272L30.616 73.664C30.4027 73.6107 30.1733 73.584 29.928 73.584C29.5653 73.584 29.2507 73.6533 28.984 73.792C28.7173 73.92 28.4933 74.096 28.312 74.32C28.1413 74.544 28.0133 74.8053 27.928 75.104C27.8427 75.392 27.8 75.696 27.8 76.016V80H26.296V74.048ZM37.8596 78.8C37.5716 79.2587 37.177 79.6107 36.6756 79.856C36.185 80.0907 35.6676 80.208 35.1236 80.208C34.537 80.208 34.009 80.1067 33.5396 79.904C33.0703 79.6907 32.6703 79.4027 32.3396 79.04C32.009 78.6773 31.753 78.2507 31.5716 77.76C31.3903 77.2693 31.2996 76.7467 31.2996 76.192C31.2996 75.6373 31.3903 75.12 31.5716 74.64C31.753 74.1493 32.009 73.7227 32.3396 73.36C32.681 72.9973 33.0863 72.7147 33.5556 72.512C34.025 72.3093 34.5423 72.208 35.1076 72.208C35.7263 72.208 36.265 72.3413 36.7236 72.608C37.1823 72.864 37.545 73.1787 37.8116 73.552H37.8436V67.904H39.3476V80H37.8916V78.8H37.8596ZM32.8676 76.192C32.8676 76.544 32.921 76.8853 33.0276 77.216C33.1343 77.5467 33.2943 77.84 33.5076 78.096C33.721 78.352 33.9823 78.56 34.2916 78.72C34.601 78.8693 34.9636 78.944 35.3796 78.944C35.7636 78.944 36.1103 78.8693 36.4196 78.72C36.7396 78.5707 37.0116 78.3733 37.2356 78.128C37.4596 77.872 37.6303 77.5787 37.7476 77.248C37.8756 76.9173 37.9396 76.5707 37.9396 76.208C37.9396 75.8453 37.8756 75.4987 37.7476 75.168C37.6303 74.8373 37.4596 74.544 37.2356 74.288C37.0116 74.032 36.7396 73.8293 36.4196 73.68C36.1103 73.5307 35.7636 73.456 35.3796 73.456C34.9636 73.456 34.601 73.5307 34.2916 73.68C33.9823 73.8293 33.721 74.032 33.5076 74.288C33.2943 74.544 33.1343 74.8373 33.0276 75.168C32.921 75.4987 32.8676 75.84 32.8676 76.192ZM43.4719 83.84H41.9679V72.416H43.4399V73.6H43.4879C43.7332 73.1947 44.0905 72.864 44.5599 72.608C45.0399 72.3413 45.5945 72.208 46.2239 72.208C46.7892 72.208 47.3012 72.3093 47.7599 72.512C48.2292 72.7147 48.6292 72.9973 48.9599 73.36C49.3012 73.7227 49.5625 74.1493 49.7439 74.64C49.9252 75.12 50.0159 75.6373 50.0159 76.192C50.0159 76.7467 49.9252 77.2693 49.7439 77.76C49.5625 78.2507 49.3065 78.6773 48.9759 79.04C48.6452 79.4027 48.2452 79.6907 47.7759 79.904C47.3065 80.1067 46.7785 80.208 46.1919 80.208C45.6479 80.208 45.1359 80.0907 44.6559 79.856C44.1759 79.6213 43.7972 79.2907 43.5199 78.864H43.4719V83.84ZM48.4639 76.192C48.4639 75.84 48.4105 75.4987 48.3039 75.168C48.1972 74.8373 48.0372 74.544 47.8239 74.288C47.6105 74.032 47.3439 73.8293 47.0239 73.68C46.7145 73.5307 46.3519 73.456 45.9359 73.456C45.5519 73.456 45.1999 73.5307 44.8799 73.68C44.5705 73.8293 44.3039 74.032 44.0799 74.288C43.8559 74.544 43.6799 74.8373 43.5519 75.168C43.4345 75.4987 43.3759 75.8453 43.3759 76.208C43.3759 76.5707 43.4345 76.9173 43.5519 77.248C43.6799 77.5787 43.8559 77.872 44.0799 78.128C44.3039 78.3733 44.5705 78.5707 44.8799 78.72C45.1999 78.8693 45.5519 78.944 45.9359 78.944C46.3519 78.944 46.7145 78.8693 47.0239 78.72C47.3439 78.56 47.6105 78.352 47.8239 78.096C48.0372 77.84 48.1972 77.5467 48.3039 77.216C48.4105 76.8853 48.4639 76.544 48.4639 76.192ZM52.1085 74.048C52.1085 73.8453 52.1032 73.584 52.0925 73.264C52.0818 72.944 52.0658 72.6613 52.0445 72.416H53.4685C53.4898 72.608 53.5058 72.832 53.5165 73.088C53.5272 73.3333 53.5325 73.536 53.5325 73.696H53.5805C53.7938 73.248 54.1032 72.8907 54.5085 72.624C54.9245 72.3467 55.3885 72.208 55.9005 72.208C56.1352 72.208 56.3325 72.2293 56.4925 72.272L56.4285 73.664C56.2152 73.6107 55.9858 73.584 55.7405 73.584C55.3778 73.584 55.0632 73.6533 54.7965 73.792C54.5298 73.92 54.3058 74.096 54.1245 74.32C53.9538 74.544 53.8258 74.8053 53.7405 75.104C53.6552 75.392 53.6125 75.696 53.6125 76.016V80H52.1085V74.048ZM63.1761 75.536C63.1655 75.2373 63.1121 74.96 63.0161 74.704C62.9308 74.4373 62.7975 74.208 62.6161 74.016C62.4455 73.824 62.2268 73.6747 61.9601 73.568C61.7041 73.4507 61.4001 73.392 61.0481 73.392C60.7281 73.392 60.4241 73.4507 60.1361 73.568C59.8588 73.6747 59.6135 73.824 59.4001 74.016C59.1975 74.208 59.0268 74.4373 58.8881 74.704C58.7601 74.96 58.6855 75.2373 58.6641 75.536H63.1761ZM64.6961 76.144C64.6961 76.2293 64.6961 76.3147 64.6961 76.4C64.6961 76.4853 64.6908 76.5707 64.6801 76.656H58.6641C58.6748 76.976 58.7441 77.28 58.8721 77.568C59.0108 77.8453 59.1921 78.0907 59.4161 78.304C59.6401 78.5067 59.8961 78.6667 60.1841 78.784C60.4828 78.9013 60.7975 78.96 61.1281 78.96C61.6401 78.96 62.0828 78.848 62.4561 78.624C62.8295 78.4 63.1228 78.128 63.3361 77.808L64.3921 78.656C63.9868 79.1893 63.5068 79.584 62.9521 79.84C62.4081 80.0853 61.8001 80.208 61.1281 80.208C60.5521 80.208 60.0188 80.112 59.5281 79.92C59.0375 79.728 58.6161 79.4613 58.2641 79.12C57.9121 78.768 57.6348 78.3467 57.4321 77.856C57.2295 77.3653 57.1281 76.8213 57.1281 76.224C57.1281 75.6373 57.2241 75.0987 57.4161 74.608C57.6188 74.1067 57.8961 73.68 58.2481 73.328C58.6001 72.976 59.0161 72.704 59.4961 72.512C59.9761 72.3093 60.4935 72.208 61.0481 72.208C61.6028 72.208 62.1041 72.2987 62.5521 72.48C63.0108 72.6613 63.3948 72.9227 63.7041 73.264C64.0241 73.6053 64.2695 74.0213 64.4401 74.512C64.6108 74.992 64.6961 75.536 64.6961 76.144ZM70.892 74.336C70.7213 74.0587 70.4813 73.8347 70.172 73.664C69.8627 73.4827 69.516 73.392 69.132 73.392C68.9613 73.392 68.7907 73.4133 68.62 73.456C68.4493 73.488 68.2947 73.5467 68.156 73.632C68.028 73.7067 67.9213 73.808 67.836 73.936C67.7613 74.0533 67.724 74.2027 67.724 74.384C67.724 74.704 67.868 74.944 68.156 75.104C68.444 75.2533 68.876 75.392 69.452 75.52C69.8147 75.6053 70.1507 75.7067 70.46 75.824C70.7693 75.9413 71.036 76.0907 71.26 76.272C71.4947 76.4427 71.676 76.6507 71.804 76.896C71.932 77.1413 71.996 77.4293 71.996 77.76C71.996 78.208 71.9107 78.5867 71.74 78.896C71.5693 79.2053 71.34 79.4613 71.052 79.664C70.7747 79.856 70.4547 79.9947 70.092 80.08C69.7293 80.1653 69.356 80.208 68.972 80.208C68.396 80.208 67.8307 80.096 67.276 79.872C66.732 79.648 66.2787 79.3067 65.916 78.848L66.988 77.936C67.1907 78.2347 67.468 78.4853 67.82 78.688C68.1827 78.8907 68.5773 78.992 69.004 78.992C69.196 78.992 69.3773 78.976 69.548 78.944C69.7293 78.9013 69.8893 78.8373 70.028 78.752C70.1773 78.6667 70.2947 78.5547 70.38 78.416C70.4653 78.2773 70.508 78.1013 70.508 77.888C70.508 77.536 70.3373 77.2747 69.996 77.104C69.6653 76.9333 69.1747 76.7733 68.524 76.624C68.268 76.56 68.0067 76.4853 67.74 76.4C67.484 76.304 67.2493 76.176 67.036 76.016C66.8227 75.856 66.6467 75.6587 66.508 75.424C66.38 75.1787 66.316 74.88 66.316 74.528C66.316 74.1227 66.396 73.776 66.556 73.488C66.7267 73.1893 66.9453 72.9493 67.212 72.768C67.4787 72.576 67.7827 72.4373 68.124 72.352C68.4653 72.256 68.8173 72.208 69.18 72.208C69.724 72.208 70.2467 72.3147 70.748 72.528C71.26 72.7413 71.6547 73.0507 71.932 73.456L70.892 74.336ZM78.0014 74.336C77.8307 74.0587 77.5907 73.8347 77.2814 73.664C76.972 73.4827 76.6254 73.392 76.2414 73.392C76.0707 73.392 75.9 73.4133 75.7294 73.456C75.5587 73.488 75.404 73.5467 75.2654 73.632C75.1374 73.7067 75.0307 73.808 74.9454 73.936C74.8707 74.0533 74.8334 74.2027 74.8334 74.384C74.8334 74.704 74.9774 74.944 75.2654 75.104C75.5534 75.2533 75.9854 75.392 76.5614 75.52C76.924 75.6053 77.26 75.7067 77.5694 75.824C77.8787 75.9413 78.1454 76.0907 78.3694 76.272C78.604 76.4427 78.7854 76.6507 78.9134 76.896C79.0414 77.1413 79.1054 77.4293 79.1054 77.76C79.1054 78.208 79.02 78.5867 78.8494 78.896C78.6787 79.2053 78.4494 79.4613 78.1614 79.664C77.884 79.856 77.564 79.9947 77.2014 80.08C76.8387 80.1653 76.4654 80.208 76.0814 80.208C75.5054 80.208 74.94 80.096 74.3854 79.872C73.8414 79.648 73.388 79.3067 73.0254 78.848L74.0974 77.936C74.3 78.2347 74.5774 78.4853 74.9294 78.688C75.292 78.8907 75.6867 78.992 76.1134 78.992C76.3054 78.992 76.4867 78.976 76.6574 78.944C76.8387 78.9013 76.9987 78.8373 77.1374 78.752C77.2867 78.6667 77.404 78.5547 77.4894 78.416C77.5747 78.2773 77.6174 78.1013 77.6174 77.888C77.6174 77.536 77.4467 77.2747 77.1054 77.104C76.7747 76.9333 76.284 76.7733 75.6334 76.624C75.3774 76.56 75.116 76.4853 74.8494 76.4C74.5934 76.304 74.3587 76.176 74.1454 76.016C73.932 75.856 73.756 75.6587 73.6174 75.424C73.4894 75.1787 73.4254 74.88 73.4254 74.528C73.4254 74.1227 73.5054 73.776 73.6654 73.488C73.836 73.1893 74.0547 72.9493 74.3214 72.768C74.588 72.576 74.892 72.4373 75.2334 72.352C75.5747 72.256 75.9267 72.208 76.2894 72.208C76.8334 72.208 77.356 72.3147 77.8574 72.528C78.3694 72.7413 78.764 73.0507 79.0414 73.456L78.0014 74.336Z" fill="#C3C7BE"/>
<defs>
<clipPath id="clip0_2650_53025">
<rect width="52" height="47" fill="white" transform="translate(12.9995)"/>
</clipPath>
</defs>
</svg>
