<svg width="49" height="49" viewBox="0 0 49 49" fill="none" xmlns="http://www.w3.org/2000/svg">
<g opacity="0.5">
<rect width="49" height="49" rx="10" fill="#3A4D86" fill-opacity="0.34"/>
<path fill-rule="evenodd" clip-rule="evenodd" d="M38.9309 22.8141C38.9452 27.824 38.983 31.977 39.0147 32.0431C39.0465 32.1092 39.0427 32.2101 39.0062 32.2673C38.9696 32.3246 38.5466 32.5098 38.066 32.6789C37.5856 32.8481 36.832 33.0609 36.3916 33.152C35.9512 33.2429 35.0967 33.361 34.4926 33.4143C33.6377 33.4898 33.1989 33.49 32.5117 33.4155C32.0263 33.3629 31.3211 33.2306 30.9448 33.1215C30.5685 33.0125 29.9769 32.7805 29.6302 32.6063C29.2835 32.432 28.7788 32.1053 28.5085 31.8804C28.2381 31.6554 27.8562 31.2667 27.6596 31.0165C27.463 30.7663 27.174 30.318 27.0173 30.0203C26.8607 29.7224 26.6391 29.1279 26.5251 28.699C26.3437 28.0172 26.3169 27.7529 26.3114 26.5978C26.3065 25.573 26.3367 25.1598 26.4457 24.756C26.5232 24.4697 26.6827 24.0013 26.8002 23.715C26.9179 23.4287 27.1185 23.0159 27.2461 22.7976C27.3738 22.5793 27.6451 22.1883 27.8491 21.9286C28.0531 21.6689 28.482 21.2458 28.802 20.9883C29.1221 20.7308 29.6094 20.3943 29.8849 20.2405C30.1603 20.0867 30.7171 19.85 31.1222 19.7145C31.5273 19.579 32.2119 19.4141 32.6437 19.3478C33.0754 19.2816 33.8071 19.2328 34.2695 19.2393L35.1104 19.2513L35.1314 16.4782L35.1525 13.7052H37.0286H38.9048L38.9309 22.8141ZM14.4958 15.2735C14.5537 15.3432 14.7682 15.7486 14.9724 16.1743C15.1766 16.6 15.7604 17.6871 16.2697 18.59C16.7791 19.4929 17.3948 20.6066 17.638 21.065L18.0803 21.8983L18.8055 20.4644C19.2044 19.6757 19.9918 18.1656 20.5554 17.1085L21.5802 15.1867H23.5806C25.3771 15.1867 25.5801 15.2 25.5716 15.3167C25.5664 15.3882 24.4223 17.3264 23.0291 19.6236C21.6359 21.921 20.4961 23.8377 20.4961 23.8831C20.4961 23.9285 21.7081 25.9508 23.1894 28.3771C24.6708 30.8034 25.9003 32.8557 25.9218 32.9377C25.9592 33.0807 25.8691 33.0858 23.6488 33.0654L21.3369 33.0441L20.668 31.7628C20.3001 31.0581 19.5478 29.6528 18.9963 28.6398C18.4447 27.6268 17.9403 26.7126 17.8754 26.6083C17.7606 26.4239 17.7343 26.4619 16.9587 27.9296C16.5196 28.7606 15.7237 30.2458 15.1902 31.23C14.4753 32.5487 14.17 33.0384 14.0296 33.0918C13.9249 33.1316 12.9827 33.1642 11.9359 33.1642C10.889 33.1642 10.0099 33.1416 9.9824 33.114C9.95477 33.0864 9.98304 32.9654 10.0453 32.8452C10.1074 32.7249 11.3131 30.7295 12.7247 28.4108C14.1361 26.0923 15.291 24.1801 15.291 24.1616C15.291 24.1431 14.118 22.1427 12.6844 19.7164C11.2507 17.29 10.0997 15.2692 10.1266 15.2257C10.1567 15.1769 10.9819 15.1466 12.283 15.1466C14.1083 15.1466 14.4046 15.1636 14.4958 15.2735ZM33.2686 22.5125C33.0924 22.551 32.7873 22.6403 32.5905 22.711C32.3938 22.7815 32.0869 22.9248 31.9087 23.0292C31.7305 23.1337 31.394 23.4207 31.1611 23.667C30.928 23.9134 30.649 24.308 30.541 24.544C30.4329 24.78 30.3046 25.1855 30.2559 25.4452C30.2071 25.7048 30.1861 26.2447 30.2092 26.6452C30.2366 27.1192 30.3205 27.5722 30.4496 27.9433C30.5585 28.2569 30.7792 28.6924 30.9396 28.911C31.1002 29.1297 31.4011 29.4209 31.6084 29.5582C31.8155 29.6955 32.2379 29.8854 32.5467 29.9803C32.9411 30.1014 33.3231 30.1533 33.8291 30.1547C34.2255 30.1557 34.685 30.129 34.8501 30.0953L35.1504 30.0339V26.3186C35.1504 23.4597 35.1276 22.5892 35.0517 22.5423C34.9973 22.5088 34.646 22.4725 34.2709 22.4618C33.8958 22.4511 33.4447 22.4739 33.2686 22.5125Z" fill="white"/>
</g>
</svg>
